<svg xmlns="http://www.w3.org/2000/svg" viewBox="-10.0 50.55790960451977 568.1102362204724 201.42655367231637" width="568.1102362204724mm" height="201.42655367231637mm">
<g fill="none" stroke="black" stroke-width="2" stroke-linecap="round" stroke-linejoin="round">
<path d="M 58.07 114.44 L 54.13 119.88 L 49.70 109.99 L 48.23 109.50 L 46.75 109.50 L 45.77 109.00 L 44.29 109.00 L 43.31 109.00 L 41.83 109.50 L 39.37 110.49 L 38.39 110.98 L 36.91 111.97 L 35.93 112.96 L 34.45 114.44 L 32.48 116.42 L 31.00 118.40 L 29.04 120.37 L 25.10 125.81 L 22.64 128.28 L 20.67 131.74 L 18.70 134.71 L 16.73 138.17 L 14.76 141.63 L 12.80 145.59 L 11.32 149.54 L 7.38 157.45 L 5.91 160.91 L 4.92 164.37 L 3.44 167.83 L 1.97 171.29 L 0.98 174.26 L 0.49 176.73 L 0.00 179.20 L 0.49 183.16 L 1.48 184.64 L 1.97 186.12 L 2.95 187.11 L 4.92 187.61 L 6.89 187.61 L 8.86 187.61 L 11.32 187.11 L 16.73 185.13 L 20.18 183.16 L 23.13 181.67 L 30.51 177.22 L 33.46 174.75 L 37.40 171.79 L 40.85 169.31 L 44.29 166.35 L 47.74 163.38 L 50.69 160.42 L 54.13 157.45 L 59.55 151.02 L 62.50 148.06 L 64.96 145.09 L 66.93 142.62 L 69.39 140.15 L 71.36 137.68 L 73.33 135.20 L 74.80 133.23 L 77.26 129.27 L 77.76 127.30 L 78.25 125.81 L 79.23 123.83 L 79.72 122.35 L 80.22 120.87 L 80.22 118.89 L 80.22 117.90 L 80.22 115.93 L 80.22 115.43 L 80.22 114.94 L 79.72 114.44 L 79.72 114.44 L 79.23 114.44 L 78.74 114.94 L 78.25 115.43 L 77.26 116.91 L 76.77 117.90 L 75.79 119.39 L 74.80 120.87 L 73.33 122.35 L 71.85 124.33 L 70.37 125.32 L 69.39 126.80 L 67.91 128.28 L 65.45 130.76 L 64.47 132.24 L 63.98 133.23 L 63.48 134.71 L 62.50 136.19 L 62.01 137.68 L 61.02 139.16 L 60.53 140.64 L 59.55 143.61 L 58.56 145.59 L 58.07 147.07 L 57.09 150.53 L 56.59 152.51 L 56.10 154.48 L 55.61 156.46 L 55.61 158.93 L 55.12 160.42 L 54.63 162.89 L 55.12 164.87 L 55.12 166.84 L 55.12 168.82 L 55.61 170.80 L 55.61 172.28 L 56.10 174.26 L 56.59 176.24 L 57.09 177.72 L 57.58 179.70 L 58.07 181.67 L 59.06 185.63 L 60.04 187.11 L 61.02 189.09 L 61.52 190.57 L 62.50 191.56 L 63.98 192.55 L 65.94 193.54 L 68.41 194.53 L 72.83 196.01 L 75.30 196.01 L 78.74 196.01 L 82.19 196.01 L 86.12 196.01 L 89.57 195.52 L 93.50 194.53 L 97.93 194.03 L 107.78 192.06 L 112.70 191.07 L 117.62 189.58 L 122.54 188.59 L 127.46 187.11 L 131.89 185.63" />
<path d="M 165.43 100.60 L 161.50 109.50 L 161.00 111.48 L 160.02 113.95 L 159.53 115.93 L 159.04 118.40 L 158.54 120.87 L 158.05 123.83 L 157.56 126.80 L 156.57 130.26 L 156.08 133.72 L 155.10 141.63 L 154.61 145.59 L 153.62 150.53 L 152.64 155.47 L 151.16 160.42 L 150.67 165.36 L 149.19 170.30 L 148.21 175.74 L 147.72 180.19 L 146.73 184.64 L 146.24 188.59 L 145.75 192.55 L 145.26 195.52 L 145.26 198.48 L 145.26 200.46 L 145.26 202.93 L 145.26 203.92 L 145.75 204.41 L 146.24 204.41 L 147.22 203.92 L 147.72 203.43 L 148.21 202.93 L 148.70 201.94 L 150.67 199.47 L 151.16 197.99 L 152.15 196.50 L 152.64 195.52 L 153.62 193.54 L 154.11 192.55 L 155.10 191.07 L 155.59 189.58 L 156.08 188.59 L 156.57 187.61 L 157.56 187.11 L 158.05 186.62 L 158.54 186.12 L 159.04 185.63 L 159.53 185.63 L 160.02 185.63 L 161.00 186.12 L 162.48 186.62 L 163.46 187.61 L 164.45 188.10 L 165.43 189.09 L 166.91 190.57 L 168.39 191.56 L 169.37 193.04 L 170.85 194.03 L 172.81 196.50" />
<path d="M 175.28 199.47 L 180.69 207.38 L 181.18 208.86 L 182.17 210.35 L 182.66 211.83 L 183.64 213.31 L 184.13 214.80 L 184.63 216.28 L 185.61 217.76 L 186.10 218.75 L 186.10 220.23 L 186.59 222.21 L 187.09 223.69 L 187.09 225.18 L 187.09 226.66 L 187.09 228.14 L 187.09 229.63 L 186.59 230.61 L 186.10 232.10 L 186.10 233.09 L 185.61 234.07 L 184.63 235.06 L 184.13 236.55 L 183.15 237.04 L 182.17 238.03 L 181.18 239.02 L 179.70 240.01 L 178.23 240.50 L 175.28 241.98 L 173.31 241.98 L 170.85 241.98 L 168.39 241.98 L 165.93 241.98 L 163.46 241.49 L 161.00 241.00 L 158.05 240.50 L 155.59 239.51 L 153.13 238.03 L 150.67 236.55 L 148.21 235.06 L 143.78 231.60 L 141.81 229.63 L 139.84 227.65 L 138.86 226.17 L 137.87 225.18 L 137.38 223.69 L 136.89 222.70 L 136.89 222.21" />
<path d="M 273.29 122.10 L 267.87 125.07 L 263.44 122.60 L 262.95 123.09 L 261.97 123.59 L 260.98 124.08 L 260.00 124.58 L 259.51 125.07 L 258.52 126.06 L 257.54 126.55 L 256.56 127.05 L 255.57 127.54 L 253.60 129.03 L 252.62 129.52 L 251.14 130.51 L 249.67 131.50 L 247.70 132.49 L 246.22 133.47 L 244.74 134.46 L 242.78 135.95 L 241.30 137.43 L 239.82 138.91 L 237.85 140.89 L 236.38 142.37 L 232.44 146.82 L 230.47 148.80 L 228.50 151.27 L 226.54 153.74 L 222.11 158.69 L 220.14 161.16 L 217.68 164.12 L 214.23 169.56 L 212.26 172.53 L 210.79 175.49 L 209.31 178.46 L 207.34 181.43 L 205.87 184.39 L 203.90 187.36 L 202.42 190.32 L 200.94 193.79 L 199.47 196.75 L 198.48 200.21 L 197.50 203.18 L 197.01 206.64 L 196.02 209.60 L 196.02 212.57 L 195.53 215.54 L 195.53 218.01 L 195.53 220.97 L 195.53 223.45 L 196.02 225.92 L 196.52 228.39 L 197.01 230.37 L 197.99 231.85 L 199.96 233.83 L 200.94 235.81 L 202.42 237.29 L 206.36 239.27 L 208.33 240.25 L 210.79 240.75 L 213.74 241.24 L 215.71 241.24 L 218.66 241.74 L 221.61 241.74 L 225.06 241.24 L 231.95 240.25 L 235.89 239.76 L 239.82 238.77 L 243.76 237.78 L 247.70 236.79 L 251.63 235.81 L 255.57 234.82 L 259.51 233.83 L 263.94 232.84 L 267.38 231.36 L 271.81 230.37 L 274.76 229.38" />
<path d="M 365.87 108.02 L 356.52 109.99 L 354.55 111.48 L 352.09 113.45 L 349.63 115.43 L 346.18 117.90 L 343.23 120.87 L 339.78 124.33 L 336.83 127.79 L 333.39 131.74 L 329.94 136.19 L 326.50 140.15 L 323.54 145.09 L 320.59 150.53 L 318.13 156.46 L 315.67 161.90 L 313.70 167.83 L 311.73 173.76 L 310.75 179.20 L 309.76 184.64 L 309.76 189.09 L 309.76 193.04 L 310.75 196.50 L 312.22 199.47 L 314.19 200.95 L 317.15 202.44 L 320.10 202.93 L 323.54 202.93 L 327.48 201.94 L 331.91 200.95 L 336.34 198.48 L 340.77 195.52 L 345.20 192.06 L 350.12 187.61 L 354.55 183.16 L 358.98 178.71 L 362.42 173.76 L 365.37 169.31 L 368.33 164.87 L 370.79 160.42 L 372.76 156.46 L 373.74 153.00 L 375.22 149.05 L 376.20 145.59 L 376.69 142.62 L 377.68 139.16 L 378.17 136.69 L 378.66 133.72 L 379.15 131.74 L 380.14 129.77 L 380.14 128.78 L 380.63 127.79 L 380.63 127.30 L 380.63 126.80 L 380.14 127.30 L 380.14 127.30 L 379.15 128.28 L 378.17 128.78 L 377.19 130.26 L 376.20 132.24 L 374.72 135.20 L 372.76 138.17 L 370.79 142.13 L 368.33 146.57 L 366.36 152.01 L 363.90 157.45 L 361.93 163.38 L 359.47 169.31 L 357.99 174.75 L 357.01 180.69 L 356.52 185.63 L 356.52 190.08 L 357.99 194.03 L 359.96 197.99 L 362.42 200.95 L 365.87 203.43 L 370.30 204.91 L 374.72 206.39 L 380.14 206.89 L 385.55 207.38 L 391.46 207.38 L 397.36 207.38 L 402.78 206.89" />
<path d="M 421.56 60.56 L 420.08 66.00 L 419.09 70.44 L 419.09 72.42 L 418.60 74.89 L 418.60 76.87 L 418.11 79.34 L 417.62 82.31 L 417.62 84.78 L 417.13 87.75 L 417.13 90.71 L 416.63 93.68 L 416.63 97.14 L 416.63 99.61 L 416.14 103.07 L 416.14 106.53 L 415.65 109.50 L 415.65 112.96 L 415.65 116.42 L 415.16 122.35 L 415.16 125.81 L 414.67 129.77 L 414.67 132.73 L 414.67 136.19 L 414.17 139.65 L 414.17 143.11 L 413.68 147.56 L 412.70 155.47 L 412.20 158.93 L 411.71 163.38 L 411.71 167.34 L 411.22 171.29 L 410.24 174.75 L 410.24 178.21 L 409.25 182.17 L 408.76 188.59 L 408.27 191.07 L 408.27 193.54 L 407.78 196.01 L 407.78 197.99 L 407.78 199.47 L 407.78 200.95 L 407.78 201.45 L 407.78 201.94 L 407.78 202.44 L 407.78 202.93 L 407.78 202.93 L 407.78 202.44 L 407.78 202.44 L 407.78 202.44 L 408.27 201.94 L 408.27 200.95 L 409.74 198.48 L 410.73 196.50 L 411.22 195.02 L 411.71 193.04 L 412.20 191.07 L 413.19 189.09 L 413.68 187.11 L 414.67 185.63 L 415.16 183.65 L 416.14 182.17 L 417.13 180.69 L 417.62 179.70 L 419.09 178.21 L 420.08 177.22 L 421.06 176.73 L 422.05 176.24 L 423.03 176.24 L 424.02 175.74 L 425.00 175.74 L 426.48 175.74 L 427.46 175.74 L 429.92 176.24 L 430.91 176.24 L 432.38 176.73 L 433.37 177.22 L 434.35 177.72 L 435.33 178.21 L 436.81 178.71 L 437.80 179.70 L 438.78 180.19 L 439.76 181.18 L 440.26 181.67 L 441.24 182.66 L 442.22 183.65 L 442.72 185.13 L 443.21 186.12 L 444.19 187.11 L 444.69 188.10 L 445.18 189.58 L 445.67 190.57 L 446.65 192.06" />
<path d="M 447.64 194.53 L 450.10 204.91 L 450.10 205.90 L 450.10 207.38 L 450.10 208.86 L 449.61 210.35 L 449.11 211.33 L 448.13 212.82 L 447.15 213.81 L 446.16 214.80 L 445.18 216.28 L 443.21 218.26 L 441.73 219.24 L 440.75 220.23 L 439.27 220.73 L 437.80 221.22 L 436.32 222.21 L 434.84 222.70 L 433.37 222.70 L 431.40 223.20 L 428.94 223.20 L 426.97 223.20 L 425.00 223.20 L 423.03 223.20 L 421.06 222.70 L 419.09 222.70 L 417.62 222.21 L 416.63 221.72 L 414.67 220.73 L 413.68 220.23 L 413.19 219.74 L 412.70 219.24 L 412.20 219.24 L 411.71 218.75 L 411.71 218.75" />
<path d="M 527.93 128.04 L 526.46 134.46 L 518.09 125.07 L 516.61 125.07 L 515.14 125.07 L 513.66 125.07 L 512.19 125.07 L 510.71 125.56 L 508.74 126.06 L 505.30 127.05 L 503.82 128.04 L 501.85 128.53 L 499.88 130.01 L 496.93 131.50 L 494.96 132.98 L 492.50 133.97 L 490.04 135.95 L 484.63 139.90 L 482.66 142.37 L 480.20 144.35 L 477.74 146.82 L 475.77 149.29 L 473.31 152.26 L 471.34 155.23 L 469.37 157.70 L 466.91 160.66 L 464.94 164.12 L 463.46 167.58 L 461.50 170.55 L 459.04 177.97 L 458.05 181.43 L 457.07 184.89 L 456.08 188.35 L 456.08 191.81 L 455.59 195.27 L 455.10 198.73 L 455.10 201.69 L 455.59 208.12 L 456.08 211.58 L 456.57 214.55 L 457.56 217.51 L 458.54 219.99 L 459.53 222.46 L 461.50 224.93 L 463.46 226.91 L 465.43 228.39 L 467.89 229.87 L 470.85 230.86 L 473.80 231.36 L 477.24 232.34 L 483.15 232.34 L 487.58 231.85 L 491.52 231.36 L 495.45 230.86 L 499.39 230.37 L 503.33 229.38 L 508.25 228.39 L 512.68 227.40 L 517.11 226.41 L 521.04 225.42 L 524.98 224.93 L 529.41 224.44 L 537.28 223.45 L 540.73 223.45 L 544.67 223.94 L 548.11 223.94" />
</g>
</svg>