<?xml version='1.0' encoding='utf-8'?>
<svg xmlns="http://www.w3.org/2000/svg" viewBox="-10.00 -84.25 159.50 96.00" width="159.5mm" height="96.0mm">
  <g fill="none" stroke="black" stroke-width="2" stroke-linecap="round" stroke-linejoin="round">
    <path d="M 13.50 -47.25 L 13.50 -45.25 L 13.50 -45.75 L 12.50 -35.75 L 12.50 -34.25 L 12.00 -32.75 L 12.00 -30.75 L 11.50 -29.25 L 11.50 -27.75 L 11.00 -26.25 L 11.00 -24.75 L 11.00 -22.75 L 10.50 -21.25 L 10.50 -19.25 L 10.50 -17.75 L 10.50 -16.25 L 10.50 -14.75 L 10.50 -13.75 L 10.50 -13.25 L 11.00 -12.75 L 11.00 -12.25 L 11.00 -12.25 L 11.50 -12.25 L 11.50 -12.25 L 12.00 -12.75 L 12.00 -13.25" />
    <path d="M 0.00 -53.75 L 10.00 -53.75 L 11.50 -53.75 L 13.00 -53.25 L 15.00 -53.25 L 16.50 -53.25 L 19.00 -53.25 L 21.00 -53.25 L 23.00 -53.25 L 25.00 -53.25 L 27.00 -53.25 L 29.00 -53.75 L 34.00 -53.75 L 35.50 -53.75 L 39.00 -53.75 L 40.50 -54.25 L 42.50 -54.25 L 48.00 -54.75 L 50.00 -55.25 L 52.00 -55.25 L 55.00 -55.25 L 56.50 -55.75 L 58.00 -55.75 L 61.00 -55.75" />
    <path d="M 42.50 -21.25 L 53.00 -19.25 L 54.50 -19.75 L 56.00 -20.75 L 57.00 -21.75 L 58.00 -22.25 L 59.00 -22.75 L 59.50 -23.25 L 60.00 -24.25 L 60.00 -24.75 L 60.50 -25.25 L 61.00 -25.75 L 61.00 -26.25 L 61.00 -26.75 L 61.00 -26.75 L 61.00 -27.25 L 61.00 -27.75 L 60.50 -27.75 L 60.50 -27.75 L 60.00 -28.25 L 59.50 -28.25 L 59.00 -28.75 L 59.00 -28.75 L 58.50 -28.75 L 58.00 -28.75 L 57.00 -29.25 L 56.50 -29.25 L 56.00 -29.25 L 55.00 -29.25 L 54.00 -28.75 L 53.00 -28.75 L 51.50 -28.25 L 50.50 -28.25 L 49.00 -27.75 L 47.50 -26.75 L 46.50 -25.75 L 45.00 -25.25 L 43.50 -23.75 L 40.50 -19.25 L 39.50 -17.75 L 38.50 -16.25 L 38.50 -14.75 L 38.00 -13.25 L 38.00 -12.25 L 38.00 -11.25 L 38.00 -10.25 L 38.50 -9.25 L 39.00 -8.75 L 40.00 -8.25 L 41.00 -7.75 L 42.00 -7.75 L 43.00 -7.25 L 44.50 -7.25 L 46.50 -7.75 L 47.50 -7.75 L 49.50 -8.25 L 51.00 -8.75 L 52.50 -8.75 L 54.50 -9.75 L 56.50 -10.25 L 58.00 -10.75 L 59.50 -11.25 L 61.50 -11.75" />
    <path d="M 94.00 -29.75 L 90.50 -23.75 L 90.50 -24.25 L 84.00 -30.75 L 83.00 -30.25 L 82.00 -29.75 L 81.50 -29.25 L 80.50 -28.75 L 80.00 -27.75 L 79.00 -26.75 L 79.00 -25.25 L 78.50 -24.25 L 78.00 -23.25 L 78.00 -21.75 L 78.00 -20.75 L 78.00 -19.75 L 78.50 -18.75 L 78.50 -17.75 L 79.00 -17.25 L 79.50 -16.75 L 80.50 -16.25 L 81.00 -16.25 L 82.00 -16.25 L 83.50 -16.25 L 84.50 -16.75 L 86.00 -17.25 L 87.00 -17.75 L 88.50 -18.25 L 90.00 -18.75 L 91.50 -18.75 L 92.50 -19.25 L 93.50 -19.25 L 94.00 -19.25 L 95.00 -18.75 L 95.00 -18.75 L 95.50 -18.25 L 95.50 -17.25 L 95.50 -16.75 L 95.00 -15.75 L 94.50 -14.75 L 93.50 -12.75 L 93.00 -11.75 L 92.50 -10.75 L 91.50 -9.75 L 91.00 -8.75 L 90.50 -7.75 L 89.50 -6.75 L 89.00 -5.75 L 88.00 -4.75 L 87.50 -3.75 L 86.50 -2.75 L 86.00 -1.75 L 85.00 -1.25 L 84.50 -0.25 L 83.50 0.25 L 83.00 0.75 L 82.50 1.25 L 81.50 1.75 L 81.00 1.75 L 80.50 1.75 L 80.00 1.75 L 80.00 1.75 L 79.50 1.75 L 79.50 1.25 L 79.00 0.75 L 78.50 -0.25" />
    <path d="M 118.50 -74.25 L 117.50 -72.25 L 118.00 -72.25 L 117.00 -63.25 L 116.50 -60.75 L 116.50 -58.75 L 116.00 -56.25 L 116.00 -53.75 L 115.50 -51.75 L 115.50 -49.25 L 115.50 -47.25 L 115.00 -44.75 L 115.00 -42.25 L 114.50 -39.75 L 114.50 -37.25 L 114.00 -34.75 L 113.50 -31.75 L 113.50 -29.25 L 113.00 -26.75 L 112.50 -24.25 L 112.50 -21.75 L 112.00 -19.75 L 111.50 -14.75 L 111.00 -13.25 L 111.00 -11.25 L 110.00 -7.75 L 110.00 -6.75 L 109.50 -5.25 L 109.50 -3.25 L 109.50 -2.25 L 109.50 -1.75 L 109.50 -1.25 L 109.50 -0.25 L 109.50 0.25 L 109.50 0.25 L 109.00 0.25 L 109.00 0.25 L 109.00 0.25 L 109.00 0.25 L 109.00 0.25 L 109.00 0.25 L 109.00 0.25 L 109.00 0.25 L 109.00 0.25 L 109.00 -0.25 L 109.00 -0.25 L 109.00 -0.25 L 109.00 -0.25 L 110.00 -4.75 L 110.50 -7.25 L 111.00 -9.25 L 111.00 -10.25 L 111.00 -11.25 L 111.50 -12.25 L 111.50 -13.25 L 111.50 -14.25 L 112.00 -16.75 L 112.00 -18.25 L 112.50 -19.25 L 112.50 -20.75 L 113.00 -23.25 L 113.00 -24.75 L 113.50 -25.75 L 113.50 -27.75 L 113.50 -28.75 L 113.50 -29.75 L 114.00 -31.75 L 114.00 -32.75 L 114.00 -33.25 L 114.00 -34.25 L 114.00 -35.25 L 114.00 -35.75 L 114.00 -36.25 L 114.00 -36.75 L 114.00 -36.75 L 114.00 -36.75 L 114.00 -36.75 L 114.00 -37.25 L 114.00 -37.25 L 114.00 -37.25 L 113.50 -37.25 L 113.50 -37.25 L 113.50 -37.25 L 113.50 -37.25 L 113.50 -37.25 L 113.50 -37.25 L 113.50 -37.75 L 113.00 -37.75 L 113.00 -37.75 L 113.00 -37.75 L 113.00 -37.75 L 113.00 -37.75 L 112.00 -38.25 L 112.00 -38.75 L 111.50 -38.75 L 111.00 -39.25 L 110.50 -39.25 L 109.00 -41.25 L 108.50 -41.25 L 108.50 -41.75 L 108.00 -42.25 L 107.50 -42.25 L 107.00 -42.75 L 106.50 -42.75 L 106.50 -43.25 L 105.50 -43.25 L 105.00 -43.75 L 104.50 -43.75 L 104.00 -44.25 L 103.50 -44.25 L 103.00 -44.75 L 103.00 -44.75 L 102.50 -45.25 L 102.00 -45.25 L 101.50 -45.75 L 101.00 -45.75 L 100.00 -46.25 L 99.50 -46.25 L 99.00 -46.25 L 98.00 -46.25 L 98.00 -46.75 L 98.00 -46.75 L 98.00 -46.75 L 98.00 -47.25 L 98.00 -47.25 L 97.50 -47.25 L 97.50 -47.25 L 97.50 -47.25 L 97.50 -47.25 L 97.50 -47.25 L 98.00 -47.25 L 98.50 -46.75 L 101.00 -46.25 L 102.00 -45.75 L 103.50 -45.25 L 104.50 -45.25 L 105.50 -44.75 L 107.00 -44.75 L 108.00 -44.75 L 109.50 -44.25 L 110.50 -44.25 L 112.00 -44.25 L 113.50 -44.25 L 114.50 -44.25 L 116.50 -44.75 L 119.50 -44.75 L 121.00 -44.75 L 122.50 -44.75 L 125.50 -44.75 L 127.50 -44.75 L 128.50 -44.75 L 130.00 -44.75 L 131.00 -44.75 L 132.00 -44.75 L 133.00 -44.75 L 134.00 -44.75 L 134.50 -44.25 L 135.50 -44.25 L 136.50 -44.25 L 137.00 -44.25 L 137.50 -43.75 L 138.00 -44.25 L 138.50 -44.25 L 139.00 -43.75 L 139.50 -43.75 L 139.50 -43.75 L 139.50 -43.75 L 139.50 -43.75 L 139.50 -43.75 L 139.50 -43.75 L 139.50 -43.75 L 139.50 -43.75 L 139.50 -43.75 L 139.50 -43.75 L 139.50 -43.75 L 139.50 -43.75 L 139.50 -43.75 L 139.50 -43.25" />
  </g>
</svg>