<?xml version='1.0' encoding='utf-8'?>
<svg xmlns="http://www.w3.org/2000/svg" viewBox="-10.00 -81.25 142.50 93.00" width="142.5mm" height="93.0mm">
  <g fill="none" stroke="black" stroke-width="2" stroke-linecap="round" stroke-linejoin="round">
    <path d="M 16.50 -63.75 L 15.88 -62.83 L 14.97 -61.47 L 13.97 -59.97 L 13.08 -58.63 L 12.50 -57.75 L 12.30 -57.52 L 12.35 -57.75 L 12.55 -58.13 L 12.80 -58.40 L 13.00 -58.25 L 13.19 -57.58 L 13.44 -56.57 L 13.68 -55.41 L 13.89 -54.24 L 14.00 -53.25 L 14.00 -52.42 L 13.91 -51.65 L 13.77 -50.93 L 13.62 -50.30 L 13.50 -49.75 L 13.39 -49.32 L 13.28 -49.01 L 13.16 -48.75 L 13.07 -48.52 L 13.00 -48.25 L 12.98 -47.96 L 12.99 -47.67 L 13.01 -47.39 L 13.02 -47.08 L 13.00 -46.75 L 12.93 -46.39 L 12.84 -46.01 L 12.72 -45.61 L 12.61 -45.19 L 12.50 -44.75 L 12.40 -44.27 L 12.30 -43.76 L 12.20 -43.24 L 12.10 -42.73 L 12.00 -42.25 L 11.90 -41.82 L 11.80 -41.41 L 11.70 -41.03 L 11.60 -40.64 L 11.50 -40.25 L 11.40 -39.89 L 11.30 -39.57 L 11.20 -39.23 L 11.10 -38.81 L 11.00 -38.25 L 10.90 -37.47 L 10.80 -36.51 L 10.70 -35.49 L 10.60 -34.53 L 10.50 -33.75 L 10.40 -33.22 L 10.30 -32.87 L 10.20 -32.57 L 10.10 -32.24 L 10.00 -31.75 L 9.90 -31.05 L 9.80 -30.20 L 9.70 -29.30 L 9.60 -28.45 L 9.50 -27.75 L 9.40 -27.21 L 9.30 -26.78 L 9.20 -26.42 L 9.10 -26.09 L 9.00 -25.75 L 8.89 -25.43 L 8.78 -25.14 L 8.66 -24.86 L 8.57 -24.57 L 8.50 -24.25 L 8.48 -23.88 L 8.49 -23.49 L 8.51 -23.07 L 8.52 -22.66 L 8.50 -22.25 L 8.42 -21.85 L 8.31 -21.45 L 8.19 -21.05 L 8.08 -20.65 L 8.00 -20.25 L 7.98 -19.87 L 7.99 -19.52 L 8.01 -19.16 L 8.02 -18.75 L 8.00 -18.25 L 7.92 -17.61 L 7.81 -16.86 L 7.69 -16.08 L 7.58 -15.35 L 7.50 -14.75 L 7.47 -14.32 L 7.46 -14.01 L 7.48 -13.75 L 7.49 -13.52 L 7.50 -13.25 L 7.51 -12.94 L 7.52 -12.63 L 7.54 -12.31 L 7.53 -12.02 L 7.50 -11.75 L 7.42 -11.52 L 7.31 -11.31 L 7.19 -11.13 L 7.08 -10.94 L 7.00 -10.75 L 6.97 -10.56 L 6.96 -10.37 L 6.98 -10.19 L 6.99 -9.98 L 7.00 -9.75 L 6.99 -9.47 L 6.98 -9.14 L 6.96 -8.80 L 6.97 -8.49 L 7.00 -8.25 L 7.08 -8.09 L 7.19 -7.98 L 7.31 -7.90 L 7.42 -7.83 L 7.50 -7.75 L 7.53 -7.64 L 7.54 -7.53 L 7.52 -7.41 L 7.51 -7.32 L 7.50 -7.25 L 7.50 -7.22 L 7.50 -7.21 L 7.50 -7.23 L 7.50 -7.24 L 7.50 -7.25 L 7.50 -7.25 L 7.50 -7.25 L 7.50 -7.25 L 7.50 -7.25 L 7.50 -7.25 L 7.50 -7.25 L 7.50 -7.25 L 7.50 -7.25 L 7.50 -7.25 L 7.50 -7.25 L 7.50 -7.24 L 7.50 -7.23 L 7.50 -7.21 L 7.50 -7.22 L 7.50 -7.25 L 7.50 -7.33 L 7.50 -7.44 L 7.50 -7.56 L 7.50 -7.67 L 7.50 -7.75 L 7.50 -7.78 L 7.50 -7.79 L 7.50 -7.77 L 7.50 -7.76 L 7.50 -7.75 L 7.49 -7.73 L 7.48 -7.70 L 7.46 -7.68 L 7.47 -7.69 L 7.50 -7.75 L 7.57 -7.86 L 7.66 -8.01 L 7.78 -8.19 L 7.89 -8.44 L 8.00 -8.75 L 8.11 -9.15 L 8.22 -9.64 L 8.34 -10.18 L 8.43 -10.73 L 8.50 -11.25 L 8.53 -11.79 L 8.54 -12.37 L 8.52 -12.93 L 8.51 -13.41 L 8.50 -13.75" />
    <path d="M 0.00 -65.75 L 1.42 -65.44 L 3.50 -64.97 L 5.82 -64.47 L 7.96 -64.02 L 9.50 -63.75 L 10.26 -63.68 L 10.53 -63.75 L 10.57 -63.89 L 10.64 -64.08 L 11.00 -64.25 L 11.75 -64.43 L 12.70 -64.64 L 13.74 -64.86 L 14.71 -65.07 L 15.50 -65.25 L 16.08 -65.38 L 16.53 -65.49 L 16.89 -65.57 L 17.20 -65.66 L 17.50 -65.75 L 17.72 -65.83 L 17.83 -65.90 L 17.93 -65.98 L 18.12 -66.09 L 18.50 -66.25 L 19.15 -66.50 L 20.00 -66.83 L 20.94 -67.17 L 21.81 -67.50 L 22.50 -67.75 L 22.92 -67.91 L 23.16 -68.02 L 23.34 -68.10 L 23.58 -68.17 L 24.00 -68.25 L 24.69 -68.35 L 25.56 -68.45 L 26.50 -68.55 L 27.35 -68.65 L 28.00 -68.75 L 28.38 -68.86 L 28.59 -68.97 L 28.71 -69.09 L 28.82 -69.18 L 29.00 -69.25 L 29.20 -69.27 L 29.37 -69.24 L 29.59 -69.20 L 29.94 -69.19 L 30.50 -69.25 L 31.38 -69.39 L 32.51 -69.60 L 33.75 -69.84 L 34.96 -70.07 L 36.00 -70.25 L 36.88 -70.38 L 37.69 -70.49 L 38.41 -70.57 L 39.02 -70.66 L 39.50 -70.75 L 39.74 -70.86 L 39.75 -70.97 L 39.69 -71.09 L 39.72 -71.18 L 40.00 -71.25 L 40.62 -71.28 L 41.49 -71.29 L 42.45 -71.27 L 43.34 -71.26 L 44.00 -71.25 L 44.37 -71.25 L 44.54 -71.25 L 44.64 -71.25 L 44.75 -71.25 L 45.00 -71.25 L 45.44 -71.25 L 45.99 -71.25 L 46.57 -71.25 L 47.10 -71.25 L 47.50 -71.25 L 47.70 -71.25 L 47.77 -71.25 L 47.79 -71.25 L 47.84 -71.25 L 48.00 -71.25 L 48.33 -71.26 L 48.76 -71.27 L 49.24 -71.29 L 49.67 -71.28 L 50.00 -71.25 L 50.19 -71.17 L 50.28 -71.06 L 50.34 -70.94 L 50.39 -70.83 L 50.50 -70.75 L 50.68 -70.72 L 50.91 -70.71 L 51.15 -70.73 L 51.36 -70.74 L 51.50 -70.75 L 51.56 -70.75 L 51.55 -70.75 L 51.51 -70.75 L 51.48 -70.75 L 51.50 -70.75 L 51.57 -70.76 L 51.66 -70.77 L 51.78 -70.79 L 51.89 -70.78 L 52.00 -70.75 L 52.11 -70.67 L 52.22 -70.56 L 52.34 -70.44 L 52.43 -70.33 L 52.50 -70.25" />
    <path d="M 30.00 -20.25 L 30.59 -20.93 L 31.40 -21.97 L 32.38 -23.07 L 33.43 -23.93 L 34.50 -24.25 L 35.68 -23.81 L 37.03 -22.82 L 38.39 -21.60 L 39.60 -20.47 L 40.50 -19.75 L 41.02 -19.53 L 41.26 -19.59 L 41.34 -19.81 L 41.38 -20.07 L 41.50 -20.25 L 41.69 -20.35 L 41.88 -20.45 L 42.06 -20.55 L 42.27 -20.65 L 42.50 -20.75 L 42.78 -20.85 L 43.11 -20.95 L 43.45 -21.05 L 43.76 -21.15 L 44.00 -21.25 L 44.16 -21.34 L 44.25 -21.43 L 44.31 -21.51 L 44.38 -21.62 L 44.50 -21.75 L 44.67 -21.93 L 44.86 -22.14 L 45.08 -22.36 L 45.29 -22.57 L 45.50 -22.75 L 45.71 -22.87 L 45.92 -22.96 L 46.14 -23.04 L 46.33 -23.13 L 46.50 -23.25 L 46.62 -23.42 L 46.71 -23.61 L 46.79 -23.83 L 46.88 -24.04 L 47.00 -24.25 L 47.18 -24.46 L 47.39 -24.67 L 47.61 -24.89 L 47.82 -25.08 L 48.00 -25.25 L 48.13 -25.37 L 48.24 -25.46 L 48.32 -25.54 L 48.41 -25.63 L 48.50 -25.75 L 48.61 -25.93 L 48.72 -26.14 L 48.84 -26.36 L 48.93 -26.57 L 49.00 -26.75 L 49.02 -26.87 L 49.01 -26.96 L 48.99 -27.04 L 48.98 -27.13 L 49.00 -27.25 L 49.08 -27.43 L 49.19 -27.64 L 49.31 -27.86 L 49.42 -28.07 L 49.50 -28.25 L 49.53 -28.39 L 49.54 -28.51 L 49.52 -28.61 L 49.51 -28.69 L 49.50 -28.75 L 49.50 -28.77 L 49.50 -28.76 L 49.50 -28.74 L 49.50 -28.73 L 49.50 -28.75 L 49.50 -28.82 L 49.50 -28.91 L 49.50 -29.03 L 49.50 -29.14 L 49.50 -29.25 L 49.51 -29.36 L 49.52 -29.47 L 49.54 -29.59 L 49.53 -29.68 L 49.50 -29.75 L 49.42 -29.78 L 49.31 -29.79 L 49.19 -29.77 L 49.08 -29.76 L 49.00 -29.75 L 48.97 -29.75 L 48.96 -29.75 L 48.98 -29.75 L 48.99 -29.75 L 49.00 -29.75 L 49.00 -29.75 L 49.00 -29.75 L 49.00 -29.75 L 49.00 -29.75 L 49.00 -29.75 L 49.00 -29.75 L 49.00 -29.75 L 49.00 -29.75 L 49.00 -29.75 L 49.00 -29.75 L 49.01 -29.75 L 49.02 -29.75 L 49.04 -29.75 L 49.03 -29.75 L 49.00 -29.75 L 48.94 -29.75 L 48.86 -29.75 L 48.76 -29.75 L 48.64 -29.75 L 48.50 -29.75 L 48.35 -29.76 L 48.18 -29.77 L 48.00 -29.79 L 47.77 -29.78 L 47.50 -29.75 L 47.14 -29.67 L 46.70 -29.56 L 46.24 -29.44 L 45.82 -29.33 L 45.50 -29.25 L 45.31 -29.23 L 45.22 -29.24 L 45.16 -29.26 L 45.11 -29.27 L 45.00 -29.25 L 44.83 -29.18 L 44.64 -29.09 L 44.42 -28.97 L 44.21 -28.86 L 44.00 -28.75 L 43.79 -28.65 L 43.58 -28.55 L 43.36 -28.45 L 43.17 -28.35 L 43.00 -28.25 L 42.88 -28.15 L 42.81 -28.05 L 42.75 -27.95 L 42.66 -27.85 L 42.50 -27.75 L 42.26 -27.65 L 41.95 -27.55 L 41.61 -27.45 L 41.28 -27.35 L 41.00 -27.25 L 40.77 -27.16 L 40.56 -27.07 L 40.38 -26.99 L 40.19 -26.88 L 40.00 -26.75 L 39.81 -26.57 L 39.62 -26.36 L 39.44 -26.14 L 39.23 -25.93 L 39.00 -25.75 L 38.73 -25.63 L 38.44 -25.54 L 38.12 -25.46 L 37.81 -25.37 L 37.50 -25.25 L 37.19 -25.09 L 36.88 -24.91 L 36.56 -24.71 L 36.27 -24.49 L 36.00 -24.25 L 35.77 -23.97 L 35.56 -23.66 L 35.38 -23.34 L 35.19 -23.03 L 35.00 -22.75 L 34.81 -22.52 L 34.62 -22.31 L 34.44 -22.13 L 34.23 -21.94 L 34.00 -21.75 L 33.73 -21.58 L 33.44 -21.45 L 33.12 -21.29 L 32.81 -21.08 L 32.50 -20.75 L 32.18 -20.25 L 31.85 -19.62 L 31.53 -18.94 L 31.24 -18.29 L 31.00 -17.75 L 30.84 -17.35 L 30.73 -17.02 L 30.65 -16.74 L 30.58 -16.49 L 30.50 -16.25 L 30.40 -16.03 L 30.30 -15.84 L 30.20 -15.66 L 30.10 -15.47 L 30.00 -15.25 L 29.89 -14.97 L 29.78 -14.66 L 29.66 -14.34 L 29.57 -14.03 L 29.50 -13.75 L 29.47 -13.52 L 29.46 -13.31 L 29.48 -13.13 L 29.49 -12.94 L 29.50 -12.75 L 29.50 -12.55 L 29.50 -12.35 L 29.50 -12.15 L 29.50 -11.95 L 29.50 -11.75 L 29.49 -11.55 L 29.48 -11.35 L 29.46 -11.15 L 29.47 -10.95 L 29.50 -10.75 L 29.57 -10.54 L 29.66 -10.33 L 29.78 -10.11 L 29.89 -9.92 L 30.00 -9.75 L 30.10 -9.62 L 30.20 -9.51 L 30.30 -9.43 L 30.40 -9.34 L 30.50 -9.25 L 30.59 -9.15 L 30.68 -9.05 L 30.76 -8.95 L 30.87 -8.85 L 31.00 -8.75 L 31.17 -8.64 L 31.36 -8.53 L 31.58 -8.41 L 31.79 -8.32 L 32.00 -8.25 L 32.20 -8.23 L 32.40 -8.24 L 32.60 -8.26 L 32.80 -8.27 L 33.00 -8.25 L 33.20 -8.17 L 33.40 -8.06 L 33.60 -7.94 L 33.80 -7.83 L 34.00 -7.75 L 34.20 -7.72 L 34.40 -7.71 L 34.60 -7.73 L 34.80 -7.74 L 35.00 -7.75 L 35.19 -7.75 L 35.38 -7.75 L 35.56 -7.75 L 35.77 -7.75 L 36.00 -7.75 L 36.27 -7.74 L 36.56 -7.73 L 36.88 -7.71 L 37.19 -7.72 L 37.50 -7.75 L 37.80 -7.82 L 38.10 -7.91 L 38.40 -8.03 L 38.70 -8.14 L 39.00 -8.25 L 39.31 -8.35 L 39.62 -8.45 L 39.94 -8.55 L 40.23 -8.65 L 40.50 -8.75 L 40.72 -8.85 L 40.89 -8.95 L 41.05 -9.05 L 41.24 -9.15 L 41.50 -9.25 L 41.85 -9.34 L 42.28 -9.43 L 42.72 -9.51 L 43.15 -9.62 L 43.50 -9.75 L 43.75 -9.93 L 43.92 -10.14 L 44.08 -10.36 L 44.25 -10.57 L 44.50 -10.75 L 44.84 -10.88 L 45.25 -10.99 L 45.69 -11.07 L 46.12 -11.16 L 46.50 -11.25 L 46.83 -11.35 L 47.14 -11.45 L 47.42 -11.55 L 47.71 -11.65 L 48.00 -11.75 L 48.32 -11.86 L 48.67 -11.97 L 49.01 -12.09 L 49.30 -12.18 L 49.50 -12.25" />
    <path d="M 73.00 -34.25 L 72.70 -33.41 L 72.25 -32.16 L 71.75 -30.78 L 71.30 -29.55 L 71.00 -28.75 L 70.98 -28.50 L 71.17 -28.61 L 71.37 -28.91 L 71.38 -29.18 L 71.00 -29.25 L 70.03 -29.07 L 68.60 -28.77 L 67.02 -28.41 L 65.55 -28.05 L 64.50 -27.75 L 63.95 -27.52 L 63.70 -27.31 L 63.64 -27.13 L 63.61 -26.94 L 63.50 -26.75 L 63.29 -26.56 L 63.08 -26.37 L 62.86 -26.19 L 62.67 -25.98 L 62.50 -25.75 L 62.36 -25.47 L 62.24 -25.16 L 62.14 -24.84 L 62.06 -24.53 L 62.00 -24.25 L 61.97 -24.02 L 61.96 -23.81 L 61.98 -23.63 L 61.99 -23.44 L 62.00 -23.25 L 62.01 -23.05 L 62.02 -22.85 L 62.04 -22.65 L 62.03 -22.45 L 62.00 -22.25 L 61.92 -22.05 L 61.81 -21.85 L 61.69 -21.65 L 61.58 -21.45 L 61.50 -21.25 L 61.46 -21.04 L 61.44 -20.83 L 61.44 -20.61 L 61.46 -20.42 L 61.50 -20.25 L 61.57 -20.13 L 61.66 -20.04 L 61.78 -19.96 L 61.89 -19.87 L 62.00 -19.75 L 62.10 -19.57 L 62.20 -19.36 L 62.30 -19.14 L 62.40 -18.93 L 62.50 -18.75 L 62.59 -18.61 L 62.68 -18.49 L 62.76 -18.39 L 62.87 -18.31 L 63.00 -18.25 L 63.17 -18.23 L 63.36 -18.24 L 63.58 -18.26 L 63.79 -18.27 L 64.00 -18.25 L 64.20 -18.17 L 64.40 -18.04 L 64.60 -17.90 L 64.80 -17.79 L 65.00 -17.75 L 65.20 -17.79 L 65.40 -17.90 L 65.60 -18.04 L 65.80 -18.17 L 66.00 -18.25 L 66.19 -18.27 L 66.38 -18.26 L 66.56 -18.24 L 66.77 -18.23 L 67.00 -18.25 L 67.28 -18.33 L 67.59 -18.44 L 67.91 -18.56 L 68.22 -18.67 L 68.50 -18.75 L 68.72 -18.77 L 68.91 -18.74 L 69.09 -18.70 L 69.28 -18.69 L 69.50 -18.75 L 69.77 -18.89 L 70.06 -19.10 L 70.38 -19.34 L 70.69 -19.57 L 71.00 -19.75 L 71.30 -19.87 L 71.60 -19.96 L 71.90 -20.04 L 72.20 -20.13 L 72.50 -20.25 L 72.80 -20.43 L 73.10 -20.64 L 73.40 -20.86 L 73.70 -21.07 L 74.00 -21.25 L 74.31 -21.39 L 74.62 -21.51 L 74.94 -21.61 L 75.23 -21.69 L 75.50 -21.75 L 75.73 -21.77 L 75.94 -21.76 L 76.12 -21.74 L 76.31 -21.73 L 76.50 -21.75 L 76.70 -21.83 L 76.90 -21.94 L 77.10 -22.06 L 77.30 -22.17 L 77.50 -22.25 L 77.71 -22.28 L 77.92 -22.29 L 78.14 -22.27 L 78.33 -22.26 L 78.50 -22.25 L 78.63 -22.25 L 78.74 -22.25 L 78.82 -22.25 L 78.91 -22.25 L 79.00 -22.25 L 79.10 -22.26 L 79.20 -22.27 L 79.30 -22.29 L 79.40 -22.28 L 79.50 -22.25 L 79.61 -22.18 L 79.72 -22.09 L 79.84 -21.97 L 79.93 -21.86 L 80.00 -21.75 L 80.03 -21.65 L 80.04 -21.55 L 80.02 -21.45 L 80.01 -21.35 L 80.00 -21.25 L 80.01 -21.16 L 80.02 -21.07 L 80.04 -20.99 L 80.03 -20.88 L 80.00 -20.75 L 79.93 -20.58 L 79.84 -20.39 L 79.72 -20.17 L 79.61 -19.96 L 79.50 -19.75 L 79.40 -19.54 L 79.30 -19.33 L 79.20 -19.11 L 79.10 -18.92 L 79.00 -18.75 L 78.90 -18.63 L 78.80 -18.54 L 78.70 -18.46 L 78.60 -18.37 L 78.50 -18.25 L 78.41 -18.10 L 78.32 -17.93 L 78.24 -17.75 L 78.13 -17.52 L 78.00 -17.25 L 77.83 -16.90 L 77.64 -16.47 L 77.42 -16.03 L 77.21 -15.60 L 77.00 -15.25 L 76.79 -14.99 L 76.58 -14.78 L 76.36 -14.60 L 76.17 -14.43 L 76.00 -14.25 L 75.87 -14.05 L 75.76 -13.85 L 75.68 -13.65 L 75.59 -13.45 L 75.50 -13.25 L 75.41 -13.04 L 75.32 -12.83 L 75.24 -12.61 L 75.13 -12.42 L 75.00 -12.25 L 74.82 -12.12 L 74.61 -12.01 L 74.39 -11.93 L 74.18 -11.84 L 74.00 -11.75 L 73.88 -11.66 L 73.79 -11.57 L 73.71 -11.49 L 73.62 -11.38 L 73.50 -11.25 L 73.32 -11.07 L 73.11 -10.86 L 72.89 -10.64 L 72.68 -10.43 L 72.50 -10.25 L 72.37 -10.11 L 72.26 -9.99 L 72.18 -9.89 L 72.09 -9.81 L 72.00 -9.75 L 71.91 -9.73 L 71.82 -9.74 L 71.74 -9.76 L 71.63 -9.77 L 71.50 -9.75 L 71.32 -9.68 L 71.11 -9.59 L 70.89 -9.47 L 70.68 -9.36 L 70.50 -9.25 L 70.38 -9.15 L 70.29 -9.05 L 70.21 -8.95 L 70.12 -8.85 L 70.00 -8.75 L 69.82 -8.64 L 69.61 -8.53 L 69.39 -8.41 L 69.18 -8.32 L 69.00 -8.25 L 68.88 -8.23 L 68.79 -8.24 L 68.71 -8.26 L 68.62 -8.27 L 68.50 -8.25 L 68.32 -8.17 L 68.11 -8.06 L 67.89 -7.94 L 67.68 -7.83 L 67.50 -7.75 L 67.38 -7.73 L 67.29 -7.74 L 67.21 -7.76 L 67.12 -7.77 L 67.00 -7.75 L 66.83 -7.67 L 66.64 -7.56 L 66.42 -7.44 L 66.21 -7.33 L 66.00 -7.25 L 65.80 -7.22 L 65.60 -7.21 L 65.40 -7.23 L 65.20 -7.24 L 65.00 -7.25 L 64.80 -7.25 L 64.60 -7.25 L 64.40 -7.25 L 64.20 -7.25 L 64.00 -7.25 L 63.80 -7.25 L 63.60 -7.25 L 63.40 -7.25 L 63.20 -7.25 L 63.00 -7.25 L 62.78 -7.25 L 62.55 -7.25 L 62.33 -7.25 L 62.14 -7.25 L 62.00 -7.25" />
    <path d="M 104.50 -65.75 L 103.88 -64.68 L 102.97 -63.09 L 101.97 -61.35 L 101.08 -59.78 L 100.50 -58.75 L 100.32 -58.37 L 100.40 -58.41 L 100.62 -58.69 L 100.86 -59.03 L 101.00 -59.25 L 101.01 -59.42 L 100.96 -59.67 L 100.92 -59.87 L 100.91 -59.94 L 101.00 -59.75 L 101.24 -59.21 L 101.59 -58.38 L 101.97 -57.42 L 102.30 -56.49 L 102.50 -55.75 L 102.53 -55.22 L 102.44 -54.81 L 102.30 -54.45 L 102.13 -54.12 L 102.00 -53.75 L 101.91 -53.35 L 101.82 -52.95 L 101.74 -52.55 L 101.63 -52.15 L 101.50 -51.75 L 101.32 -51.36 L 101.11 -50.97 L 100.89 -50.59 L 100.68 -50.18 L 100.50 -49.75 L 100.38 -49.27 L 100.29 -48.76 L 100.21 -48.24 L 100.12 -47.73 L 100.00 -47.25 L 99.83 -46.83 L 99.64 -46.46 L 99.42 -46.10 L 99.21 -45.71 L 99.00 -45.25 L 98.81 -44.71 L 98.62 -44.12 L 98.44 -43.50 L 98.23 -42.87 L 98.00 -42.25 L 97.72 -41.65 L 97.41 -41.05 L 97.09 -40.45 L 96.78 -39.85 L 96.50 -39.25 L 96.28 -38.66 L 96.09 -38.07 L 95.91 -37.49 L 95.72 -36.88 L 95.50 -36.25 L 95.26 -35.65 L 95.01 -35.08 L 94.73 -34.46 L 94.40 -33.71 L 94.00 -32.75 L 93.46 -31.44 L 92.81 -29.85 L 92.13 -28.15 L 91.50 -26.56 L 91.00 -25.25 L 90.68 -24.29 L 90.48 -23.56 L 90.34 -22.96 L 90.20 -22.39 L 90.00 -21.75 L 89.73 -21.05 L 89.44 -20.35 L 89.12 -19.65 L 88.81 -18.95 L 88.50 -18.25 L 88.19 -17.55 L 87.88 -16.85 L 87.56 -16.15 L 87.27 -15.45 L 87.00 -14.75 L 86.77 -14.04 L 86.56 -13.33 L 86.38 -12.61 L 86.19 -11.92 L 86.00 -11.25 L 85.80 -10.62 L 85.60 -10.01 L 85.40 -9.43 L 85.20 -8.84 L 85.00 -8.25 L 84.80 -7.63 L 84.60 -7.00 L 84.40 -6.38 L 84.20 -5.79 L 84.00 -5.25 L 83.79 -4.79 L 83.58 -4.38 L 83.36 -4.00 L 83.17 -3.63 L 83.00 -3.25 L 82.87 -2.84 L 82.76 -2.43 L 82.68 -2.01 L 82.59 -1.62 L 82.50 -1.25 L 82.39 -0.91 L 82.28 -0.59 L 82.16 -0.29 L 82.07 -0.01 L 82.00 0.25 L 81.97 0.50 L 81.96 0.73 L 81.98 0.95 L 81.99 1.12 L 82.00 1.25 L 82.00 1.31 L 82.00 1.30 L 82.00 1.26 L 82.00 1.23 L 82.00 1.25 L 82.00 1.33 L 82.00 1.44 L 82.00 1.56 L 82.00 1.67 L 82.00 1.75 L 81.99 1.80 L 81.98 1.83 L 81.96 1.85 L 81.97 1.82 L 82.00 1.75 L 82.08 1.61 L 82.19 1.42 L 82.31 1.20 L 82.42 0.97 L 82.50 0.75 L 82.52 0.55 L 82.51 0.35 L 82.49 0.15 L 82.48 -0.05 L 82.50 -0.25 L 82.58 -0.44 L 82.69 -0.63 L 82.81 -0.81 L 82.92 -1.02 L 83.00 -1.25 L 83.02 -1.51 L 83.01 -1.79 L 82.99 -2.09 L 82.98 -2.41 L 83.00 -2.75 L 83.07 -3.13 L 83.16 -3.54 L 83.28 -3.96 L 83.39 -4.37 L 83.50 -4.75 L 83.60 -5.07 L 83.70 -5.36 L 83.80 -5.64 L 83.90 -5.93 L 84.00 -6.25 L 84.11 -6.60 L 84.22 -6.97 L 84.34 -7.35 L 84.43 -7.78 L 84.50 -8.25 L 84.52 -8.79 L 84.51 -9.40 L 84.49 -10.04 L 84.48 -10.67 L 84.50 -11.25 L 84.57 -11.79 L 84.66 -12.31 L 84.78 -12.81 L 84.89 -13.29 L 85.00 -13.75 L 85.10 -14.17 L 85.20 -14.56 L 85.30 -14.94 L 85.40 -15.33 L 85.50 -15.75 L 85.60 -16.22 L 85.70 -16.71 L 85.80 -17.23 L 85.90 -17.74 L 86.00 -18.25 L 86.10 -18.75 L 86.20 -19.25 L 86.30 -19.75 L 86.40 -20.25 L 86.50 -20.75 L 86.60 -21.25 L 86.70 -21.75 L 86.80 -22.25 L 86.90 -22.75 L 87.00 -23.25 L 87.11 -23.76 L 87.22 -24.27 L 87.34 -24.79 L 87.43 -25.28 L 87.50 -25.75 L 87.52 -26.18 L 87.51 -26.59 L 87.49 -26.97 L 87.48 -27.36 L 87.50 -27.75 L 87.58 -28.16 L 87.69 -28.57 L 87.81 -28.99 L 87.92 -29.38 L 88.00 -29.75 L 88.02 -30.08 L 88.01 -30.39 L 87.99 -30.67 L 87.98 -30.96 L 88.00 -31.25 L 88.08 -31.54 L 88.19 -31.83 L 88.31 -32.11 L 88.42 -32.42 L 88.50 -32.75 L 88.52 -33.13 L 88.51 -33.54 L 88.49 -33.96 L 88.48 -34.37 L 88.50 -34.75 L 88.58 -35.08 L 88.69 -35.39 L 88.81 -35.67 L 88.92 -35.96 L 89.00 -36.25 L 89.03 -36.56 L 89.04 -36.87 L 89.02 -37.19 L 89.01 -37.48 L 89.00 -37.75 L 89.00 -37.98 L 89.00 -38.19 L 89.00 -38.37 L 89.00 -38.56 L 89.00 -38.75 L 89.00 -38.96 L 89.00 -39.17 L 89.00 -39.39 L 89.00 -39.58 L 89.00 -39.75 L 89.00 -39.87 L 89.00 -39.96 L 89.00 -40.04 L 89.00 -40.13 L 89.00 -40.25 L 89.00 -40.43 L 89.00 -40.64 L 89.00 -40.86 L 89.00 -41.07 L 89.00 -41.25 L 89.01 -41.39 L 89.02 -41.51 L 89.04 -41.61 L 89.03 -41.69 L 89.00 -41.75 L 88.92 -41.78 L 88.81 -41.79 L 88.69 -41.77 L 88.58 -41.76 L 88.50 -41.75 L 88.47 -41.75 L 88.46 -41.75 L 88.48 -41.75 L 88.49 -41.75 L 88.50 -41.75 L 88.50 -41.75 L 88.50 -41.75 L 88.50 -41.75 L 88.50 -41.75 L 88.50 -41.75 L 88.50 -41.75 L 88.50 -41.75 L 88.50 -41.75 L 88.50 -41.75 L 88.50 -41.75 L 88.50 -41.75 L 88.50 -41.75 L 88.50 -41.75 L 88.50 -41.75 L 88.50 -41.75 L 88.51 -41.75 L 88.52 -41.75 L 88.54 -41.75 L 88.53 -41.75 L 88.50 -41.75 L 88.42 -41.76 L 88.31 -41.77 L 88.19 -41.79 L 88.08 -41.78 L 88.00 -41.75 L 87.97 -41.67 L 87.96 -41.56 L 87.98 -41.44 L 87.99 -41.33 L 88.00 -41.25 L 88.01 -41.23 L 88.02 -41.24 L 88.04 -41.26 L 88.03 -41.27 L 88.00 -41.25 L 87.92 -41.18 L 87.81 -41.09 L 87.69 -40.97 L 87.58 -40.86 L 87.50 -40.75 L 87.48 -40.67 L 87.49 -40.62 L 87.51 -40.56 L 87.52 -40.45 L 87.50 -40.25 L 87.42 -39.92 L 87.31 -39.49 L 87.19 -39.01 L 87.08 -38.58 L 87.00 -38.25 L 86.96 -38.05 L 86.94 -37.94 L 86.94 -37.88 L 86.96 -37.83 L 87.00 -37.75 L 87.08 -37.64 L 87.19 -37.53 L 87.31 -37.41 L 87.42 -37.32 L 87.50 -37.25 L 87.53 -37.23 L 87.54 -37.24 L 87.52 -37.26 L 87.51 -37.27 L 87.50 -37.25 L 87.49 -37.17 L 87.48 -37.06 L 87.46 -36.94 L 87.47 -36.83 L 87.50 -36.75 L 87.57 -36.72 L 87.66 -36.71 L 87.78 -36.73 L 87.89 -36.74 L 88.00 -36.75 L 88.10 -36.75 L 88.20 -36.75 L 88.30 -36.75 L 88.40 -36.75 L 88.50 -36.75 L 88.60 -36.76 L 88.70 -36.77 L 88.80 -36.79 L 88.90 -36.78 L 89.00 -36.75 L 89.07 -36.67 L 89.10 -36.54 L 89.16 -36.40 L 89.27 -36.29 L 89.50 -36.25 L 89.90 -36.29 L 90.43 -36.40 L 91.01 -36.54 L 91.56 -36.67 L 92.00 -36.75 L 92.28 -36.77 L 92.46 -36.76 L 92.60 -36.74 L 92.76 -36.73 L 93.00 -36.75 L 93.34 -36.83 L 93.75 -36.94 L 94.19 -37.06 L 94.62 -37.17 L 95.00 -37.25 L 95.34 -37.27 L 95.66 -37.26 L 95.96 -37.24 L 96.24 -37.23 L 96.50 -37.25 L 96.72 -37.32 L 96.91 -37.41 L 97.09 -37.53 L 97.28 -37.64 L 97.50 -37.75 L 97.75 -37.84 L 98.02 -37.93 L 98.30 -38.01 L 98.63 -38.12 L 99.00 -38.25 L 99.45 -38.42 L 99.98 -38.61 L 100.52 -38.83 L 101.05 -39.04 L 101.50 -39.25 L 101.86 -39.45 L 102.17 -39.65 L 102.45 -39.85 L 102.72 -40.05 L 103.00 -40.25 L 103.31 -40.46 L 103.62 -40.67 L 103.94 -40.89 L 104.23 -41.08 L 104.50 -41.25 L 104.69 -41.37 L 104.82 -41.44 L 104.94 -41.50 L 105.15 -41.59 L 105.50 -41.75 L 106.07 -42.00 L 106.82 -42.33 L 107.62 -42.67 L 108.39 -43.00 L 109.00 -43.25 L 109.42 -43.41 L 109.72 -43.50 L 109.96 -43.56 L 110.20 -43.63 L 110.50 -43.75 L 110.85 -43.93 L 111.22 -44.14 L 111.60 -44.36 L 112.03 -44.57 L 112.50 -44.75 L 113.07 -44.89 L 113.72 -45.01 L 114.40 -45.11 L 115.01 -45.19 L 115.50 -45.25 L 115.83 -45.28 L 116.04 -45.29 L 116.20 -45.27 L 116.33 -45.26 L 116.50 -45.25 L 116.68 -45.25 L 116.85 -45.25 L 117.03 -45.25 L 117.24 -45.25 L 117.50 -45.25 L 117.86 -45.25 L 118.30 -45.25 L 118.76 -45.25 L 119.18 -45.25 L 119.50 -45.25 L 119.70 -45.26 L 119.81 -45.27 L 119.87 -45.29 L 119.92 -45.28 L 120.00 -45.25 L 120.10 -45.17 L 120.20 -45.06 L 120.30 -44.94 L 120.40 -44.83 L 120.50 -44.75 L 120.60 -44.72 L 120.70 -44.71 L 120.80 -44.73 L 120.90 -44.74 L 121.00 -44.75 L 121.10 -44.76 L 121.20 -44.77 L 121.30 -44.79 L 121.40 -44.78 L 121.50 -44.75 L 121.60 -44.67 L 121.70 -44.56 L 121.80 -44.44 L 121.90 -44.33 L 122.00 -44.25 L 122.11 -44.23 L 122.22 -44.24 L 122.34 -44.26 L 122.43 -44.27 L 122.50 -44.25 L 122.53 -44.18 L 122.54 -44.09 L 122.52 -43.97 L 122.51 -43.86 L 122.50 -43.75 L 122.50 -43.64 L 122.50 -43.53 L 122.50 -43.41 L 122.50 -43.32 L 122.50 -43.25 L 122.50 -43.22 L 122.50 -43.21 L 122.50 -43.23 L 122.50 -43.24 L 122.50 -43.25 L 122.50 -43.26 L 122.50 -43.27 L 122.50 -43.29 L 122.50 -43.28 L 122.50 -43.25 L 122.50 -43.17 L 122.50 -43.06 L 122.50 -42.94 L 122.50 -42.83 L 122.50 -42.75 L 122.51 -42.72 L 122.52 -42.71 L 122.54 -42.73 L 122.53 -42.74 L 122.50 -42.75 L 122.42 -42.76 L 122.31 -42.77 L 122.19 -42.79 L 122.08 -42.78 L 122.00 -42.75 L 121.98 -42.67 L 121.99 -42.56 L 122.01 -42.44 L 122.02 -42.33 L 122.00 -42.25 L 121.92 -42.23 L 121.81 -42.24 L 121.69 -42.26 L 121.58 -42.27 L 121.50 -42.25 L 121.48 -42.17 L 121.49 -42.06 L 121.51 -41.94 L 121.52 -41.83 L 121.50 -41.75 L 121.42 -41.73 L 121.31 -41.74 L 121.19 -41.76 L 121.08 -41.77 L 121.00 -41.75 L 120.97 -41.67 L 120.96 -41.56 L 120.98 -41.44 L 120.99 -41.33 L 121.00 -41.25" />
  </g>
</svg>