<?xml version='1.0' encoding='utf-8'?>
<svg xmlns="http://www.w3.org/2000/svg" viewBox="-10.0 26.75 328.0 115.5" width="328.0mm" height="115.5mm">
  <g fill="none" stroke="black" stroke-width="2" stroke-linecap="round" stroke-linejoin="round">
    <path d="M 13.00 69.75 L 3.00 71.25 L 2.50 72.25 L 2.00 73.25 L 1.50 74.75 L 1.00 75.75 L 0.50 76.75 L 0.00 77.75 L 0.00 79.25 L 0.00 80.25 L 0.00 81.25 L 0.00 82.25 L 0.00 82.75 L 0.50 83.75 L 1.00 84.25 L 2.00 84.75 L 2.50 85.25 L 3.50 85.75 L 4.50 85.75 L 5.50 85.75 L 7.00 85.25 L 8.50 85.25 L 10.00 84.75 L 11.50 84.25 L 13.50 83.25 L 15.50 82.25 L 17.00 81.25 L 19.00 80.25 L 21.00 79.25 L 22.50 78.25 L 23.50 77.25 L 24.50 76.75 L 25.50 75.75 L 26.00 74.75 L 26.50 74.25 L 27.00 73.75 L 27.00 72.75 L 27.50 72.25 L 28.00 71.75 L 28.00 71.75 L 28.00 71.25 L 28.50 70.75 L 28.50 70.25 L 28.50 69.75 L 28.50 69.75 L 28.50 69.75 L 28.50 69.25 L 28.50 69.25 L 28.00 69.25 L 28.00 69.25 L 28.00 69.25 L 28.00 69.25 L 28.00 69.25 L 28.00 69.25 L 28.00 69.25 L 27.50 69.25 L 27.50 69.25 L 27.50 69.25 L 27.00 69.75 L 26.50 70.25 L 26.00 70.25 L 24.50 72.25 L 24.00 72.75 L 23.50 73.25 L 23.00 73.75 L 22.50 74.75 L 22.00 75.25 L 21.50 76.25 L 20.50 77.25 L 20.00 78.25 L 19.00 79.25 L 18.00 80.75 L 17.00 81.75 L 16.00 83.25 L 15.50 84.75 L 14.50 85.75 L 14.00 87.25 L 14.00 88.75 L 14.00 89.25 L 14.00 90.25 L 14.00 91.25 L 14.50 91.75 L 15.50 92.25 L 16.50 93.25 L 18.00 93.25 L 19.50 93.75 L 21.50 93.75 L 23.50 93.75 L 25.50 93.25 L 27.50 93.25 L 30.00 92.75 L 32.50 92.75 L 35.00 92.25 L 37.50 92.25" />
    <path d="M 47.50 44.75 L 44.50 54.75 L 44.50 56.25 L 44.00 58.25 L 43.50 60.25 L 43.00 61.75 L 43.00 63.75 L 42.50 65.75 L 42.50 67.25 L 42.00 68.75 L 42.00 70.25 L 41.50 72.25 L 41.50 73.25 L 41.00 74.75 L 41.00 76.75 L 41.00 78.25 L 40.50 79.75 L 40.00 80.75 L 40.00 82.25 L 39.50 83.25 L 39.50 84.25 L 39.00 85.25 L 39.00 85.75 L 38.50 86.25 L 38.50 86.75 L 38.50 86.75 L 38.50 87.25 L 38.50 87.25 L 38.50 87.25 L 38.50 87.25 L 38.50 87.25 L 38.50 87.25 L 38.50 87.25 L 38.50 87.25 L 39.00 86.75 L 39.00 85.25 L 40.50 82.75 L 41.00 81.75 L 42.00 80.25 L 42.50 78.75 L 43.00 77.25 L 44.00 76.25 L 44.50 74.75 L 45.50 73.75 L 46.00 72.75 L 46.50 72.25 L 47.00 71.75 L 47.50 70.75 L 48.00 70.25 L 48.50 69.75 L 48.50 69.25 L 49.00 68.75 L 49.50 68.25 L 50.00 68.25 L 50.50 67.75 L 51.00 67.25 L 51.00 67.25 L 51.50 67.25 L 52.00 67.25 L 52.50 66.75 L 52.50 66.75 L 52.50 67.25 L 53.00 67.25 L 53.50 67.25 L 53.50 67.75 L 54.00 67.75 L 54.50 68.25 L 55.00 68.75 L 55.50 69.25 L 56.00 69.25 L 56.00 69.75 L 56.50 70.25 L 57.00 70.75 L 57.00 71.25 L 57.50 71.75 L 58.00 72.25 L 58.00 73.25 L 58.00 73.75 L 58.50 74.75 L 58.50 75.25 L 58.50 76.25 L 58.50 77.25 L 58.50 78.25 L 58.50 79.25 L 58.50 80.25 L 58.50 81.25 L 58.50 81.75 L 58.50 82.75 L 58.00 83.75 L 58.00 84.25 L 57.50 85.25 L 57.00 85.75 L 56.50 86.75 L 56.00 87.25 L 55.50 87.75 L 55.00 88.25 L 54.50 88.75 L 54.00 89.25 L 52.50 90.25 L 52.00 90.25 L 51.50 90.75 L 50.50 90.75 L 50.00 90.75 L 49.50 90.75 L 48.50 90.75 L 48.00 90.25 L 47.50 90.25 L 46.50 89.75 L 46.00 89.75 L 45.50 89.25 L 45.00 89.25 L 44.50 88.75 L 44.00 88.25 L 43.50 88.25 L 43.50 88.25 L 43.00 88.25 L 43.00 88.25 L 43.00 88.25 L 43.00 88.25 L 43.00 88.25 L 43.00 88.25 L 43.00 88.25 L 43.00 88.25 L 43.00 88.25 L 43.00 88.25 L 43.00 87.75 L 43.00 87.75" />
    <path d="M 80.50 69.25 L 70.00 70.25 L 68.50 70.75 L 67.50 71.25 L 66.50 71.75 L 65.50 72.75 L 64.50 73.25 L 64.00 74.75 L 63.00 75.75 L 62.00 76.75 L 61.50 78.25 L 61.00 79.25 L 60.50 80.75 L 60.00 81.75 L 59.50 82.75 L 59.50 83.75 L 59.50 84.75 L 59.50 85.25 L 59.50 85.75 L 60.00 86.25 L 60.50 86.75 L 61.00 87.25 L 62.00 87.25 L 63.00 87.25 L 64.50 87.75 L 66.50 87.75 L 68.00 87.75 L 70.00 87.25 L 72.50 87.25 L 75.00 86.75 L 77.50 86.75 L 79.50 86.25 L 82.00 86.25 L 84.00 85.75 L 86.50 85.75 L 89.00 85.75 L 91.00 85.75" />
    <path d="M 101.50 80.75 L 93.00 85.25 L 92.50 85.75 L 92.50 86.75 L 92.50 87.25 L 92.00 88.25 L 92.00 88.75 L 92.00 89.25 L 92.50 89.75 L 92.50 90.25 L 92.50 90.75 L 93.00 91.25 L 93.00 91.75 L 93.50 91.75 L 94.00 91.75 L 94.50 92.25 L 95.00 92.25 L 96.00 92.25 L 96.50 92.25 L 98.00 92.25 L 99.00 92.25 L 100.00 91.75 L 101.50 91.75 L 102.50 90.75 L 104.00 90.25 L 105.50 89.25 L 106.50 87.75 L 108.00 86.25 L 109.50 85.25 L 110.50 83.25 L 111.50 81.75 L 113.00 79.75 L 114.00 77.75 L 115.50 76.25 L 116.50 74.25 L 117.50 72.75 L 119.00 70.75 L 120.00 69.25 L 121.00 67.75 L 122.00 66.25 L 123.00 64.75 L 124.00 63.25 L 124.50 61.75 L 125.50 60.25 L 126.00 58.75 L 127.00 57.75 L 127.50 56.25 L 128.00 55.25 L 128.50 53.75 L 129.00 52.75 L 129.50 52.25 L 130.00 51.25 L 130.00 50.25 L 130.50 49.75 L 130.50 49.25 L 130.50 49.25 L 131.00 48.75 L 131.00 48.75 L 131.00 48.75 L 131.00 48.75 L 131.00 48.75 L 130.50 48.75 L 130.50 48.75 L 130.50 48.75 L 130.50 48.75 L 130.50 48.75 L 130.50 49.25 L 130.00 49.75 L 129.50 52.25 L 129.00 53.25 L 128.50 54.25 L 128.00 55.75 L 127.00 58.25 L 126.50 59.75 L 126.00 61.25 L 125.50 62.25 L 125.00 64.25 L 124.00 65.75 L 123.50 67.25 L 122.50 68.75 L 121.50 70.75 L 121.00 72.75 L 120.00 74.75 L 119.00 76.75 L 118.50 78.75 L 117.50 80.75 L 117.00 82.25 L 116.50 84.25 L 116.50 85.75 L 116.00 86.75 L 116.00 87.75 L 115.50 88.75 L 115.50 89.25 L 116.00 89.75 L 116.00 90.25 L 116.00 90.25 L 116.50 90.25 L 117.00 90.25 L 117.50 90.25 L 118.50 89.75 L 119.00 89.25 L 120.00 88.75 L 121.00 88.25 L 122.50 87.75" />
    <path d="M 151.50 72.75 L 141.00 73.75 L 140.50 74.25 L 140.00 74.25 L 139.50 74.75 L 139.00 75.25 L 139.00 75.75 L 138.50 76.25 L 138.50 76.75 L 138.50 77.25 L 138.50 77.75 L 138.50 78.25 L 139.00 78.75 L 139.50 79.25 L 140.00 79.75 L 140.00 80.25 L 140.50 80.75 L 141.00 81.25 L 141.50 81.75 L 142.50 81.75 L 143.00 82.25 L 144.00 82.75 L 144.50 83.25 L 145.00 83.25 L 146.00 83.75 L 146.50 83.75 L 147.50 83.75 L 148.00 83.75 L 149.00 83.75 L 150.00 83.75 L 150.50 83.75 L 151.00 83.75 L 152.00 83.25 L 152.50 82.75 L 153.00 82.75 L 153.50 82.25 L 154.00 81.75 L 154.50 81.25 L 155.00 80.75 L 155.50 80.25 L 156.00 79.75 L 156.50 79.25 L 156.50 78.75 L 157.00 78.25 L 157.50 77.75 L 157.50 77.25 L 157.50 77.25 L 157.50 76.75 L 158.00 76.25 L 158.00 76.25 L 158.00 75.75 L 158.00 75.75 L 157.50 75.75 L 157.50 75.25 L 157.50 75.25 L 157.50 75.25 L 157.50 75.25 L 157.50 75.25 L 157.50 75.25 L 157.00 75.25 L 157.00 74.75 L 156.50 74.75 L 156.00 74.25 L 155.50 74.25 L 154.00 72.75 L 153.50 72.75 L 149.50 71.25 L 149.00 71.25 L 148.50 71.25 L 148.00 71.25 L 147.50 71.25 L 147.00 71.25 L 146.00 71.25 L 145.50 71.75 L 145.00 71.75 L 144.00 71.75 L 143.50 72.25 L 142.50 72.75 L 141.50 73.25 L 140.50 73.75 L 139.50 74.75 L 138.50 75.75 L 138.00 76.25 L 136.50 77.25 L 136.00 78.25 L 135.50 78.75 L 135.00 79.75 L 134.50 80.75 L 134.00 81.75 L 133.50 82.25 L 133.00 83.25 L 132.50 84.25 L 132.50 84.75 L 132.50 85.75 L 132.50 86.25 L 132.50 87.25 L 132.00 87.75 L 132.50 88.25 L 132.50 88.75 L 133.00 89.25 L 134.00 90.25 L 134.50 90.75 L 135.00 91.25 L 136.50 91.75 L 137.50 91.75 L 139.00 92.25 L 140.50 92.75 L 142.00 92.75 L 143.50 92.75 L 145.00 92.75 L 147.00 92.75 L 148.50 92.75 L 150.00 92.75 L 152.00 92.75 L 153.50 92.25 L 155.50 92.25 L 157.00 92.25 L 159.00 91.75 L 160.50 91.75 L 162.00 91.25 L 164.00 91.25 L 165.50 90.75 L 167.00 90.75 L 168.00 90.25" />
    <path d="M 222.00 44.75 L 218.00 48.75 L 212.00 44.25 L 212.00 44.25 L 211.50 44.75 L 211.00 45.25 L 210.50 45.75 L 209.50 46.25 L 209.00 46.75 L 209.00 47.25 L 208.00 48.25 L 207.00 48.75 L 205.50 49.75 L 205.00 50.75 L 204.00 51.75 L 203.00 53.25 L 202.00 54.25 L 201.00 55.25 L 200.50 56.25 L 200.00 57.75 L 199.50 58.75 L 198.50 60.25 L 198.50 61.25 L 198.00 62.75 L 197.50 64.25 L 197.00 65.25 L 196.50 66.25 L 196.00 67.75 L 195.50 68.25 L 195.00 69.75 L 194.50 71.25 L 194.00 72.25 L 194.00 73.25 L 193.50 74.25 L 193.00 75.75 L 192.50 77.25 L 192.50 78.75 L 192.00 79.75 L 192.00 80.75 L 191.50 81.75 L 191.00 83.25 L 191.00 84.25 L 191.00 85.75 L 191.00 86.75 L 190.50 87.75 L 190.50 88.25 L 190.50 88.75 L 190.00 89.25 L 190.00 90.25 L 189.50 90.75 L 189.50 90.75 L 189.00 91.25 L 189.50 91.25 L 189.50 91.25 L 189.50 91.75 L 190.00 91.75 L 190.00 91.75 L 190.50 91.75 L 190.50 91.75 L 190.50 91.75 L 190.50 91.75 L 190.50 91.75 L 190.50 91.75 L 190.50 91.75 L 190.50 91.75 L 190.50 91.75 L 190.50 91.25 L 190.50 91.25 L 190.50 91.25 L 191.00 91.25 L 191.00 90.75 L 191.00 90.75" />
    <path d="M 189.50 71.75 L 192.50 75.75 L 192.50 75.25 L 199.50 73.75 L 200.50 73.25 L 201.50 73.75 L 203.00 73.75 L 204.00 74.25 L 205.00 74.75 L 205.50 74.75 L 207.00 74.75 L 208.50 75.75 L 209.00 75.75 L 210.00 75.75 L 210.50 75.75 L 211.00 75.75 L 212.00 75.75 L 212.50 75.75 L 213.50 75.75" />
    <path d="M 239.00 73.75 L 230.00 77.75 L 230.50 78.25 L 230.00 79.25 L 230.00 79.75 L 230.00 80.75 L 230.00 81.25 L 230.00 82.25 L 230.50 82.75 L 231.00 83.25 L 231.00 83.75 L 231.50 84.25 L 232.50 84.75 L 233.00 84.75 L 233.50 84.75 L 234.00 85.25 L 234.50 85.25 L 235.50 85.25 L 236.00 84.75 L 237.00 84.75 L 238.00 84.25 L 239.00 83.25 L 240.50 82.75 L 242.00 81.75 L 243.50 81.25 L 245.00 80.25 L 246.50 79.25 L 247.50 78.25 L 249.00 77.25 L 249.50 76.25 L 250.00 75.25 L 250.50 74.25 L 250.50 73.75 L 251.50 73.25 L 251.50 72.75 L 251.50 71.75 L 252.50 71.25 L 253.00 70.75 L 253.50 70.75 L 253.50 70.25 L 253.50 70.25 L 253.50 70.25 L 253.50 70.25 L 253.50 70.25 L 253.50 70.25 L 253.00 70.25 L 253.00 70.25 L 253.00 70.25 L 253.00 70.25 L 253.00 70.75 L 252.50 71.25 L 250.50 73.25 L 250.00 74.25 L 249.50 74.75 L 249.50 75.75 L 248.50 76.25 L 248.50 77.25 L 248.50 77.75 L 248.50 78.25 L 248.00 79.25 L 247.50 80.25 L 248.00 81.25 L 248.00 81.75 L 247.50 83.25 L 247.00 83.75 L 246.50 85.25 L 246.50 86.25 L 246.50 87.25 L 245.50 88.75 L 245.50 90.25 L 245.50 91.25 L 245.00 92.75 L 244.50 94.25 L 244.00 95.75 L 243.50 97.25 L 243.00 98.75 L 242.50 100.25 L 241.50 102.25 L 241.00 103.75 L 240.50 105.75 L 240.00 107.25 L 239.50 108.75 L 239.00 110.25 L 238.50 111.75 L 238.00 113.25 L 237.50 114.75 L 237.50 116.25 L 237.00 117.75 L 236.50 119.25 L 235.50 120.75 L 235.00 122.25 L 234.00 123.75 L 233.50 124.75 L 233.00 126.25 L 232.50 127.25 L 232.00 128.25 L 231.00 129.25 L 230.50 129.75 L 230.00 130.75 L 230.50 131.25 L 230.00 131.75 L 229.50 131.75 L 229.00 132.25 L 228.00 132.25 L 227.50 132.25 L 227.00 132.25 L 227.00 132.25 L 226.00 131.75 L 225.00 131.75 L 225.00 131.25 L 224.50 130.75 L 224.50 129.75 L 224.00 129.25 L 224.00 128.25 L 223.00 127.25 L 223.00 126.25 L 223.00 125.25 L 223.00 123.75 L 223.00 122.25 L 223.50 121.25 L 224.50 119.75 L 225.00 118.25 L 226.00 117.25 L 226.50 115.75 L 227.50 114.75 L 228.50 113.75 L 229.00 112.75 L 230.00 111.75 L 230.50 110.75 L 232.50 109.25 L 233.50 108.25 L 234.50 107.25 L 235.50 106.75 L 236.50 105.75 L 237.50 105.25 L 238.50 104.75 L 239.50 103.75 L 240.00 103.75 L 241.00 103.25 L 241.50 103.25 L 242.50 103.25 L 243.50 102.75 L 245.00 102.25 L 246.00 102.25 L 246.50 102.25 L 247.50 101.75 L 248.50 101.75 L 249.50 101.75 L 251.00 101.25 L 252.00 101.25" />
    <path d="M 263.50 36.75 L 262.50 38.25 L 261.50 46.75 L 261.50 47.25 L 261.00 48.25 L 261.00 48.75 L 261.00 49.25 L 260.50 50.25 L 260.50 51.75 L 260.50 52.25 L 260.50 53.75 L 260.50 54.75 L 260.00 55.75 L 260.00 57.25 L 260.00 58.25 L 260.00 59.75 L 260.00 60.75 L 259.50 61.75 L 259.50 63.25 L 259.00 64.25 L 259.00 65.25 L 258.50 66.75 L 258.50 67.75 L 258.00 68.75 L 258.00 69.75 L 258.00 70.75 L 258.00 71.75 L 257.50 72.75 L 257.50 73.25 L 257.50 74.25 L 257.50 74.75 L 257.50 75.75 L 257.00 76.25 L 257.00 76.75 L 257.00 77.75 L 256.50 78.75 L 256.50 79.25 L 256.50 80.25 L 256.50 80.75 L 256.50 81.75 L 256.50 82.25 L 256.00 83.25 L 256.00 84.25 L 256.00 85.25 L 256.00 85.75 L 255.50 86.75 L 255.50 87.25 L 255.50 88.25 L 255.50 88.75 L 255.00 89.25 L 255.00 89.75 L 255.00 90.25 L 255.00 90.75 L 254.50 91.25 L 254.50 91.75 L 254.50 92.25 L 254.50 92.25 L 254.50 92.25 L 254.50 92.25 L 254.50 91.75 L 254.50 91.75 L 254.50 91.75 L 254.50 91.75 L 254.50 91.75 L 254.50 91.75 L 254.50 91.75 L 254.50 91.75 L 254.50 91.25 L 255.00 90.75 L 255.00 89.75 L 256.50 87.75 L 257.00 87.25 L 257.50 86.25 L 257.50 85.25 L 257.50 84.75 L 258.00 83.25 L 258.50 82.75 L 258.50 81.75 L 259.00 80.75 L 259.50 79.75 L 260.00 79.25 L 260.50 78.25 L 260.50 77.75 L 261.00 77.25 L 261.50 76.75 L 262.00 76.25 L 262.50 75.75 L 262.50 75.25 L 263.00 75.25 L 263.50 74.75 L 264.50 74.75 L 265.00 74.25 L 265.00 74.25 L 265.50 74.25 L 266.00 74.25 L 266.00 74.25 L 266.50 73.75 L 267.00 73.75 L 267.00 74.25 L 267.00 74.25 L 268.00 74.25 L 269.00 74.25 L 270.00 74.25 L 270.00 74.75 L 270.50 74.75 L 270.50 75.25 L 271.00 75.25 L 271.00 75.75 L 271.00 76.25 L 271.00 76.75 L 271.00 77.25 L 271.50 77.75 L 271.50 78.75 L 271.50 79.25 L 271.50 80.25 L 271.50 81.25 L 271.50 82.25 L 271.50 83.75 L 271.50 84.75 L 271.00 85.75 L 271.00 86.75 L 271.00 87.75 L 270.50 88.75 L 270.50 89.75 L 270.50 90.25 L 270.50 91.25 L 270.00 91.75 L 270.00 92.75 L 270.00 93.25 L 270.00 93.75 L 270.00 94.25 L 270.00 94.75 L 270.50 94.75 L 270.50 94.75 L 270.50 95.25 L 270.50 95.25 L 270.50 95.25 L 270.50 95.25 L 270.50 94.75 L 270.50 94.75 L 270.50 94.75 L 270.50 94.75 L 271.00 94.25" />
    <path d="M 275.50 69.75 L 273.00 79.25 L 273.00 80.75 L 273.00 81.75 L 273.00 83.25 L 272.50 84.25 L 272.50 85.25 L 272.50 86.75 L 272.50 87.75 L 273.00 88.75 L 273.00 89.25 L 273.00 90.25 L 273.00 90.75 L 273.50 91.25 L 273.50 91.75 L 274.00 91.75 L 274.00 92.25 L 274.00 92.25 L 274.00 92.75 L 274.50 92.75 L 274.50 92.75 L 274.50 92.75 L 274.50 92.75 L 274.50 92.75 L 274.50 92.75 L 274.50 92.25 L 274.50 92.25 L 275.00 91.75" />
    <path d="M 279.00 56.75 L 279.00 61.75" />
    <path d="M 281.00 89.25 L 287.50 81.25 L 288.50 80.25 L 289.50 79.75 L 290.50 78.75 L 291.00 78.25 L 292.00 77.75 L 293.00 76.75 L 293.50 76.75 L 294.00 76.25 L 294.50 75.75 L 295.00 75.75 L 295.50 75.75 L 296.00 75.25 L 296.50 75.25 L 296.50 75.75 L 297.00 75.75 L 297.00 75.75 L 297.00 76.25 L 297.50 76.75 L 297.50 77.25 L 297.50 77.75 L 298.00 78.25 L 298.00 78.75 L 298.00 79.25 L 298.50 80.25 L 298.50 80.75 L 298.50 81.75 L 299.00 82.75 L 299.00 83.25 L 299.00 84.25 L 299.50 85.25 L 299.50 86.25 L 299.50 87.75 L 299.50 88.75 L 299.50 90.25 L 299.50 91.25 L 299.00 92.75 L 299.00 94.75 L 298.50 96.25 L 298.50 98.25 L 298.00 100.25 L 297.50 102.75 L 297.00 104.75 L 296.50 106.75 L 296.00 108.75 L 295.00 110.75 L 294.50 112.75 L 294.00 114.75 L 293.00 116.25 L 292.50 118.25 L 291.50 119.75 L 290.50 121.75 L 289.50 123.25 L 288.50 124.75 L 287.50 125.75 L 286.50 127.25 L 285.50 128.25 L 284.50 129.25 L 284.00 129.75 L 283.50 130.75 L 283.00 131.25 L 282.50 131.25 L 282.50 131.75 L 282.00 131.75 L 281.50 131.75 L 281.50 131.75 L 281.00 131.25 L 280.50 131.25 L 280.50 130.75 L 280.50 130.25 L 280.00 129.75 L 280.00 129.25 L 280.00 128.25 L 280.00 127.25 L 280.00 126.25 L 280.00 125.25 L 280.00 123.75 L 280.00 122.75 L 280.50 121.25 L 280.50 120.25 L 281.00 118.75 L 281.50 117.75 L 281.50 116.75 L 282.00 115.75 L 282.50 114.75 L 283.00 113.75 L 284.00 112.75 L 284.50 111.75 L 285.00 110.75 L 286.00 109.75 L 286.00 108.75 L 286.50 107.75 L 287.00 106.75 L 287.50 105.25 L 288.00 104.25" />
    <path d="M 308.00 40.25 L 304.50 45.75" />
  </g>
</svg>