<?xml version='1.0' encoding='utf-8'?>
<svg xmlns="http://www.w3.org/2000/svg" viewBox="-10.00 -75.75 356.50 118.00" width="356.5mm" height="118.0mm">
  <g fill="none" stroke="black" stroke-width="2" stroke-linecap="round" stroke-linejoin="round">
    <path d="M 8.50 -26.25 L 8.26 -26.25 L 7.91 -26.25 L 7.53 -26.25 L 7.20 -26.25 L 7.00 -26.25 L 7.08 -26.35 L 7.39 -26.56 L 7.71 -26.72 L 7.82 -26.67 L 7.50 -26.25 L 6.54 -25.28 L 5.09 -23.85 L 3.47 -22.27 L 2.00 -20.80 L 1.00 -19.75 L 0.58 -19.19 L 0.53 -18.93 L 0.69 -18.85 L 0.90 -18.83 L 1.00 -18.75 L 1.01 -18.63 L 1.02 -18.54 L 1.04 -18.46 L 1.03 -18.37 L 1.00 -18.25 L 0.92 -18.08 L 0.81 -17.89 L 0.69 -17.67 L 0.58 -17.46 L 0.50 -17.25 L 0.47 -17.05 L 0.46 -16.85 L 0.48 -16.65 L 0.49 -16.45 L 0.50 -16.25 L 0.51 -16.04 L 0.52 -15.83 L 0.54 -15.61 L 0.53 -15.42 L 0.50 -15.25 L 0.42 -15.12 L 0.31 -15.01 L 0.19 -14.93 L 0.08 -14.84 L 0.00 -14.75 L -0.03 -14.65 L -0.04 -14.55 L -0.02 -14.45 L -0.01 -14.35 L 0.00 -14.25 L 0.00 -14.16 L 0.00 -14.07 L 0.00 -13.99 L 0.00 -13.88 L 0.00 -13.75 L -0.01 -13.57 L -0.02 -13.36 L -0.04 -13.14 L -0.03 -12.93 L 0.00 -12.75 L 0.08 -12.62 L 0.19 -12.51 L 0.31 -12.43 L 0.42 -12.34 L 0.50 -12.25 L 0.53 -12.15 L 0.54 -12.05 L 0.52 -11.95 L 0.51 -11.85 L 0.50 -11.75 L 0.49 -11.64 L 0.48 -11.53 L 0.46 -11.41 L 0.47 -11.32 L 0.50 -11.25 L 0.57 -11.23 L 0.66 -11.24 L 0.78 -11.26 L 0.89 -11.27 L 1.00 -11.25 L 1.10 -11.17 L 1.20 -11.06 L 1.30 -10.94 L 1.40 -10.83 L 1.50 -10.75 L 1.60 -10.72 L 1.70 -10.71 L 1.80 -10.73 L 1.90 -10.74 L 2.00 -10.75 L 2.10 -10.75 L 2.20 -10.75 L 2.30 -10.75 L 2.40 -10.75 L 2.50 -10.75 L 2.59 -10.75 L 2.68 -10.75 L 2.76 -10.75 L 2.87 -10.75 L 3.00 -10.75 L 3.17 -10.75 L 3.36 -10.75 L 3.58 -10.75 L 3.79 -10.75 L 4.00 -10.75 L 4.20 -10.74 L 4.40 -10.73 L 4.60 -10.71 L 4.80 -10.72 L 5.00 -10.75 L 5.19 -10.82 L 5.38 -10.91 L 5.56 -11.03 L 5.77 -11.14 L 6.00 -11.25 L 6.28 -11.35 L 6.59 -11.45 L 6.91 -11.55 L 7.22 -11.65 L 7.50 -11.75 L 7.72 -11.85 L 7.91 -11.95 L 8.09 -12.05 L 8.28 -12.15 L 8.50 -12.25 L 8.77 -12.34 L 9.06 -12.43 L 9.38 -12.51 L 9.69 -12.62 L 10.00 -12.75 L 10.29 -12.92 L 10.58 -13.11 L 10.86 -13.33 L 11.17 -13.54 L 11.50 -13.75 L 11.88 -13.96 L 12.29 -14.17 L 12.71 -14.39 L 13.12 -14.58 L 13.50 -14.75 L 13.83 -14.87 L 14.14 -14.96 L 14.42 -15.04 L 14.71 -15.13 L 15.00 -15.25 L 15.30 -15.42 L 15.60 -15.61 L 15.90 -15.83 L 16.20 -16.04 L 16.50 -16.25 L 16.80 -16.44 L 17.10 -16.63 L 17.40 -16.81 L 17.70 -17.02 L 18.00 -17.25 L 18.31 -17.53 L 18.62 -17.84 L 18.94 -18.16 L 19.23 -18.47 L 19.50 -18.75 L 19.73 -18.98 L 19.94 -19.19 L 20.12 -19.37 L 20.31 -19.56 L 20.50 -19.75 L 20.71 -19.95 L 20.92 -20.15 L 21.14 -20.35 L 21.33 -20.55 L 21.50 -20.75 L 21.63 -20.95 L 21.74 -21.15 L 21.82 -21.35 L 21.91 -21.55 L 22.00 -21.75 L 22.10 -21.95 L 22.20 -22.15 L 22.30 -22.35 L 22.40 -22.55 L 22.50 -22.75 L 22.60 -22.96 L 22.70 -23.17 L 22.80 -23.39 L 22.90 -23.58 L 23.00 -23.75 L 23.11 -23.88 L 23.22 -23.99 L 23.34 -24.07 L 23.43 -24.16 L 23.50 -24.25 L 23.52 -24.35 L 23.51 -24.45 L 23.49 -24.55 L 23.48 -24.65 L 23.50 -24.75 L 23.58 -24.85 L 23.69 -24.95 L 23.81 -25.05 L 23.92 -25.15 L 24.00 -25.25 L 24.03 -25.35 L 24.04 -25.45 L 24.02 -25.55 L 24.01 -25.65 L 24.00 -25.75 L 24.00 -25.86 L 24.00 -25.97 L 24.00 -26.09 L 24.00 -26.18 L 24.00 -26.25 L 24.00 -26.27 L 24.00 -26.26 L 24.00 -26.24 L 24.00 -26.23 L 24.00 -26.25 L 24.00 -26.33 L 24.00 -26.44 L 24.00 -26.56 L 24.00 -26.67 L 24.00 -26.75 L 24.00 -26.78 L 24.00 -26.79 L 24.00 -26.77 L 24.00 -26.76 L 24.00 -26.75 L 24.00 -26.75 L 24.00 -26.75 L 24.00 -26.75 L 24.00 -26.75 L 24.00 -26.75 L 24.00 -26.75 L 24.00 -26.75 L 24.00 -26.75 L 24.00 -26.75 L 24.00 -26.75 L 24.00 -26.75 L 24.00 -26.75 L 24.00 -26.75 L 24.00 -26.75 L 24.00 -26.75 L 24.00 -26.74 L 24.00 -26.73 L 24.00 -26.71 L 24.00 -26.72 L 24.00 -26.75 L 24.01 -26.83 L 24.02 -26.94 L 24.04 -27.06 L 24.03 -27.17 L 24.00 -27.25 L 23.92 -27.28 L 23.81 -27.29 L 23.69 -27.27 L 23.58 -27.26 L 23.50 -27.25 L 23.47 -27.25 L 23.46 -27.25 L 23.48 -27.25 L 23.49 -27.25 L 23.50 -27.25 L 23.50 -27.25 L 23.50 -27.25 L 23.50 -27.25 L 23.50 -27.25 L 23.50 -27.25 L 23.51 -27.26 L 23.52 -27.27 L 23.54 -27.29 L 23.53 -27.28 L 23.50 -27.25 L 23.43 -27.17 L 23.34 -27.06 L 23.22 -26.94 L 23.11 -26.83 L 23.00 -26.75 L 22.89 -26.72 L 22.78 -26.71 L 22.66 -26.73 L 22.57 -26.74 L 22.50 -26.75 L 22.48 -26.75 L 22.49 -26.75 L 22.51 -26.75 L 22.52 -26.75 L 22.50 -26.75 L 22.43 -26.75 L 22.34 -26.75 L 22.22 -26.75 L 22.11 -26.75 L 22.00 -26.75 L 21.89 -26.75 L 21.78 -26.75 L 21.66 -26.75 L 21.57 -26.75 L 21.50 -26.75 L 21.48 -26.76 L 21.49 -26.77 L 21.51 -26.79 L 21.52 -26.78 L 21.50 -26.75 L 21.42 -26.68 L 21.31 -26.59 L 21.19 -26.47 L 21.08 -26.36 L 21.00 -26.25 L 20.98 -26.15 L 20.99 -26.05 L 21.01 -25.95 L 21.02 -25.85 L 21.00 -25.75 L 20.95 -25.67 L 20.88 -25.60 L 20.80 -25.52 L 20.67 -25.41 L 20.50 -25.25 L 20.25 -25.00 L 19.92 -24.67 L 19.58 -24.33 L 19.25 -24.00 L 19.00 -23.75 L 18.84 -23.59 L 18.73 -23.48 L 18.65 -23.40 L 18.58 -23.33 L 18.50 -23.25 L 18.40 -23.15 L 18.30 -23.05 L 18.20 -22.95 L 18.10 -22.85 L 18.00 -22.75 L 17.89 -22.65 L 17.78 -22.55 L 17.66 -22.45 L 17.57 -22.35 L 17.50 -22.25 L 17.48 -22.15 L 17.51 -22.05 L 17.55 -21.95 L 17.56 -21.85 L 17.50 -21.75 L 17.36 -21.66 L 17.15 -21.57 L 16.91 -21.49 L 16.68 -21.38 L 16.50 -21.25 L 16.37 -21.08 L 16.26 -20.89 L 16.18 -20.67 L 16.09 -20.46 L 16.00 -20.25 L 15.90 -20.04 L 15.80 -19.83 L 15.70 -19.61 L 15.60 -19.42 L 15.50 -19.25 L 15.40 -19.13 L 15.30 -19.04 L 15.20 -18.96 L 15.10 -18.87 L 15.00 -18.75 L 14.90 -18.58 L 14.80 -18.39 L 14.70 -18.17 L 14.60 -17.96 L 14.50 -17.75 L 14.39 -17.55 L 14.28 -17.35 L 14.16 -17.15 L 14.07 -16.95 L 14.00 -16.75 L 13.98 -16.54 L 13.99 -16.33 L 14.01 -16.11 L 14.02 -15.92 L 14.00 -15.75 L 13.92 -15.63 L 13.81 -15.54 L 13.69 -15.46 L 13.58 -15.37 L 13.50 -15.25 L 13.48 -15.07 L 13.49 -14.86 L 13.51 -14.64 L 13.52 -14.43 L 13.50 -14.25 L 13.42 -14.13 L 13.29 -14.04 L 13.15 -13.96 L 13.04 -13.87 L 13.00 -13.75 L 13.04 -13.57 L 13.15 -13.36 L 13.29 -13.14 L 13.42 -12.93 L 13.50 -12.75 L 13.53 -12.62 L 13.54 -12.51 L 13.52 -12.43 L 13.51 -12.34 L 13.50 -12.25 L 13.49 -12.15 L 13.48 -12.05 L 13.46 -11.95 L 13.47 -11.85 L 13.50 -11.75 L 13.57 -11.65 L 13.66 -11.55 L 13.78 -11.45 L 13.89 -11.35 L 14.00 -11.25 L 14.09 -11.15 L 14.18 -11.05 L 14.26 -10.95 L 14.37 -10.85 L 14.50 -10.75 L 14.66 -10.64 L 14.84 -10.53 L 15.04 -10.41 L 15.26 -10.32 L 15.50 -10.25 L 15.78 -10.22 L 16.09 -10.21 L 16.41 -10.23 L 16.72 -10.24 L 17.00 -10.25 L 17.22 -10.25 L 17.39 -10.25 L 17.55 -10.25 L 17.74 -10.25 L 18.00 -10.25 L 18.34 -10.25 L 18.75 -10.25 L 19.19 -10.25 L 19.62 -10.25 L 20.00 -10.25 L 20.32 -10.25 L 20.61 -10.25 L 20.89 -10.25 L 21.18 -10.25 L 21.50 -10.25 L 21.86 -10.25 L 22.24 -10.25 L 22.64 -10.25 L 23.06 -10.25 L 23.50 -10.25 L 23.97 -10.24 L 24.46 -10.23 L 24.98 -10.21 L 25.49 -10.22 L 26.00 -10.25 L 26.50 -10.33 L 27.00 -10.44 L 27.50 -10.56 L 28.00 -10.67 L 28.50 -10.75 L 29.00 -10.78 L 29.50 -10.79 L 30.00 -10.77 L 30.50 -10.76 L 31.00 -10.75 L 31.49 -10.75 L 31.98 -10.75 L 32.46 -10.75 L 32.97 -10.75 L 33.50 -10.75 L 34.08 -10.75 L 34.69 -10.75 L 35.31 -10.75 L 35.92 -10.75 L 36.50 -10.75 L 37.07 -10.75 L 37.66 -10.75 L 38.20 -10.75 L 38.67 -10.75 L 39.00 -10.75" />
    <path d="M 21.00 -25.75 L 19.42 -25.75 L 17.10 -25.75 L 14.52 -25.75 L 12.16 -25.75 L 10.50 -25.75 L 9.69 -25.76 L 9.42 -25.77 L 9.44 -25.79 L 9.55 -25.78 L 9.50 -25.75 L 9.30 -25.68 L 9.10 -25.59 L 8.90 -25.47 L 8.70 -25.36 L 8.50 -25.25 L 8.29 -25.15 L 8.08 -25.05 L 7.86 -24.95 L 7.67 -24.85 L 7.50 -24.75 L 7.38 -24.65 L 7.29 -24.55 L 7.21 -24.45 L 7.12 -24.35 L 7.00 -24.25 L 6.83 -24.16 L 6.64 -24.07 L 6.42 -23.99 L 6.21 -23.88 L 6.00 -23.75 L 5.80 -23.58 L 5.60 -23.39 L 5.40 -23.17 L 5.20 -22.96 L 5.00 -22.75 L 4.79 -22.55 L 4.58 -22.35 L 4.36 -22.15 L 4.17 -21.95 L 4.00 -21.75 L 3.88 -21.56 L 3.79 -21.37 L 3.71 -21.19 L 3.62 -20.98 L 3.50 -20.75 L 3.32 -20.46 L 3.09 -20.11 L 2.85 -19.77 L 2.64 -19.46 L 2.50 -19.25" />
    <path d="M 50.00 -58.75 L 49.40 -57.41 L 48.52 -55.44 L 47.54 -53.24 L 46.64 -51.21 L 46.00 -49.75 L 45.68 -48.97 L 45.55 -48.61 L 45.53 -48.49 L 45.54 -48.43 L 45.50 -48.25 L 45.40 -47.96 L 45.30 -47.67 L 45.20 -47.39 L 45.10 -47.08 L 45.00 -46.75 L 44.90 -46.38 L 44.80 -45.99 L 44.70 -45.57 L 44.60 -45.16 L 44.50 -44.75 L 44.40 -44.34 L 44.30 -43.93 L 44.20 -43.51 L 44.10 -43.12 L 44.00 -42.75 L 43.90 -42.43 L 43.80 -42.14 L 43.70 -41.86 L 43.60 -41.57 L 43.50 -41.25 L 43.39 -40.88 L 43.28 -40.49 L 43.16 -40.07 L 43.07 -39.66 L 43.00 -39.25 L 42.98 -38.84 L 42.99 -38.43 L 43.01 -38.01 L 43.02 -37.62 L 43.00 -37.25 L 42.92 -36.92 L 42.81 -36.61 L 42.69 -36.33 L 42.58 -36.04 L 42.50 -35.75 L 42.48 -35.45 L 42.49 -35.15 L 42.51 -34.85 L 42.52 -34.55 L 42.50 -34.25 L 42.43 -33.95 L 42.34 -33.65 L 42.22 -33.35 L 42.11 -33.05 L 42.00 -32.75 L 41.89 -32.44 L 41.78 -32.13 L 41.66 -31.81 L 41.57 -31.52 L 41.50 -31.25 L 41.48 -31.02 L 41.49 -30.81 L 41.51 -30.63 L 41.52 -30.44 L 41.50 -30.25 L 41.42 -30.05 L 41.31 -29.85 L 41.19 -29.65 L 41.08 -29.45 L 41.00 -29.25 L 40.98 -29.06 L 40.99 -28.87 L 41.01 -28.69 L 41.02 -28.48 L 41.00 -28.25 L 40.93 -27.97 L 40.84 -27.64 L 40.72 -27.30 L 40.61 -26.99 L 40.50 -26.75 L 40.39 -26.60 L 40.28 -26.53 L 40.16 -26.47 L 40.07 -26.40 L 40.00 -26.25 L 39.97 -26.00 L 39.96 -25.67 L 39.98 -25.33 L 39.99 -25.00 L 40.00 -24.75 L 40.00 -24.59 L 40.00 -24.48 L 40.00 -24.40 L 40.00 -24.33 L 40.00 -24.25 L 40.00 -24.15 L 40.00 -24.05 L 40.00 -23.95 L 40.00 -23.85 L 40.00 -23.75 L 40.00 -23.65 L 40.00 -23.55 L 40.00 -23.45 L 40.00 -23.35 L 40.00 -23.25 L 40.00 -23.15 L 40.00 -23.05 L 40.00 -22.95 L 40.00 -22.85 L 40.00 -22.75 L 40.00 -22.64 L 40.00 -22.53 L 40.00 -22.41 L 40.00 -22.32 L 40.00 -22.25 L 39.99 -22.23 L 39.98 -22.24 L 39.96 -22.26 L 39.97 -22.27 L 40.00 -22.25 L 40.08 -22.17 L 40.19 -22.06 L 40.31 -21.94 L 40.42 -21.83 L 40.50 -21.75 L 40.54 -21.72 L 40.56 -21.71 L 40.56 -21.73 L 40.54 -21.74 L 40.50 -21.75 L 40.42 -21.75 L 40.31 -21.75 L 40.19 -21.75 L 40.08 -21.75 L 40.00 -21.75 L 39.97 -21.75 L 39.96 -21.75 L 39.98 -21.75 L 39.99 -21.75 L 40.00 -21.75 L 40.00 -21.75 L 40.00 -21.75 L 40.00 -21.75 L 40.00 -21.75 L 40.00 -21.75 L 40.00 -21.75 L 40.00 -21.75 L 40.00 -21.75 L 40.00 -21.75 L 40.00 -21.75 L 40.00 -21.74 L 40.00 -21.73 L 40.00 -21.71 L 40.00 -21.72 L 40.00 -21.75 L 40.00 -21.83 L 40.00 -21.94 L 40.00 -22.06 L 40.00 -22.17 L 40.00 -22.25 L 40.00 -22.28 L 40.00 -22.29 L 40.00 -22.27 L 40.00 -22.26 L 40.00 -22.25 L 40.00 -22.25 L 40.00 -22.25 L 40.00 -22.25 L 40.00 -22.25 L 40.00 -22.25 L 40.00 -22.25 L 40.00 -22.25 L 40.00 -22.25 L 40.00 -22.25 L 40.00 -22.25 L 40.00 -22.24 L 40.00 -22.23 L 40.00 -22.21 L 40.00 -22.22 L 40.00 -22.25 L 39.99 -22.32 L 39.98 -22.41 L 39.96 -22.53 L 39.97 -22.64 L 40.00 -22.75 L 40.07 -22.85 L 40.16 -22.95 L 40.28 -23.05 L 40.39 -23.15 L 40.50 -23.25 L 40.58 -23.33 L 40.65 -23.38 L 40.73 -23.44 L 40.84 -23.55 L 41.00 -23.75 L 41.25 -24.07 L 41.58 -24.49 L 41.92 -24.95 L 42.25 -25.39 L 42.50 -25.75 L 42.67 -26.02 L 42.80 -26.25 L 42.88 -26.43 L 42.95 -26.60 L 43.00 -26.75 L 43.02 -26.87 L 43.01 -26.96 L 42.99 -27.04 L 42.98 -27.13 L 43.00 -27.25 L 43.07 -27.43 L 43.16 -27.64 L 43.28 -27.86 L 43.39 -28.07 L 43.50 -28.25 L 43.60 -28.38 L 43.70 -28.49 L 43.80 -28.57 L 43.90 -28.66 L 44.00 -28.75 L 44.10 -28.85 L 44.20 -28.95 L 44.30 -29.05 L 44.40 -29.15 L 44.50 -29.25 L 44.61 -29.35 L 44.72 -29.45 L 44.84 -29.55 L 44.93 -29.65 L 45.00 -29.75 L 45.02 -29.85 L 45.01 -29.95 L 44.99 -30.05 L 44.98 -30.15 L 45.00 -30.25 L 45.07 -30.35 L 45.16 -30.45 L 45.28 -30.55 L 45.39 -30.65 L 45.50 -30.75 L 45.60 -30.85 L 45.70 -30.95 L 45.80 -31.05 L 45.90 -31.15 L 46.00 -31.25 L 46.11 -31.35 L 46.22 -31.45 L 46.34 -31.55 L 46.43 -31.65 L 46.50 -31.75 L 46.53 -31.85 L 46.54 -31.95 L 46.52 -32.05 L 46.51 -32.15 L 46.50 -32.25 L 46.49 -32.35 L 46.48 -32.45 L 46.46 -32.55 L 46.47 -32.65 L 46.50 -32.75 L 46.58 -32.85 L 46.69 -32.95 L 46.81 -33.05 L 46.92 -33.15 L 47.00 -33.25 L 47.02 -33.36 L 47.01 -33.47 L 46.99 -33.59 L 46.98 -33.68 L 47.00 -33.75 L 47.08 -33.78 L 47.19 -33.79 L 47.31 -33.77 L 47.42 -33.76 L 47.50 -33.75 L 47.53 -33.74 L 47.54 -33.73 L 47.52 -33.71 L 47.51 -33.72 L 47.50 -33.75 L 47.50 -33.83 L 47.50 -33.94 L 47.50 -34.06 L 47.50 -34.17 L 47.50 -34.25 L 47.49 -34.27 L 47.48 -34.26 L 47.46 -34.24 L 47.47 -34.23 L 47.50 -34.25 L 47.58 -34.33 L 47.69 -34.44 L 47.81 -34.56 L 47.92 -34.67 L 48.00 -34.75 L 48.03 -34.78 L 48.04 -34.79 L 48.02 -34.77 L 48.01 -34.76 L 48.00 -34.75 L 48.00 -34.75 L 48.00 -34.75 L 48.00 -34.75 L 48.00 -34.75 L 48.00 -34.75 L 48.00 -34.75 L 48.00 -34.75 L 48.00 -34.75 L 48.00 -34.75 L 48.00 -34.75 L 48.00 -34.75 L 48.00 -34.75 L 48.00 -34.75 L 48.00 -34.75 L 48.00 -34.75 L 48.00 -34.74 L 48.00 -34.73 L 48.00 -34.71 L 48.00 -34.72 L 48.00 -34.75 L 48.00 -34.83 L 48.00 -34.94 L 48.00 -35.06 L 48.00 -35.17 L 48.00 -35.25 L 48.00 -35.28 L 48.00 -35.29 L 48.00 -35.27 L 48.00 -35.26 L 48.00 -35.25 L 47.99 -35.25 L 47.98 -35.25 L 47.96 -35.25 L 47.97 -35.25 L 48.00 -35.25 L 48.08 -35.25 L 48.19 -35.25 L 48.31 -35.25 L 48.42 -35.25 L 48.50 -35.25 L 48.52 -35.25 L 48.51 -35.25 L 48.49 -35.25 L 48.48 -35.25 L 48.50 -35.25 L 48.58 -35.25 L 48.69 -35.25 L 48.81 -35.25 L 48.92 -35.25 L 49.00 -35.25 L 49.02 -35.26 L 49.01 -35.27 L 48.99 -35.29 L 48.98 -35.28 L 49.00 -35.25 L 49.08 -35.17 L 49.19 -35.06 L 49.31 -34.94 L 49.42 -34.83 L 49.50 -34.75 L 49.52 -34.73 L 49.51 -34.74 L 49.49 -34.76 L 49.48 -34.77 L 49.50 -34.75 L 49.55 -34.71 L 49.62 -34.66 L 49.70 -34.58 L 49.83 -34.45 L 50.00 -34.25 L 50.26 -33.93 L 50.60 -33.51 L 50.96 -33.05 L 51.28 -32.61 L 51.50 -32.25 L 51.59 -31.98 L 51.58 -31.75 L 51.54 -31.57 L 51.49 -31.40 L 51.50 -31.25 L 51.57 -31.12 L 51.66 -31.01 L 51.78 -30.93 L 51.89 -30.84 L 52.00 -30.75 L 52.11 -30.66 L 52.22 -30.57 L 52.34 -30.49 L 52.43 -30.38 L 52.50 -30.25 L 52.53 -30.07 L 52.54 -29.86 L 52.52 -29.64 L 52.51 -29.43 L 52.50 -29.25 L 52.49 -29.13 L 52.48 -29.04 L 52.46 -28.96 L 52.47 -28.87 L 52.50 -28.75 L 52.58 -28.58 L 52.69 -28.39 L 52.81 -28.17 L 52.92 -27.96 L 53.00 -27.75 L 53.02 -27.54 L 53.01 -27.33 L 52.99 -27.11 L 52.98 -26.92 L 53.00 -26.75 L 53.08 -26.63 L 53.19 -26.54 L 53.31 -26.46 L 53.42 -26.37 L 53.50 -26.25 L 53.53 -26.09 L 53.54 -25.91 L 53.52 -25.71 L 53.51 -25.49 L 53.50 -25.25 L 53.50 -24.97 L 53.50 -24.66 L 53.50 -24.34 L 53.50 -24.03 L 53.50 -23.75 L 53.50 -23.52 L 53.50 -23.31 L 53.50 -23.13 L 53.50 -22.94 L 53.50 -22.75 L 53.50 -22.55 L 53.50 -22.35 L 53.50 -22.15 L 53.50 -21.95 L 53.50 -21.75 L 53.50 -21.55 L 53.50 -21.35 L 53.50 -21.15 L 53.50 -20.95 L 53.50 -20.75 L 53.50 -20.56 L 53.50 -20.37 L 53.50 -20.19 L 53.50 -19.98 L 53.50 -19.75 L 53.49 -19.47 L 53.48 -19.16 L 53.46 -18.84 L 53.47 -18.53 L 53.50 -18.25 L 53.58 -18.02 L 53.69 -17.81 L 53.81 -17.63 L 53.92 -17.44 L 54.00 -17.25 L 54.03 -17.05 L 54.04 -16.85 L 54.02 -16.65 L 54.01 -16.45 L 54.00 -16.25 L 54.00 -16.05 L 54.00 -15.85 L 54.00 -15.65 L 54.00 -15.45 L 54.00 -15.25 L 54.00 -15.05 L 54.00 -14.85 L 54.00 -14.65 L 54.00 -14.45 L 54.00 -14.25 L 54.00 -14.05 L 54.00 -13.85 L 54.00 -13.65 L 54.00 -13.45 L 54.00 -13.25 L 54.01 -13.05 L 54.02 -12.85 L 54.04 -12.65 L 54.03 -12.45 L 54.00 -12.25 L 53.92 -12.04 L 53.81 -11.83 L 53.69 -11.61 L 53.58 -11.42 L 53.50 -11.25 L 53.48 -11.13 L 53.49 -11.04 L 53.51 -10.96 L 53.52 -10.87 L 53.50 -10.75 L 53.42 -10.57 L 53.31 -10.36 L 53.19 -10.14 L 53.08 -9.93 L 53.00 -9.75 L 52.98 -9.62 L 52.99 -9.51 L 53.01 -9.43 L 53.02 -9.34 L 53.00 -9.25 L 52.92 -9.15 L 52.81 -9.05 L 52.69 -8.95 L 52.58 -8.85 L 52.50 -8.75 L 52.48 -8.65 L 52.49 -8.55 L 52.51 -8.45 L 52.52 -8.35 L 52.50 -8.25 L 52.42 -8.15 L 52.31 -8.05 L 52.19 -7.95 L 52.08 -7.85 L 52.00 -7.75 L 51.98 -7.65 L 51.99 -7.55 L 52.01 -7.45 L 52.02 -7.35 L 52.00 -7.25 L 51.92 -7.15 L 51.81 -7.05 L 51.69 -6.95 L 51.58 -6.85 L 51.50 -6.75 L 51.48 -6.65 L 51.49 -6.55 L 51.51 -6.45 L 51.52 -6.35 L 51.50 -6.25 L 51.43 -6.14 L 51.34 -6.03 L 51.22 -5.91 L 51.11 -5.82 L 51.00 -5.75 L 50.89 -5.73 L 50.78 -5.74 L 50.66 -5.76 L 50.57 -5.77 L 50.50 -5.75 L 50.48 -5.67 L 50.49 -5.56 L 50.51 -5.44 L 50.52 -5.33 L 50.50 -5.25 L 50.42 -5.22 L 50.31 -5.21 L 50.19 -5.23 L 50.08 -5.24 L 50.00 -5.25 L 49.98 -5.25 L 49.99 -5.25 L 50.01 -5.25 L 50.02 -5.25 L 50.00 -5.25 L 49.93 -5.25 L 49.84 -5.25 L 49.72 -5.25 L 49.61 -5.25 L 49.50 -5.25 L 49.39 -5.25 L 49.28 -5.25 L 49.16 -5.25 L 49.07 -5.25 L 49.00 -5.25 L 48.98 -5.25 L 48.99 -5.25 L 49.01 -5.25 L 49.02 -5.25 L 49.00 -5.25 L 48.92 -5.24 L 48.81 -5.23 L 48.69 -5.21 L 48.58 -5.22 L 48.50 -5.25 L 48.48 -5.32 L 48.49 -5.41 L 48.51 -5.53 L 48.52 -5.64 L 48.50 -5.75 L 48.43 -5.85 L 48.34 -5.95 L 48.22 -6.05 L 48.11 -6.15 L 48.00 -6.25 L 47.91 -6.34 L 47.82 -6.43 L 47.74 -6.51 L 47.63 -6.62 L 47.50 -6.75 L 47.32 -6.93 L 47.11 -7.14 L 46.89 -7.36 L 46.68 -7.57 L 46.50 -7.75 L 46.37 -7.88 L 46.26 -7.99 L 46.18 -8.07 L 46.09 -8.16 L 46.00 -8.25 L 45.90 -8.33 L 45.80 -8.40 L 45.70 -8.48 L 45.60 -8.59 L 45.50 -8.75 L 45.41 -8.99 L 45.32 -9.30 L 45.24 -9.64 L 45.13 -9.97 L 45.00 -10.25 L 44.82 -10.48 L 44.61 -10.69 L 44.39 -10.87 L 44.18 -11.06 L 44.00 -11.25 L 43.87 -11.45 L 43.76 -11.65 L 43.68 -11.85 L 43.59 -12.05 L 43.50 -12.25 L 43.40 -12.45 L 43.30 -12.65 L 43.20 -12.85 L 43.10 -13.05 L 43.00 -13.25 L 42.90 -13.45 L 42.80 -13.65 L 42.70 -13.85 L 42.60 -14.05 L 42.50 -14.25 L 42.39 -14.46 L 42.28 -14.67 L 42.16 -14.89 L 42.07 -15.08 L 42.00 -15.25 L 41.98 -15.38 L 41.99 -15.49 L 42.01 -15.57 L 42.02 -15.66 L 42.00 -15.75 L 41.92 -15.85 L 41.81 -15.95 L 41.69 -16.05 L 41.58 -16.15 L 41.50 -16.25 L 41.47 -16.36 L 41.46 -16.47 L 41.48 -16.59 L 41.49 -16.68 L 41.50 -16.75 L 41.50 -16.77 L 41.50 -16.76 L 41.50 -16.74 L 41.50 -16.73 L 41.50 -16.75 L 41.50 -16.83 L 41.50 -16.94 L 41.50 -17.06 L 41.50 -17.17 L 41.50 -17.25 L 41.50 -17.27 L 41.50 -17.26 L 41.50 -17.24 L 41.50 -17.23 L 41.50 -17.25 L 41.49 -17.33 L 41.48 -17.44 L 41.46 -17.56 L 41.47 -17.67 L 41.50 -17.75 L 41.57 -17.77 L 41.66 -17.76 L 41.78 -17.74 L 41.89 -17.73 L 42.00 -17.75 L 42.11 -17.83 L 42.22 -17.94 L 42.34 -18.06 L 42.43 -18.17 L 42.50 -18.25 L 42.52 -18.27 L 42.49 -18.26 L 42.45 -18.24 L 42.44 -18.23 L 42.50 -18.25 L 42.64 -18.33 L 42.85 -18.44 L 43.09 -18.56 L 43.32 -18.67 L 43.50 -18.75 L 43.64 -18.78 L 43.76 -18.79 L 43.86 -18.77 L 43.94 -18.76 L 44.00 -18.75 L 44.02 -18.75 L 43.99 -18.75 L 43.95 -18.75 L 43.94 -18.75 L 44.00 -18.75 L 44.15 -18.75 L 44.38 -18.75 L 44.62 -18.75 L 44.85 -18.75 L 45.00 -18.75" />
    <path d="M 77.00 -29.75 L 75.50 -29.77 L 73.29 -29.80 L 70.83 -29.82 L 68.58 -29.81 L 67.00 -29.75 L 66.22 -29.61 L 65.95 -29.40 L 65.97 -29.16 L 66.06 -28.93 L 66.00 -28.75 L 65.80 -28.62 L 65.60 -28.51 L 65.40 -28.43 L 65.20 -28.34 L 65.00 -28.25 L 64.80 -28.15 L 64.60 -28.05 L 64.40 -27.95 L 64.20 -27.85 L 64.00 -27.75 L 63.80 -27.66 L 63.60 -27.57 L 63.40 -27.49 L 63.20 -27.38 L 63.00 -27.25 L 62.80 -27.08 L 62.60 -26.89 L 62.40 -26.67 L 62.20 -26.46 L 62.00 -26.25 L 61.80 -26.04 L 61.60 -25.83 L 61.40 -25.61 L 61.20 -25.42 L 61.00 -25.25 L 60.79 -25.13 L 60.58 -25.04 L 60.36 -24.96 L 60.17 -24.87 L 60.00 -24.75 L 59.87 -24.58 L 59.76 -24.39 L 59.68 -24.17 L 59.59 -23.96 L 59.50 -23.75 L 59.41 -23.55 L 59.32 -23.35 L 59.24 -23.15 L 59.13 -22.95 L 59.00 -22.75 L 58.82 -22.55 L 58.61 -22.35 L 58.39 -22.15 L 58.18 -21.95 L 58.00 -21.75 L 57.87 -21.55 L 57.76 -21.35 L 57.68 -21.15 L 57.59 -20.95 L 57.50 -20.75 L 57.40 -20.55 L 57.30 -20.35 L 57.20 -20.15 L 57.10 -19.95 L 57.00 -19.75 L 56.89 -19.55 L 56.78 -19.35 L 56.66 -19.15 L 56.57 -18.95 L 56.50 -18.75 L 56.48 -18.56 L 56.49 -18.37 L 56.51 -18.19 L 56.52 -17.98 L 56.50 -17.75 L 56.43 -17.47 L 56.34 -17.14 L 56.22 -16.80 L 56.11 -16.49 L 56.00 -16.25 L 55.89 -16.10 L 55.78 -16.03 L 55.66 -15.97 L 55.57 -15.90 L 55.50 -15.75 L 55.47 -15.50 L 55.46 -15.17 L 55.48 -14.83 L 55.49 -14.50 L 55.50 -14.25 L 55.51 -14.09 L 55.52 -14.00 L 55.54 -13.94 L 55.53 -13.87 L 55.50 -13.75 L 55.42 -13.58 L 55.29 -13.39 L 55.15 -13.17 L 55.04 -12.96 L 55.00 -12.75 L 55.04 -12.54 L 55.15 -12.33 L 55.29 -12.11 L 55.42 -11.92 L 55.50 -11.75 L 55.52 -11.63 L 55.51 -11.54 L 55.49 -11.46 L 55.48 -11.37 L 55.50 -11.25 L 55.57 -11.07 L 55.66 -10.86 L 55.78 -10.64 L 55.89 -10.43 L 56.00 -10.25 L 56.10 -10.12 L 56.20 -10.01 L 56.30 -9.93 L 56.40 -9.84 L 56.50 -9.75 L 56.59 -9.65 L 56.68 -9.55 L 56.76 -9.45 L 56.87 -9.35 L 57.00 -9.25 L 57.17 -9.15 L 57.36 -9.05 L 57.58 -8.95 L 57.79 -8.85 L 58.00 -8.75 L 58.20 -8.64 L 58.40 -8.53 L 58.60 -8.41 L 58.80 -8.32 L 59.00 -8.25 L 59.19 -8.22 L 59.38 -8.21 L 59.56 -8.23 L 59.77 -8.24 L 60.00 -8.25 L 60.27 -8.25 L 60.56 -8.25 L 60.88 -8.25 L 61.19 -8.25 L 61.50 -8.25 L 61.80 -8.26 L 62.10 -8.27 L 62.40 -8.29 L 62.70 -8.28 L 63.00 -8.25 L 63.29 -8.17 L 63.58 -8.06 L 63.86 -7.94 L 64.17 -7.83 L 64.50 -7.75 L 64.87 -7.72 L 65.26 -7.71 L 65.68 -7.73 L 66.09 -7.74 L 66.50 -7.75 L 66.90 -7.75 L 67.30 -7.75 L 67.70 -7.75 L 68.10 -7.75 L 68.50 -7.75 L 68.89 -7.75 L 69.28 -7.75 L 69.66 -7.75 L 70.07 -7.75 L 70.50 -7.75 L 70.98 -7.75 L 71.49 -7.75 L 72.01 -7.75 L 72.52 -7.75 L 73.00 -7.75 L 73.43 -7.75 L 73.84 -7.75 L 74.22 -7.75 L 74.61 -7.75 L 75.00 -7.75 L 75.40 -7.74 L 75.80 -7.73 L 76.20 -7.71 L 76.60 -7.72 L 77.00 -7.75 L 77.41 -7.83 L 77.82 -7.94 L 78.24 -8.06 L 78.63 -8.17 L 79.00 -8.25 L 79.32 -8.28 L 79.61 -8.29 L 79.89 -8.27 L 80.18 -8.26 L 80.50 -8.25 L 80.90 -8.25 L 81.36 -8.25 L 81.82 -8.25 L 82.22 -8.25 L 82.50 -8.25" />
    <path d="M 98.50 -27.25 L 97.96 -26.72 L 97.16 -25.93 L 96.28 -25.07 L 95.50 -24.28 L 95.00 -23.75 L 94.85 -23.52 L 94.94 -23.47 L 95.14 -23.55 L 95.37 -23.66 L 95.50 -23.75 L 95.64 -23.81 L 95.85 -23.89 L 95.99 -23.99 L 95.92 -24.11 L 95.50 -24.25 L 94.52 -24.45 L 93.08 -24.71 L 91.48 -24.97 L 90.02 -25.17 L 89.00 -25.25 L 88.52 -25.17 L 88.37 -24.97 L 88.41 -24.71 L 88.50 -24.45 L 88.50 -24.25 L 88.40 -24.13 L 88.30 -24.04 L 88.20 -23.96 L 88.10 -23.87 L 88.00 -23.75 L 87.90 -23.57 L 87.80 -23.36 L 87.70 -23.14 L 87.60 -22.93 L 87.50 -22.75 L 87.40 -22.63 L 87.30 -22.54 L 87.20 -22.46 L 87.10 -22.37 L 87.00 -22.25 L 86.90 -22.07 L 86.80 -21.86 L 86.70 -21.64 L 86.60 -21.43 L 86.50 -21.25 L 86.40 -21.13 L 86.30 -21.04 L 86.20 -20.96 L 86.10 -20.87 L 86.00 -20.75 L 85.90 -20.58 L 85.80 -20.39 L 85.70 -20.17 L 85.60 -19.96 L 85.50 -19.75 L 85.40 -19.55 L 85.30 -19.35 L 85.20 -19.15 L 85.10 -18.95 L 85.00 -18.75 L 84.90 -18.54 L 84.80 -18.33 L 84.70 -18.11 L 84.60 -17.92 L 84.50 -17.75 L 84.39 -17.63 L 84.28 -17.54 L 84.16 -17.46 L 84.07 -17.37 L 84.00 -17.25 L 83.98 -17.08 L 83.99 -16.89 L 84.01 -16.67 L 84.02 -16.46 L 84.00 -16.25 L 83.92 -16.04 L 83.81 -15.83 L 83.69 -15.61 L 83.58 -15.42 L 83.50 -15.25 L 83.47 -15.13 L 83.46 -15.04 L 83.48 -14.96 L 83.49 -14.87 L 83.50 -14.75 L 83.50 -14.57 L 83.50 -14.36 L 83.50 -14.14 L 83.50 -13.93 L 83.50 -13.75 L 83.50 -13.63 L 83.50 -13.54 L 83.50 -13.46 L 83.50 -13.37 L 83.50 -13.25 L 83.50 -13.07 L 83.50 -12.86 L 83.50 -12.64 L 83.50 -12.43 L 83.50 -12.25 L 83.49 -12.13 L 83.48 -12.04 L 83.46 -11.96 L 83.47 -11.87 L 83.50 -11.75 L 83.57 -11.57 L 83.66 -11.36 L 83.78 -11.14 L 83.89 -10.93 L 84.00 -10.75 L 84.10 -10.62 L 84.20 -10.51 L 84.30 -10.43 L 84.40 -10.34 L 84.50 -10.25 L 84.59 -10.15 L 84.68 -10.05 L 84.76 -9.95 L 84.87 -9.85 L 85.00 -9.75 L 85.18 -9.65 L 85.39 -9.55 L 85.61 -9.45 L 85.82 -9.35 L 86.00 -9.25 L 86.12 -9.15 L 86.21 -9.05 L 86.29 -8.95 L 86.38 -8.85 L 86.50 -8.75 L 86.68 -8.65 L 86.89 -8.55 L 87.11 -8.45 L 87.32 -8.35 L 87.50 -8.25 L 87.62 -8.14 L 87.71 -8.03 L 87.79 -7.91 L 87.88 -7.82 L 88.00 -7.75 L 88.17 -7.72 L 88.36 -7.71 L 88.58 -7.73 L 88.79 -7.74 L 89.00 -7.75 L 89.20 -7.75 L 89.40 -7.75 L 89.60 -7.75 L 89.80 -7.75 L 90.00 -7.75 L 90.21 -7.75 L 90.42 -7.75 L 90.64 -7.75 L 90.83 -7.75 L 91.00 -7.75 L 91.12 -7.74 L 91.21 -7.73 L 91.29 -7.71 L 91.38 -7.72 L 91.50 -7.75 L 91.67 -7.82 L 91.86 -7.91 L 92.08 -8.03 L 92.29 -8.14 L 92.50 -8.25 L 92.69 -8.35 L 92.88 -8.45 L 93.06 -8.55 L 93.27 -8.65 L 93.50 -8.75 L 93.78 -8.85 L 94.09 -8.95 L 94.41 -9.05 L 94.72 -9.15 L 95.00 -9.25 L 95.22 -9.35 L 95.41 -9.45 L 95.59 -9.55 L 95.78 -9.65 L 96.00 -9.75 L 96.27 -9.84 L 96.56 -9.93 L 96.88 -10.01 L 97.19 -10.12 L 97.50 -10.25 L 97.80 -10.43 L 98.10 -10.64 L 98.40 -10.86 L 98.70 -11.07 L 99.00 -11.25 L 99.30 -11.37 L 99.60 -11.46 L 99.90 -11.54 L 100.20 -11.63 L 100.50 -11.75 L 100.79 -11.91 L 101.08 -12.09 L 101.36 -12.29 L 101.67 -12.51 L 102.00 -12.75 L 102.37 -13.03 L 102.76 -13.34 L 103.18 -13.66 L 103.59 -13.97 L 104.00 -14.25 L 104.41 -14.48 L 104.82 -14.69 L 105.24 -14.87 L 105.63 -15.06 L 106.00 -15.25 L 106.32 -15.44 L 106.61 -15.63 L 106.89 -15.81 L 107.18 -16.02 L 107.50 -16.25 L 107.88 -16.51 L 108.29 -16.79 L 108.71 -17.09 L 109.12 -17.41 L 109.50 -17.75 L 109.83 -18.13 L 110.14 -18.54 L 110.42 -18.96 L 110.71 -19.37 L 111.00 -19.75 L 111.30 -20.08 L 111.60 -20.39 L 111.90 -20.67 L 112.20 -20.96 L 112.50 -21.25 L 112.80 -21.54 L 113.10 -21.83 L 113.40 -22.11 L 113.70 -22.42 L 114.00 -22.75 L 114.31 -23.13 L 114.62 -23.54 L 114.94 -23.96 L 115.23 -24.37 L 115.50 -24.75 L 115.72 -25.07 L 115.91 -25.36 L 116.09 -25.64 L 116.28 -25.93 L 116.50 -26.25 L 116.78 -26.63 L 117.09 -27.06 L 117.41 -27.50 L 117.72 -27.91 L 118.00 -28.25 L 118.24 -28.51 L 118.46 -28.70 L 118.66 -28.86 L 118.84 -29.03 L 119.00 -29.25 L 119.12 -29.52 L 119.19 -29.81 L 119.25 -30.13 L 119.34 -30.44 L 119.50 -30.75 L 119.74 -31.04 L 120.05 -31.33 L 120.39 -31.61 L 120.72 -31.92 L 121.00 -32.25 L 121.23 -32.63 L 121.44 -33.04 L 121.62 -33.46 L 121.81 -33.87 L 122.00 -34.25 L 122.20 -34.58 L 122.40 -34.89 L 122.60 -35.17 L 122.80 -35.46 L 123.00 -35.75 L 123.19 -36.05 L 123.38 -36.35 L 123.56 -36.65 L 123.77 -36.95 L 124.00 -37.25 L 124.27 -37.54 L 124.56 -37.83 L 124.88 -38.11 L 125.19 -38.42 L 125.50 -38.75 L 125.81 -39.13 L 126.12 -39.54 L 126.44 -39.96 L 126.73 -40.37 L 127.00 -40.75 L 127.22 -41.07 L 127.41 -41.36 L 127.59 -41.64 L 127.78 -41.93 L 128.00 -42.25 L 128.27 -42.62 L 128.56 -43.01 L 128.88 -43.43 L 129.19 -43.84 L 129.50 -44.25 L 129.81 -44.66 L 130.12 -45.07 L 130.44 -45.49 L 130.73 -45.88 L 131.00 -46.25 L 131.23 -46.58 L 131.44 -46.89 L 131.62 -47.17 L 131.81 -47.46 L 132.00 -47.75 L 132.20 -48.05 L 132.40 -48.35 L 132.60 -48.65 L 132.80 -48.95 L 133.00 -49.25 L 133.20 -49.55 L 133.40 -49.85 L 133.60 -50.15 L 133.80 -50.45 L 134.00 -50.75 L 134.22 -51.06 L 134.45 -51.37 L 134.67 -51.69 L 134.86 -51.98 L 135.00 -52.25 L 135.05 -52.47 L 135.02 -52.66 L 134.98 -52.84 L 134.95 -53.03 L 135.00 -53.25 L 135.14 -53.52 L 135.35 -53.81 L 135.59 -54.13 L 135.82 -54.44 L 136.00 -54.75 L 136.14 -55.06 L 136.26 -55.37 L 136.36 -55.69 L 136.44 -55.98 L 136.50 -56.25 L 136.52 -56.48 L 136.51 -56.69 L 136.49 -56.87 L 136.48 -57.06 L 136.50 -57.25 L 136.57 -57.45 L 136.66 -57.65 L 136.78 -57.85 L 136.89 -58.05 L 137.00 -58.25 L 137.11 -58.45 L 137.22 -58.65 L 137.34 -58.85 L 137.43 -59.05 L 137.50 -59.25 L 137.52 -59.45 L 137.51 -59.65 L 137.49 -59.85 L 137.48 -60.05 L 137.50 -60.25 L 137.57 -60.45 L 137.66 -60.65 L 137.78 -60.85 L 137.89 -61.05 L 138.00 -61.25 L 138.11 -61.46 L 138.22 -61.67 L 138.34 -61.89 L 138.43 -62.08 L 138.50 -62.25 L 138.53 -62.37 L 138.54 -62.46 L 138.52 -62.54 L 138.51 -62.63 L 138.50 -62.75 L 138.50 -62.93 L 138.50 -63.14 L 138.50 -63.36 L 138.50 -63.57 L 138.50 -63.75 L 138.50 -63.88 L 138.50 -63.99 L 138.50 -64.07 L 138.50 -64.16 L 138.50 -64.25 L 138.50 -64.36 L 138.50 -64.47 L 138.50 -64.59 L 138.50 -64.68 L 138.50 -64.75 L 138.50 -64.77 L 138.50 -64.76 L 138.50 -64.74 L 138.50 -64.73 L 138.50 -64.75 L 138.49 -64.83 L 138.48 -64.94 L 138.46 -65.06 L 138.47 -65.17 L 138.50 -65.25 L 138.58 -65.27 L 138.69 -65.26 L 138.81 -65.24 L 138.92 -65.23 L 139.00 -65.25 L 139.03 -65.33 L 139.04 -65.44 L 139.02 -65.56 L 139.01 -65.67 L 139.00 -65.75 L 139.00 -65.78 L 139.00 -65.79 L 139.00 -65.77 L 139.00 -65.76 L 139.00 -65.75 L 139.00 -65.75 L 139.00 -65.75 L 139.00 -65.75 L 139.00 -65.75 L 139.00 -65.75 L 139.00 -65.75 L 139.00 -65.75 L 139.00 -65.75 L 139.00 -65.75 L 139.00 -65.75 L 139.01 -65.75 L 139.02 -65.75 L 139.04 -65.75 L 139.03 -65.75 L 139.00 -65.75 L 138.92 -65.75 L 138.81 -65.75 L 138.69 -65.75 L 138.58 -65.75 L 138.50 -65.75 L 138.47 -65.75 L 138.46 -65.75 L 138.48 -65.75 L 138.49 -65.75 L 138.50 -65.75 L 138.50 -65.76 L 138.50 -65.77 L 138.50 -65.79 L 138.50 -65.78 L 138.50 -65.75 L 138.51 -65.69 L 138.52 -65.61 L 138.54 -65.51 L 138.53 -65.39 L 138.50 -65.25 L 138.43 -65.10 L 138.34 -64.93 L 138.22 -64.75 L 138.11 -64.52 L 138.00 -64.25 L 137.90 -63.90 L 137.80 -63.47 L 137.70 -63.03 L 137.60 -62.60 L 137.50 -62.25 L 137.40 -61.98 L 137.30 -61.75 L 137.20 -61.57 L 137.10 -61.40 L 137.00 -61.25 L 136.90 -61.13 L 136.80 -61.06 L 136.70 -61.00 L 136.60 -60.91 L 136.50 -60.75 L 136.40 -60.51 L 136.30 -60.20 L 136.20 -59.86 L 136.10 -59.53 L 136.00 -59.25 L 135.89 -59.02 L 135.78 -58.81 L 135.66 -58.63 L 135.57 -58.44 L 135.50 -58.25 L 135.48 -58.05 L 135.49 -57.85 L 135.51 -57.65 L 135.52 -57.45 L 135.50 -57.25 L 135.44 -57.07 L 135.36 -56.92 L 135.26 -56.76 L 135.14 -56.55 L 135.00 -56.25 L 134.83 -55.82 L 134.64 -55.29 L 134.42 -54.71 L 134.21 -54.18 L 134.00 -53.75 L 133.79 -53.46 L 133.58 -53.27 L 133.36 -53.11 L 133.17 -52.96 L 133.00 -52.75 L 132.87 -52.48 L 132.76 -52.19 L 132.68 -51.87 L 132.59 -51.56 L 132.50 -51.25 L 132.40 -50.96 L 132.30 -50.67 L 132.20 -50.39 L 132.10 -50.08 L 132.00 -49.75 L 131.92 -49.37 L 131.85 -48.96 L 131.77 -48.54 L 131.66 -48.13 L 131.50 -47.75 L 131.25 -47.43 L 130.92 -47.14 L 130.58 -46.86 L 130.25 -46.57 L 130.00 -46.25 L 129.84 -45.88 L 129.75 -45.49 L 129.69 -45.07 L 129.62 -44.66 L 129.50 -44.25 L 129.33 -43.86 L 129.14 -43.47 L 128.92 -43.09 L 128.71 -42.68 L 128.50 -42.25 L 128.31 -41.77 L 128.12 -41.26 L 127.94 -40.74 L 127.73 -40.23 L 127.50 -39.75 L 127.22 -39.33 L 126.91 -38.94 L 126.59 -38.56 L 126.28 -38.17 L 126.00 -37.75 L 125.78 -37.28 L 125.59 -36.79 L 125.41 -36.27 L 125.22 -35.76 L 125.00 -35.25 L 124.72 -34.75 L 124.41 -34.25 L 124.09 -33.75 L 123.78 -33.25 L 123.50 -32.75 L 123.28 -32.25 L 123.09 -31.75 L 122.91 -31.25 L 122.72 -30.75 L 122.50 -30.25 L 122.22 -29.75 L 121.89 -29.25 L 121.55 -28.75 L 121.24 -28.25 L 121.00 -27.75 L 120.85 -27.25 L 120.78 -26.75 L 120.72 -26.25 L 120.65 -25.75 L 120.50 -25.25 L 120.25 -24.75 L 119.92 -24.25 L 119.58 -23.75 L 119.25 -23.25 L 119.00 -22.75 L 118.84 -22.24 L 118.75 -21.73 L 118.69 -21.21 L 118.62 -20.72 L 118.50 -20.25 L 118.32 -19.82 L 118.11 -19.41 L 117.89 -19.03 L 117.68 -18.64 L 117.50 -18.25 L 117.37 -17.85 L 117.26 -17.45 L 117.18 -17.05 L 117.09 -16.65 L 117.00 -16.25 L 116.90 -15.85 L 116.80 -15.45 L 116.70 -15.05 L 116.60 -14.65 L 116.50 -14.25 L 116.39 -13.83 L 116.28 -13.40 L 116.16 -12.98 L 116.07 -12.59 L 116.00 -12.25 L 115.97 -11.99 L 115.96 -11.80 L 115.98 -11.64 L 115.99 -11.47 L 116.00 -11.25 L 116.00 -10.97 L 116.00 -10.66 L 116.00 -10.34 L 116.00 -10.03 L 116.00 -9.75 L 116.00 -9.51 L 116.00 -9.29 L 116.00 -9.09 L 116.00 -8.91 L 116.00 -8.75 L 116.00 -8.63 L 116.00 -8.54 L 116.00 -8.46 L 116.00 -8.37 L 116.00 -8.25 L 116.00 -8.07 L 116.00 -7.86 L 116.00 -7.64 L 116.00 -7.43 L 116.00 -7.25 L 115.99 -7.12 L 115.98 -7.01 L 115.96 -6.93 L 115.97 -6.84 L 116.00 -6.75 L 116.07 -6.64 L 116.16 -6.53 L 116.28 -6.41 L 116.39 -6.32 L 116.50 -6.25 L 116.61 -6.23 L 116.72 -6.24 L 116.84 -6.26 L 116.93 -6.27 L 117.00 -6.25 L 117.02 -6.17 L 117.01 -6.06 L 116.99 -5.94 L 116.98 -5.83 L 117.00 -5.75 L 117.07 -5.72 L 117.16 -5.71 L 117.28 -5.73 L 117.39 -5.74 L 117.50 -5.75 L 117.60 -5.75 L 117.70 -5.75 L 117.80 -5.75 L 117.90 -5.75 L 118.00 -5.75 L 118.11 -5.75 L 118.22 -5.75 L 118.34 -5.75 L 118.43 -5.75 L 118.50 -5.75 L 118.52 -5.75 L 118.51 -5.75 L 118.49 -5.75 L 118.48 -5.75 L 118.50 -5.75 L 118.57 -5.75 L 118.66 -5.75 L 118.78 -5.75 L 118.89 -5.75 L 119.00 -5.75 L 119.10 -5.74 L 119.20 -5.73 L 119.30 -5.71 L 119.40 -5.72 L 119.50 -5.75 L 119.61 -5.83 L 119.72 -5.94 L 119.84 -6.06 L 119.93 -6.17 L 120.00 -6.25 L 120.02 -6.27 L 120.01 -6.26 L 119.99 -6.24 L 119.98 -6.23 L 120.00 -6.25 L 120.07 -6.33 L 120.16 -6.44 L 120.28 -6.56 L 120.39 -6.67 L 120.50 -6.75 L 120.61 -6.78 L 120.72 -6.79 L 120.84 -6.77 L 120.93 -6.76 L 121.00 -6.75" />
    <path d="M 155.50 -27.75 L 155.45 -27.85 L 155.44 -28.04 L 155.34 -28.18 L 155.07 -28.13 L 154.50 -27.75 L 153.45 -26.85 L 151.98 -25.52 L 150.40 -24.04 L 148.97 -22.69 L 148.00 -21.75 L 147.58 -21.30 L 147.51 -21.15 L 147.65 -21.19 L 147.86 -21.26 L 148.00 -21.25 L 148.08 -21.15 L 148.19 -21.05 L 148.31 -20.95 L 148.42 -20.85 L 148.50 -20.75 L 148.52 -20.66 L 148.51 -20.57 L 148.49 -20.49 L 148.48 -20.38 L 148.50 -20.25 L 148.58 -20.07 L 148.69 -19.84 L 148.81 -19.60 L 148.92 -19.39 L 149.00 -19.25 L 149.02 -19.19 L 149.01 -19.20 L 148.99 -19.24 L 148.98 -19.27 L 149.00 -19.25 L 149.07 -19.17 L 149.16 -19.06 L 149.28 -18.94 L 149.39 -18.83 L 149.50 -18.75 L 149.59 -18.73 L 149.68 -18.74 L 149.76 -18.76 L 149.87 -18.77 L 150.00 -18.75 L 150.18 -18.67 L 150.39 -18.56 L 150.61 -18.44 L 150.82 -18.33 L 151.00 -18.25 L 151.12 -18.22 L 151.21 -18.21 L 151.29 -18.23 L 151.38 -18.24 L 151.50 -18.25 L 151.67 -18.25 L 151.86 -18.25 L 152.08 -18.25 L 152.29 -18.25 L 152.50 -18.25 L 152.70 -18.25 L 152.90 -18.25 L 153.10 -18.25 L 153.30 -18.25 L 153.50 -18.25 L 153.70 -18.25 L 153.90 -18.25 L 154.10 -18.25 L 154.30 -18.25 L 154.50 -18.25 L 154.69 -18.25 L 154.88 -18.25 L 155.06 -18.25 L 155.27 -18.25 L 155.50 -18.25 L 155.78 -18.24 L 156.09 -18.23 L 156.41 -18.21 L 156.72 -18.22 L 157.00 -18.25 L 157.22 -18.32 L 157.41 -18.41 L 157.59 -18.53 L 157.78 -18.64 L 158.00 -18.75 L 158.28 -18.86 L 158.59 -18.97 L 158.91 -19.09 L 159.22 -19.18 L 159.50 -19.25 L 159.72 -19.27 L 159.91 -19.26 L 160.09 -19.24 L 160.28 -19.23 L 160.50 -19.25 L 160.78 -19.32 L 161.09 -19.41 L 161.41 -19.53 L 161.72 -19.64 L 162.00 -19.75 L 162.23 -19.85 L 162.44 -19.95 L 162.62 -20.05 L 162.81 -20.15 L 163.00 -20.25 L 163.21 -20.35 L 163.42 -20.45 L 163.64 -20.55 L 163.83 -20.65 L 164.00 -20.75 L 164.13 -20.85 L 164.24 -20.95 L 164.32 -21.05 L 164.41 -21.15 L 164.50 -21.25 L 164.59 -21.34 L 164.68 -21.43 L 164.76 -21.51 L 164.87 -21.62 L 165.00 -21.75 L 165.18 -21.93 L 165.39 -22.14 L 165.61 -22.36 L 165.82 -22.57 L 166.00 -22.75 L 166.14 -22.88 L 166.26 -22.99 L 166.36 -23.07 L 166.44 -23.16 L 166.50 -23.25 L 166.52 -23.35 L 166.51 -23.45 L 166.49 -23.55 L 166.48 -23.65 L 166.50 -23.75 L 166.58 -23.85 L 166.69 -23.95 L 166.81 -24.05 L 166.92 -24.15 L 167.00 -24.25 L 167.02 -24.35 L 167.01 -24.45 L 166.99 -24.55 L 166.98 -24.65 L 167.00 -24.75 L 167.08 -24.85 L 167.19 -24.95 L 167.31 -25.05 L 167.42 -25.15 L 167.50 -25.25 L 167.53 -25.35 L 167.54 -25.45 L 167.52 -25.55 L 167.51 -25.65 L 167.50 -25.75 L 167.50 -25.85 L 167.50 -25.95 L 167.50 -26.05 L 167.50 -26.15 L 167.50 -26.25 L 167.50 -26.35 L 167.50 -26.45 L 167.50 -26.55 L 167.50 -26.65 L 167.50 -26.75 L 167.50 -26.85 L 167.50 -26.95 L 167.50 -27.05 L 167.50 -27.15 L 167.50 -27.25 L 167.50 -27.35 L 167.50 -27.45 L 167.50 -27.55 L 167.50 -27.65 L 167.50 -27.75 L 167.50 -27.86 L 167.50 -27.97 L 167.50 -28.09 L 167.50 -28.18 L 167.50 -28.25 L 167.50 -28.27 L 167.50 -28.26 L 167.50 -28.24 L 167.50 -28.23 L 167.50 -28.25 L 167.50 -28.32 L 167.50 -28.41 L 167.50 -28.53 L 167.50 -28.64 L 167.50 -28.75 L 167.50 -28.85 L 167.50 -28.95 L 167.50 -29.05 L 167.50 -29.15 L 167.50 -29.25 L 167.51 -29.36 L 167.52 -29.47 L 167.54 -29.59 L 167.53 -29.68 L 167.50 -29.75 L 167.42 -29.77 L 167.31 -29.76 L 167.19 -29.74 L 167.08 -29.73 L 167.00 -29.75 L 166.98 -29.82 L 166.99 -29.91 L 167.01 -30.03 L 167.02 -30.14 L 167.00 -30.25 L 166.92 -30.36 L 166.81 -30.47 L 166.69 -30.59 L 166.58 -30.68 L 166.50 -30.75 L 166.48 -30.78 L 166.51 -30.79 L 166.55 -30.77 L 166.56 -30.76 L 166.50 -30.75 L 166.35 -30.74 L 166.12 -30.73 L 165.88 -30.71 L 165.65 -30.72 L 165.50 -30.75 L 165.45 -30.82 L 165.48 -30.91 L 165.52 -31.03 L 165.55 -31.14 L 165.50 -31.25 L 165.36 -31.36 L 165.15 -31.47 L 164.91 -31.59 L 164.68 -31.68 L 164.50 -31.75 L 164.37 -31.78 L 164.26 -31.79 L 164.18 -31.77 L 164.09 -31.76 L 164.00 -31.75 L 163.90 -31.75 L 163.80 -31.75 L 163.70 -31.75 L 163.60 -31.75 L 163.50 -31.75 L 163.41 -31.74 L 163.32 -31.73 L 163.24 -31.71 L 163.13 -31.72 L 163.00 -31.75 L 162.82 -31.83 L 162.61 -31.94 L 162.39 -32.06 L 162.18 -32.17 L 162.00 -32.25 L 161.88 -32.28 L 161.79 -32.29 L 161.71 -32.27 L 161.62 -32.26 L 161.50 -32.25 L 161.32 -32.25 L 161.11 -32.25 L 160.89 -32.25 L 160.68 -32.25 L 160.50 -32.25 L 160.38 -32.26 L 160.29 -32.27 L 160.21 -32.29 L 160.12 -32.28 L 160.00 -32.25 L 159.83 -32.17 L 159.64 -32.06 L 159.42 -31.94 L 159.21 -31.83 L 159.00 -31.75 L 158.79 -31.73 L 158.58 -31.74 L 158.36 -31.76 L 158.17 -31.77 L 158.00 -31.75 L 157.88 -31.67 L 157.79 -31.56 L 157.71 -31.44 L 157.62 -31.33 L 157.50 -31.25 L 157.33 -31.23 L 157.14 -31.24 L 156.92 -31.26 L 156.71 -31.27 L 156.50 -31.25 L 156.29 -31.18 L 156.08 -31.09 L 155.86 -30.97 L 155.67 -30.86 L 155.50 -30.75 L 155.38 -30.65 L 155.29 -30.55 L 155.21 -30.45 L 155.12 -30.35 L 155.00 -30.25 L 154.82 -30.16 L 154.61 -30.07 L 154.39 -29.99 L 154.18 -29.88 L 154.00 -29.75 L 153.88 -29.57 L 153.79 -29.36 L 153.71 -29.14 L 153.62 -28.93 L 153.50 -28.75 L 153.33 -28.63 L 153.14 -28.54 L 152.92 -28.46 L 152.71 -28.37 L 152.50 -28.25 L 152.29 -28.08 L 152.08 -27.89 L 151.86 -27.67 L 151.67 -27.46 L 151.50 -27.25 L 151.38 -27.06 L 151.29 -26.87 L 151.21 -26.69 L 151.12 -26.48 L 151.00 -26.25 L 150.83 -25.97 L 150.64 -25.66 L 150.42 -25.34 L 150.21 -25.03 L 150.00 -24.75 L 149.80 -24.53 L 149.60 -24.34 L 149.40 -24.16 L 149.20 -23.97 L 149.00 -23.75 L 148.79 -23.49 L 148.58 -23.21 L 148.36 -22.91 L 148.17 -22.59 L 148.00 -22.25 L 147.88 -21.87 L 147.79 -21.46 L 147.71 -21.04 L 147.62 -20.63 L 147.50 -20.25 L 147.33 -19.92 L 147.14 -19.61 L 146.92 -19.33 L 146.71 -19.04 L 146.50 -18.75 L 146.30 -18.45 L 146.10 -18.15 L 145.90 -17.85 L 145.70 -17.55 L 145.50 -17.25 L 145.30 -16.96 L 145.10 -16.67 L 144.90 -16.39 L 144.70 -16.08 L 144.50 -15.75 L 144.30 -15.37 L 144.10 -14.94 L 143.90 -14.50 L 143.70 -14.09 L 143.50 -13.75 L 143.29 -13.49 L 143.08 -13.30 L 142.86 -13.14 L 142.67 -12.97 L 142.50 -12.75 L 142.38 -12.48 L 142.29 -12.19 L 142.21 -11.87 L 142.12 -11.56 L 142.00 -11.25 L 141.82 -10.94 L 141.61 -10.63 L 141.39 -10.31 L 141.18 -10.02 L 141.00 -9.75 L 140.87 -9.52 L 140.76 -9.31 L 140.68 -9.13 L 140.59 -8.94 L 140.50 -8.75 L 140.39 -8.55 L 140.28 -8.35 L 140.16 -8.15 L 140.07 -7.95 L 140.00 -7.75 L 139.97 -7.55 L 139.96 -7.35 L 139.98 -7.15 L 139.99 -6.95 L 140.00 -6.75 L 140.00 -6.54 L 140.00 -6.33 L 140.00 -6.11 L 140.00 -5.92 L 140.00 -5.75 L 139.99 -5.63 L 139.98 -5.54 L 139.96 -5.46 L 139.97 -5.37 L 140.00 -5.25 L 140.08 -5.07 L 140.19 -4.86 L 140.31 -4.64 L 140.42 -4.43 L 140.50 -4.25 L 140.52 -4.11 L 140.49 -3.99 L 140.45 -3.89 L 140.44 -3.81 L 140.50 -3.75 L 140.64 -3.73 L 140.83 -3.74 L 141.05 -3.76 L 141.28 -3.77 L 141.50 -3.75 L 141.69 -3.67 L 141.88 -3.56 L 142.06 -3.44 L 142.27 -3.33 L 142.50 -3.25 L 142.78 -3.23 L 143.09 -3.24 L 143.41 -3.26 L 143.72 -3.27 L 144.00 -3.25 L 144.23 -3.17 L 144.44 -3.04 L 144.62 -2.90 L 144.81 -2.79 L 145.00 -2.75 L 145.18 -2.79 L 145.35 -2.90 L 145.53 -3.04 L 145.74 -3.17 L 146.00 -3.25 L 146.34 -3.27 L 146.73 -3.26 L 147.15 -3.24 L 147.58 -3.23 L 148.00 -3.25 L 148.39 -3.32 L 148.78 -3.41 L 149.16 -3.53 L 149.57 -3.64 L 150.00 -3.75 L 150.46 -3.85 L 150.94 -3.95 L 151.44 -4.05 L 151.96 -4.15 L 152.50 -4.25 L 153.08 -4.35 L 153.69 -4.45 L 154.31 -4.55 L 154.92 -4.65 L 155.50 -4.75 L 156.03 -4.85 L 156.54 -4.95 L 157.02 -5.05 L 157.51 -5.15 L 158.00 -5.25 L 158.50 -5.34 L 159.00 -5.43 L 159.50 -5.51 L 160.00 -5.62 L 160.50 -5.75 L 160.99 -5.93 L 161.48 -6.14 L 161.96 -6.36 L 162.47 -6.57 L 163.00 -6.75 L 163.58 -6.87 L 164.19 -6.96 L 164.81 -7.04 L 165.42 -7.13 L 166.00 -7.25 L 166.53 -7.43 L 167.04 -7.64 L 167.52 -7.86 L 168.01 -8.07 L 168.50 -8.25 L 169.00 -8.38 L 169.50 -8.49 L 170.00 -8.57 L 170.50 -8.66 L 171.00 -8.75 L 171.51 -8.85 L 172.02 -8.95 L 172.54 -9.05 L 173.03 -9.15 L 173.50 -9.25 L 173.92 -9.35 L 174.29 -9.45 L 174.65 -9.55 L 175.04 -9.65 L 175.50 -9.75 L 176.04 -9.85 L 176.65 -9.95 L 177.29 -10.05 L 177.92 -10.15 L 178.50 -10.25 L 179.02 -10.35 L 179.51 -10.45 L 179.99 -10.55 L 180.48 -10.65 L 181.00 -10.75 L 181.62 -10.86 L 182.31 -10.97 L 182.99 -11.09 L 183.58 -11.18 L 184.00 -11.25" />
    <path d="M 238.50 -53.75 L 237.06 -54.13 L 234.95 -54.69 L 232.61 -55.31 L 230.48 -55.87 L 229.00 -56.25 L 228.32 -56.42 L 228.15 -56.45 L 228.27 -56.41 L 228.46 -56.32 L 228.50 -56.25 L 228.40 -56.18 L 228.30 -56.09 L 228.20 -55.97 L 228.10 -55.86 L 228.00 -55.75 L 227.91 -55.65 L 227.82 -55.55 L 227.74 -55.45 L 227.63 -55.35 L 227.50 -55.25 L 227.33 -55.15 L 227.14 -55.05 L 226.92 -54.95 L 226.71 -54.85 L 226.50 -54.75 L 226.30 -54.65 L 226.10 -54.55 L 225.90 -54.45 L 225.70 -54.35 L 225.50 -54.25 L 225.30 -54.15 L 225.10 -54.05 L 224.90 -53.95 L 224.70 -53.85 L 224.50 -53.75 L 224.31 -53.66 L 224.12 -53.57 L 223.94 -53.49 L 223.73 -53.38 L 223.50 -53.25 L 223.22 -53.07 L 222.89 -52.86 L 222.55 -52.64 L 222.24 -52.43 L 222.00 -52.25 L 221.85 -52.13 L 221.78 -52.04 L 221.72 -51.96 L 221.65 -51.87 L 221.50 -51.75 L 221.26 -51.58 L 220.95 -51.39 L 220.61 -51.17 L 220.28 -50.96 L 220.00 -50.75 L 219.77 -50.55 L 219.56 -50.35 L 219.38 -50.15 L 219.19 -49.95 L 219.00 -49.75 L 218.79 -49.55 L 218.58 -49.35 L 218.36 -49.15 L 218.17 -48.95 L 218.00 -48.75 L 217.87 -48.55 L 217.76 -48.35 L 217.68 -48.15 L 217.59 -47.95 L 217.50 -47.75 L 217.41 -47.55 L 217.32 -47.35 L 217.24 -47.15 L 217.13 -46.95 L 217.00 -46.75 L 216.82 -46.56 L 216.61 -46.37 L 216.39 -46.19 L 216.18 -45.98 L 216.00 -45.75 L 215.87 -45.47 L 215.76 -45.16 L 215.68 -44.84 L 215.59 -44.53 L 215.50 -44.25 L 215.41 -44.02 L 215.32 -43.81 L 215.24 -43.63 L 215.13 -43.44 L 215.00 -43.25 L 214.82 -43.05 L 214.61 -42.85 L 214.39 -42.65 L 214.18 -42.45 L 214.00 -42.25 L 213.87 -42.06 L 213.76 -41.87 L 213.68 -41.69 L 213.59 -41.48 L 213.50 -41.25 L 213.40 -40.98 L 213.30 -40.69 L 213.20 -40.37 L 213.10 -40.06 L 213.00 -39.75 L 212.90 -39.44 L 212.80 -39.13 L 212.70 -38.81 L 212.60 -38.52 L 212.50 -38.25 L 212.40 -38.03 L 212.30 -37.86 L 212.20 -37.70 L 212.10 -37.51 L 212.00 -37.25 L 211.90 -36.90 L 211.80 -36.47 L 211.70 -36.03 L 211.60 -35.60 L 211.50 -35.25 L 211.40 -34.99 L 211.30 -34.80 L 211.20 -34.64 L 211.10 -34.47 L 211.00 -34.25 L 210.90 -33.98 L 210.80 -33.69 L 210.70 -33.37 L 210.60 -33.06 L 210.50 -32.75 L 210.40 -32.46 L 210.30 -32.17 L 210.20 -31.89 L 210.10 -31.58 L 210.00 -31.25 L 209.91 -30.87 L 209.82 -30.46 L 209.74 -30.04 L 209.63 -29.63 L 209.50 -29.25 L 209.32 -28.92 L 209.11 -28.61 L 208.89 -28.33 L 208.68 -28.04 L 208.50 -27.75 L 208.36 -27.45 L 208.24 -27.15 L 208.14 -26.85 L 208.06 -26.55 L 208.00 -26.25 L 207.98 -25.95 L 207.99 -25.65 L 208.01 -25.35 L 208.02 -25.05 L 208.00 -24.75 L 207.92 -24.45 L 207.81 -24.15 L 207.69 -23.85 L 207.58 -23.55 L 207.50 -23.25 L 207.48 -22.95 L 207.49 -22.65 L 207.51 -22.35 L 207.52 -22.05 L 207.50 -21.75 L 207.42 -21.45 L 207.31 -21.15 L 207.19 -20.85 L 207.08 -20.55 L 207.00 -20.25 L 206.97 -19.94 L 206.96 -19.63 L 206.98 -19.31 L 206.99 -19.02 L 207.00 -18.75 L 207.00 -18.53 L 207.00 -18.34 L 207.00 -18.16 L 207.00 -17.97 L 207.00 -17.75 L 207.00 -17.47 L 207.00 -17.16 L 207.00 -16.84 L 207.00 -16.53 L 207.00 -16.25 L 207.02 -16.03 L 207.05 -15.84 L 207.07 -15.66 L 207.06 -15.47 L 207.00 -15.25 L 206.85 -14.97 L 206.62 -14.66 L 206.38 -14.34 L 206.15 -14.03 L 206.00 -13.75 L 205.94 -13.52 L 205.93 -13.31 L 205.95 -13.13 L 205.98 -12.94 L 206.00 -12.75 L 206.00 -12.55 L 206.00 -12.35 L 206.00 -12.15 L 206.00 -11.95 L 206.00 -11.75 L 206.01 -11.57 L 206.02 -11.40 L 206.04 -11.22 L 206.03 -11.01 L 206.00 -10.75 L 205.92 -10.39 L 205.81 -9.95 L 205.69 -9.49 L 205.58 -9.07 L 205.50 -8.75 L 205.46 -8.55 L 205.44 -8.44 L 205.44 -8.38 L 205.46 -8.33 L 205.50 -8.25 L 205.58 -8.15 L 205.69 -8.05 L 205.81 -7.95 L 205.92 -7.85 L 206.00 -7.75 L 206.02 -7.65 L 206.01 -7.55 L 205.99 -7.45 L 205.98 -7.35 L 206.00 -7.25 L 206.08 -7.15 L 206.21 -7.05 L 206.35 -6.95 L 206.46 -6.85 L 206.50 -6.75 L 206.46 -6.65 L 206.35 -6.55 L 206.21 -6.45 L 206.08 -6.35 L 206.00 -6.25 L 205.96 -6.14 L 205.94 -6.03 L 205.94 -5.91 L 205.96 -5.82 L 206.00 -5.75 L 206.08 -5.73 L 206.19 -5.74 L 206.31 -5.76 L 206.42 -5.77 L 206.50 -5.75 L 206.53 -5.67 L 206.54 -5.56 L 206.52 -5.44 L 206.51 -5.33 L 206.50 -5.25 L 206.50 -5.22 L 206.50 -5.21 L 206.50 -5.23 L 206.50 -5.24 L 206.50 -5.25 L 206.50 -5.25 L 206.50 -5.25 L 206.50 -5.25 L 206.50 -5.25 L 206.50 -5.25 L 206.50 -5.25 L 206.50 -5.25 L 206.50 -5.25 L 206.50 -5.25 L 206.50 -5.25 L 206.50 -5.25 L 206.50 -5.25 L 206.50 -5.25 L 206.50 -5.25 L 206.50 -5.25 L 206.50 -5.25 L 206.50 -5.25 L 206.50 -5.25 L 206.50 -5.25 L 206.50 -5.25 L 206.50 -5.25 L 206.50 -5.25 L 206.50 -5.25 L 206.50 -5.25 L 206.50 -5.25 L 206.50 -5.25 L 206.50 -5.25 L 206.50 -5.25 L 206.50 -5.25 L 206.50 -5.25 L 206.50 -5.25 L 206.50 -5.25 L 206.50 -5.25 L 206.50 -5.25 L 206.50 -5.25 L 206.50 -5.25 L 206.50 -5.25 L 206.50 -5.25 L 206.50 -5.25 L 206.50 -5.25 L 206.50 -5.24 L 206.50 -5.23 L 206.50 -5.21 L 206.50 -5.22 L 206.50 -5.25 L 206.50 -5.33 L 206.50 -5.44 L 206.50 -5.56 L 206.50 -5.67 L 206.50 -5.75 L 206.50 -5.78 L 206.50 -5.79 L 206.50 -5.77 L 206.50 -5.76 L 206.50 -5.75 L 206.50 -5.75 L 206.50 -5.75 L 206.50 -5.75 L 206.50 -5.75 L 206.50 -5.75 L 206.50 -5.75 L 206.50 -5.75 L 206.50 -5.75 L 206.50 -5.75 L 206.50 -5.75 L 206.50 -5.75 L 206.50 -5.75 L 206.50 -5.75 L 206.50 -5.75 L 206.50 -5.75 L 206.50 -5.74 L 206.50 -5.73 L 206.50 -5.71 L 206.50 -5.72 L 206.50 -5.75 L 206.50 -5.83 L 206.50 -5.94 L 206.50 -6.06 L 206.50 -6.17 L 206.50 -6.25 L 206.50 -6.28 L 206.50 -6.29 L 206.50 -6.27 L 206.50 -6.26 L 206.50 -6.25" />
    <path d="M 205.00 -23.75 L 205.26 -22.99 L 205.58 -21.84 L 206.02 -20.62 L 206.64 -19.65 L 207.50 -19.25 L 208.79 -19.65 L 210.48 -20.62 L 212.26 -21.84 L 213.87 -22.99 L 215.00 -23.75 L 215.55 -24.04 L 215.70 -24.07 L 215.64 -23.97 L 215.51 -23.82 L 215.50 -23.75 L 215.60 -23.76 L 215.70 -23.77 L 215.80 -23.79 L 215.90 -23.78 L 216.00 -23.75 L 216.10 -23.67 L 216.20 -23.56 L 216.30 -23.44 L 216.40 -23.33 L 216.50 -23.25 L 216.60 -23.22 L 216.70 -23.21 L 216.80 -23.23 L 216.90 -23.24 L 217.00 -23.25 L 217.09 -23.25 L 217.18 -23.25 L 217.26 -23.25 L 217.37 -23.25 L 217.50 -23.25 L 217.67 -23.25 L 217.86 -23.25 L 218.08 -23.25 L 218.29 -23.25 L 218.50 -23.25 L 218.71 -23.25 L 218.92 -23.25 L 219.14 -23.25 L 219.33 -23.25 L 219.50 -23.25 L 219.62 -23.25 L 219.71 -23.25 L 219.79 -23.25 L 219.88 -23.25 L 220.00 -23.25 L 220.14 -23.26 L 220.29 -23.27 L 220.47 -23.29 L 220.70 -23.28 L 221.00 -23.25 L 221.44 -23.17 L 222.01 -23.06 L 222.61 -22.94 L 223.14 -22.83 L 223.50 -22.75" />
    <path d="M 268.00 -26.25 L 266.94 -27.31 L 265.37 -28.88 L 263.63 -30.62 L 262.06 -32.19 L 261.00 -33.25 L 260.56 -33.71 L 260.52 -33.78 L 260.70 -33.62 L 260.92 -33.39 L 261.00 -33.25 L 260.93 -33.17 L 260.84 -33.06 L 260.72 -32.94 L 260.61 -32.83 L 260.50 -32.75 L 260.41 -32.73 L 260.32 -32.74 L 260.24 -32.76 L 260.13 -32.77 L 260.00 -32.75 L 259.82 -32.67 L 259.61 -32.56 L 259.39 -32.44 L 259.18 -32.33 L 259.00 -32.25 L 258.88 -32.23 L 258.79 -32.24 L 258.71 -32.26 L 258.62 -32.27 L 258.50 -32.25 L 258.32 -32.17 L 258.11 -32.06 L 257.89 -31.94 L 257.68 -31.83 L 257.50 -31.75 L 257.37 -31.73 L 257.26 -31.74 L 257.18 -31.76 L 257.09 -31.77 L 257.00 -31.75 L 256.92 -31.68 L 256.85 -31.59 L 256.77 -31.47 L 256.66 -31.36 L 256.50 -31.25 L 256.25 -31.15 L 255.92 -31.05 L 255.58 -30.95 L 255.25 -30.85 L 255.00 -30.75 L 254.83 -30.65 L 254.70 -30.55 L 254.62 -30.45 L 254.55 -30.35 L 254.50 -30.25 L 254.48 -30.15 L 254.51 -30.05 L 254.55 -29.95 L 254.56 -29.85 L 254.50 -29.75 L 254.36 -29.65 L 254.15 -29.55 L 253.91 -29.45 L 253.68 -29.35 L 253.50 -29.25 L 253.38 -29.15 L 253.29 -29.05 L 253.21 -28.95 L 253.12 -28.85 L 253.00 -28.75 L 252.82 -28.66 L 252.61 -28.57 L 252.39 -28.49 L 252.18 -28.38 L 252.00 -28.25 L 251.87 -28.08 L 251.76 -27.89 L 251.68 -27.67 L 251.59 -27.46 L 251.50 -27.25 L 251.40 -27.04 L 251.30 -26.83 L 251.20 -26.61 L 251.10 -26.42 L 251.00 -26.25 L 250.90 -26.13 L 250.80 -26.04 L 250.70 -25.96 L 250.60 -25.87 L 250.50 -25.75 L 250.40 -25.58 L 250.30 -25.39 L 250.20 -25.17 L 250.10 -24.96 L 250.00 -24.75 L 249.89 -24.55 L 249.78 -24.35 L 249.66 -24.15 L 249.57 -23.95 L 249.50 -23.75 L 249.47 -23.55 L 249.46 -23.35 L 249.48 -23.15 L 249.49 -22.95 L 249.50 -22.75 L 249.50 -22.54 L 249.50 -22.33 L 249.50 -22.11 L 249.50 -21.92 L 249.50 -21.75 L 249.50 -21.63 L 249.50 -21.54 L 249.50 -21.46 L 249.50 -21.37 L 249.50 -21.25 L 249.50 -21.08 L 249.50 -20.89 L 249.50 -20.67 L 249.50 -20.46 L 249.50 -20.25 L 249.50 -20.05 L 249.50 -19.85 L 249.50 -19.65 L 249.50 -19.45 L 249.50 -19.25 L 249.50 -19.04 L 249.50 -18.83 L 249.50 -18.61 L 249.50 -18.42 L 249.50 -18.25 L 249.49 -18.12 L 249.48 -18.01 L 249.46 -17.93 L 249.47 -17.84 L 249.50 -17.75 L 249.58 -17.66 L 249.69 -17.57 L 249.81 -17.49 L 249.92 -17.38 L 250.00 -17.25 L 250.03 -17.08 L 250.04 -16.89 L 250.02 -16.67 L 250.01 -16.46 L 250.00 -16.25 L 249.99 -16.04 L 249.98 -15.83 L 249.96 -15.61 L 249.97 -15.42 L 250.00 -15.25 L 250.07 -15.12 L 250.16 -15.01 L 250.28 -14.93 L 250.39 -14.84 L 250.50 -14.75 L 250.60 -14.65 L 250.70 -14.55 L 250.80 -14.45 L 250.90 -14.35 L 251.00 -14.25 L 251.10 -14.15 L 251.20 -14.05 L 251.30 -13.95 L 251.40 -13.85 L 251.50 -13.75 L 251.59 -13.65 L 251.68 -13.55 L 251.76 -13.45 L 251.87 -13.35 L 252.00 -13.25 L 252.16 -13.15 L 252.34 -13.05 L 252.54 -12.95 L 252.76 -12.85 L 253.00 -12.75 L 253.28 -12.64 L 253.59 -12.53 L 253.91 -12.41 L 254.22 -12.32 L 254.50 -12.25 L 254.74 -12.23 L 254.96 -12.24 L 255.16 -12.26 L 255.34 -12.27 L 255.50 -12.25 L 255.62 -12.17 L 255.71 -12.06 L 255.79 -11.94 L 255.88 -11.83 L 256.00 -11.75 L 256.17 -11.72 L 256.36 -11.71 L 256.58 -11.73 L 256.79 -11.74 L 257.00 -11.75 L 257.20 -11.75 L 257.40 -11.75 L 257.60 -11.75 L 257.80 -11.75 L 258.00 -11.75 L 258.20 -11.75 L 258.40 -11.75 L 258.60 -11.75 L 258.80 -11.75 L 259.00 -11.75 L 259.20 -11.75 L 259.40 -11.75 L 259.60 -11.75 L 259.80 -11.75 L 260.00 -11.75 L 260.20 -11.74 L 260.40 -11.73 L 260.60 -11.71 L 260.80 -11.72 L 261.00 -11.75 L 261.21 -11.83 L 261.42 -11.94 L 261.64 -12.06 L 261.83 -12.17 L 262.00 -12.25 L 262.12 -12.27 L 262.19 -12.26 L 262.25 -12.24 L 262.34 -12.23 L 262.50 -12.25 L 262.74 -12.32 L 263.05 -12.41 L 263.39 -12.53 L 263.72 -12.64 L 264.00 -12.75 L 264.24 -12.85 L 264.46 -12.95 L 264.66 -13.05 L 264.84 -13.15 L 265.00 -13.25 L 265.12 -13.35 L 265.21 -13.45 L 265.29 -13.55 L 265.38 -13.65 L 265.50 -13.75 L 265.68 -13.85 L 265.89 -13.95 L 266.11 -14.05 L 266.32 -14.15 L 266.50 -14.25 L 266.63 -14.34 L 266.74 -14.43 L 266.82 -14.51 L 266.91 -14.62 L 267.00 -14.75 L 267.09 -14.93 L 267.18 -15.14 L 267.26 -15.36 L 267.37 -15.57 L 267.50 -15.75 L 267.67 -15.87 L 267.86 -15.96 L 268.08 -16.04 L 268.29 -16.13 L 268.50 -16.25 L 268.71 -16.42 L 268.92 -16.61 L 269.14 -16.83 L 269.33 -17.04 L 269.50 -17.25 L 269.62 -17.44 L 269.71 -17.63 L 269.79 -17.81 L 269.88 -18.02 L 270.00 -18.25 L 270.18 -18.53 L 270.39 -18.84 L 270.61 -19.16 L 270.82 -19.47 L 271.00 -19.75 L 271.12 -19.98 L 271.21 -20.19 L 271.29 -20.37 L 271.38 -20.56 L 271.50 -20.75 L 271.68 -20.96 L 271.89 -21.17 L 272.11 -21.39 L 272.32 -21.58 L 272.50 -21.75 L 272.62 -21.87 L 272.71 -21.96 L 272.79 -22.04 L 272.88 -22.13 L 273.00 -22.25 L 273.18 -22.42 L 273.39 -22.61 L 273.61 -22.83 L 273.82 -23.04 L 274.00 -23.25 L 274.13 -23.46 L 274.24 -23.67 L 274.32 -23.89 L 274.41 -24.08 L 274.50 -24.25 L 274.60 -24.38 L 274.70 -24.49 L 274.80 -24.57 L 274.90 -24.66 L 275.00 -24.75 L 275.10 -24.85 L 275.20 -24.95 L 275.30 -25.05 L 275.40 -25.15 L 275.50 -25.25 L 275.61 -25.35 L 275.72 -25.45 L 275.84 -25.55 L 275.93 -25.65 L 276.00 -25.75 L 276.03 -25.85 L 276.04 -25.95 L 276.02 -26.05 L 276.01 -26.15 L 276.00 -26.25 L 275.99 -26.35 L 275.98 -26.45 L 275.96 -26.55 L 275.97 -26.65 L 276.00 -26.75 L 276.08 -26.86 L 276.21 -26.97 L 276.35 -27.09 L 276.46 -27.18 L 276.50 -27.25 L 276.46 -27.28 L 276.35 -27.29 L 276.21 -27.27 L 276.08 -27.26 L 276.00 -27.25 L 275.97 -27.24 L 275.96 -27.23 L 275.98 -27.21 L 275.99 -27.22 L 276.00 -27.25 L 276.00 -27.32 L 276.00 -27.41 L 276.00 -27.53 L 276.00 -27.64 L 276.00 -27.75 L 276.00 -27.86 L 276.00 -27.97 L 276.00 -28.09 L 276.00 -28.18 L 276.00 -28.25 L 276.00 -28.28 L 276.00 -28.29 L 276.00 -28.27 L 276.00 -28.26 L 276.00 -28.25 L 276.01 -28.25 L 276.02 -28.25 L 276.04 -28.25 L 276.03 -28.25 L 276.00 -28.25 L 275.92 -28.25 L 275.81 -28.25 L 275.69 -28.25 L 275.58 -28.25 L 275.50 -28.25 L 275.47 -28.25 L 275.46 -28.25 L 275.48 -28.25 L 275.49 -28.25 L 275.50 -28.25 L 275.50 -28.25 L 275.50 -28.25 L 275.50 -28.25 L 275.50 -28.25 L 275.50 -28.25 L 275.50 -28.25 L 275.50 -28.25 L 275.50 -28.25 L 275.50 -28.25 L 275.50 -28.25 L 275.50 -28.25 L 275.50 -28.25 L 275.50 -28.25 L 275.50 -28.25 L 275.50 -28.25 L 275.51 -28.25 L 275.52 -28.25 L 275.54 -28.25 L 275.53 -28.25 L 275.50 -28.25 L 275.43 -28.25 L 275.34 -28.25 L 275.22 -28.25 L 275.11 -28.25 L 275.00 -28.25 L 274.89 -28.25 L 274.78 -28.25 L 274.66 -28.25 L 274.57 -28.25 L 274.50 -28.25 L 274.48 -28.25 L 274.49 -28.25 L 274.51 -28.25 L 274.52 -28.25 L 274.50 -28.25 L 274.42 -28.26 L 274.31 -28.27 L 274.19 -28.29 L 274.08 -28.28 L 274.00 -28.25 L 273.98 -28.18 L 273.99 -28.09 L 274.01 -27.97 L 274.02 -27.86 L 274.00 -27.75 L 273.92 -27.65 L 273.81 -27.55 L 273.69 -27.45 L 273.58 -27.35 L 273.50 -27.25 L 273.50 -27.17 L 273.56 -27.12 L 273.62 -27.06 L 273.62 -26.95 L 273.50 -26.75 L 273.20 -26.42 L 272.75 -25.99 L 272.25 -25.51 L 271.80 -25.08 L 271.50 -24.75 L 271.38 -24.55 L 271.38 -24.44 L 271.44 -24.38 L 271.50 -24.33 L 271.50 -24.25 L 271.43 -24.17 L 271.34 -24.10 L 271.22 -24.02 L 271.11 -23.91 L 271.00 -23.75 L 270.90 -23.51 L 270.80 -23.20 L 270.70 -22.86 L 270.60 -22.53 L 270.50 -22.25 L 270.40 -22.01 L 270.30 -21.79 L 270.20 -21.59 L 270.10 -21.41 L 270.00 -21.25 L 269.89 -21.13 L 269.78 -21.04 L 269.66 -20.96 L 269.57 -20.87 L 269.50 -20.75 L 269.48 -20.58 L 269.49 -20.39 L 269.51 -20.17 L 269.52 -19.96 L 269.50 -19.75 L 269.43 -19.55 L 269.34 -19.35 L 269.22 -19.15 L 269.11 -18.95 L 269.00 -18.75 L 268.90 -18.55 L 268.80 -18.35 L 268.70 -18.15 L 268.60 -17.95 L 268.50 -17.75 L 268.39 -17.55 L 268.28 -17.35 L 268.16 -17.15 L 268.07 -16.95 L 268.00 -16.75 L 267.98 -16.55 L 267.99 -16.35 L 268.01 -16.15 L 268.02 -15.95 L 268.00 -15.75 L 267.92 -15.55 L 267.81 -15.35 L 267.69 -15.15 L 267.58 -14.95 L 267.50 -14.75 L 267.48 -14.54 L 267.49 -14.33 L 267.51 -14.11 L 267.52 -13.92 L 267.50 -13.75 L 267.43 -13.63 L 267.34 -13.54 L 267.22 -13.46 L 267.11 -13.37 L 267.00 -13.25 L 266.90 -13.08 L 266.80 -12.89 L 266.70 -12.67 L 266.60 -12.46 L 266.50 -12.25 L 266.39 -12.05 L 266.28 -11.85 L 266.16 -11.65 L 266.07 -11.45 L 266.00 -11.25 L 265.98 -11.05 L 265.99 -10.85 L 266.01 -10.65 L 266.02 -10.45 L 266.00 -10.25 L 265.93 -10.05 L 265.84 -9.85 L 265.72 -9.65 L 265.61 -9.45 L 265.50 -9.25 L 265.39 -9.05 L 265.28 -8.85 L 265.16 -8.65 L 265.07 -8.45 L 265.00 -8.25 L 264.98 -8.06 L 264.99 -7.87 L 265.01 -7.69 L 265.02 -7.48 L 265.00 -7.25 L 264.92 -6.98 L 264.81 -6.69 L 264.69 -6.37 L 264.58 -6.06 L 264.50 -5.75 L 264.48 -5.44 L 264.49 -5.13 L 264.51 -4.81 L 264.52 -4.52 L 264.50 -4.25 L 264.43 -4.03 L 264.34 -3.84 L 264.22 -3.66 L 264.11 -3.47 L 264.00 -3.25 L 263.90 -2.98 L 263.80 -2.69 L 263.70 -2.37 L 263.60 -2.06 L 263.50 -1.75 L 263.40 -1.45 L 263.30 -1.15 L 263.20 -0.85 L 263.10 -0.55 L 263.00 -0.25 L 262.91 0.05 L 262.82 0.35 L 262.74 0.65 L 262.63 0.95 L 262.50 1.25 L 262.32 1.55 L 262.11 1.85 L 261.89 2.15 L 261.68 2.45 L 261.50 2.75 L 261.38 3.05 L 261.29 3.35 L 261.21 3.65 L 261.12 3.95 L 261.00 4.25 L 260.82 4.55 L 260.61 4.85 L 260.39 5.15 L 260.18 5.45 L 260.00 5.75 L 259.87 6.05 L 259.76 6.35 L 259.68 6.65 L 259.59 6.95 L 259.50 7.25 L 259.41 7.56 L 259.32 7.87 L 259.24 8.19 L 259.13 8.48 L 259.00 8.75 L 258.83 8.97 L 258.64 9.16 L 258.42 9.34 L 258.21 9.53 L 258.00 9.75 L 257.79 10.02 L 257.58 10.31 L 257.36 10.63 L 257.17 10.94 L 257.00 11.25 L 256.88 11.56 L 256.79 11.87 L 256.71 12.19 L 256.62 12.48 L 256.50 12.75 L 256.34 12.97 L 256.16 13.14 L 255.96 13.30 L 255.74 13.49 L 255.50 13.75 L 255.22 14.10 L 254.89 14.53 L 254.55 14.97 L 254.24 15.40 L 254.00 15.75 L 253.85 16.01 L 253.78 16.20 L 253.72 16.36 L 253.65 16.53 L 253.50 16.75 L 253.26 17.02 L 252.97 17.31 L 252.65 17.63 L 252.32 17.94 L 252.00 18.25 L 251.68 18.55 L 251.35 18.85 L 251.03 19.15 L 250.74 19.45 L 250.50 19.75 L 250.35 20.05 L 250.28 20.35 L 250.22 20.65 L 250.15 20.95 L 250.00 21.25 L 249.75 21.55 L 249.42 21.85 L 249.08 22.15 L 248.75 22.45 L 248.50 22.75 L 248.35 23.05 L 248.28 23.35 L 248.22 23.65 L 248.15 23.95 L 248.00 24.25 L 247.75 24.56 L 247.42 24.87 L 247.08 25.19 L 246.75 25.48 L 246.50 25.75 L 246.34 25.97 L 246.25 26.16 L 246.19 26.34 L 246.12 26.53 L 246.00 26.75 L 245.83 27.03 L 245.64 27.34 L 245.42 27.66 L 245.21 27.97 L 245.00 28.25 L 244.80 28.49 L 244.60 28.71 L 244.40 28.91 L 244.20 29.09 L 244.00 29.25 L 243.79 29.37 L 243.58 29.46 L 243.36 29.54 L 243.17 29.63 L 243.00 29.75 L 242.87 29.93 L 242.76 30.14 L 242.68 30.36 L 242.59 30.57 L 242.50 30.75 L 242.40 30.88 L 242.30 30.99 L 242.20 31.07 L 242.10 31.16 L 242.00 31.25 L 241.90 31.35 L 241.80 31.45 L 241.70 31.55 L 241.60 31.65 L 241.50 31.75 L 241.40 31.86 L 241.30 31.97 L 241.20 32.09 L 241.10 32.18 L 241.00 32.25 L 240.90 32.28 L 240.80 32.29 L 240.70 32.27 L 240.60 32.26 L 240.50 32.25 L 240.39 32.25 L 240.28 32.25 L 240.16 32.25 L 240.07 32.25 L 240.00 32.25 L 239.97 32.26 L 239.96 32.27 L 239.98 32.29 L 239.99 32.28 L 240.00 32.25 L 240.00 32.18 L 240.00 32.09 L 240.00 31.97 L 240.00 31.86 L 240.00 31.75 L 240.00 31.66 L 240.00 31.57 L 240.00 31.49 L 240.00 31.38 L 240.00 31.25 L 240.00 31.07 L 240.00 30.86 L 240.00 30.64 L 240.00 30.43 L 240.00 30.25 L 240.01 30.13 L 240.02 30.04 L 240.04 29.96 L 240.03 29.87 L 240.00 29.75 L 239.92 29.58 L 239.81 29.39 L 239.69 29.17 L 239.58 28.96 L 239.50 28.75 L 239.46 28.56 L 239.44 28.37 L 239.44 28.19 L 239.46 27.98 L 239.50 27.75 L 239.58 27.49 L 239.69 27.21 L 239.81 26.91 L 239.92 26.59 L 240.00 26.25 L 240.02 25.87 L 240.01 25.46 L 239.99 25.04 L 239.98 24.63 L 240.00 24.25 L 240.08 23.92 L 240.19 23.61 L 240.31 23.33 L 240.42 23.04 L 240.50 22.75 L 240.52 22.45 L 240.51 22.15 L 240.49 21.85 L 240.48 21.55 L 240.50 21.25 L 240.56 20.95 L 240.64 20.65 L 240.74 20.35 L 240.86 20.05 L 241.00 19.75 L 241.18 19.46 L 241.39 19.17 L 241.61 18.89 L 241.82 18.58 L 242.00 18.25 L 242.12 17.87 L 242.21 17.46 L 242.29 17.04 L 242.38 16.63 L 242.50 16.25 L 242.68 15.91 L 242.89 15.59 L 243.11 15.29 L 243.32 15.01 L 243.50 14.75 L 243.62 14.53 L 243.71 14.34 L 243.79 14.16 L 243.88 13.97 L 244.00 13.75 L 244.17 13.47 L 244.36 13.16 L 244.58 12.84 L 244.79 12.53 L 245.00 12.25 L 245.20 12.03 L 245.40 11.84 L 245.60 11.66 L 245.80 11.47 L 246.00 11.25 L 246.20 10.97 L 246.40 10.66 L 246.60 10.34 L 246.80 10.03 L 247.00 9.75 L 247.19 9.53 L 247.38 9.34 L 247.56 9.16 L 247.77 8.97 L 248.00 8.75 L 248.27 8.47 L 248.56 8.16 L 248.88 7.84 L 249.19 7.53 L 249.50 7.25 L 249.81 7.03 L 250.12 6.84 L 250.44 6.66 L 250.73 6.47 L 251.00 6.25 L 251.22 5.97 L 251.39 5.66 L 251.55 5.34 L 251.74 5.03 L 252.00 4.75 L 252.35 4.52 L 252.78 4.31 L 253.22 4.13 L 253.65 3.94 L 254.00 3.75 L 254.26 3.55 L 254.45 3.35 L 254.61 3.15 L 254.78 2.95 L 255.00 2.75 L 255.27 2.55 L 255.56 2.35 L 255.88 2.15 L 256.19 1.95 L 256.50 1.75 L 256.80 1.55 L 257.10 1.35 L 257.40 1.15 L 257.70 0.95 L 258.00 0.75 L 258.31 0.55 L 258.62 0.35 L 258.94 0.15 L 259.23 -0.05 L 259.50 -0.25 L 259.72 -0.46 L 259.91 -0.67 L 260.09 -0.89 L 260.28 -1.08 L 260.50 -1.25 L 260.77 -1.38 L 261.06 -1.49 L 261.38 -1.57 L 261.69 -1.66 L 262.00 -1.75 L 262.31 -1.85 L 262.62 -1.95 L 262.94 -2.05 L 263.23 -2.15 L 263.50 -2.25 L 263.73 -2.34 L 263.94 -2.43 L 264.12 -2.51 L 264.31 -2.62 L 264.50 -2.75 L 264.70 -2.93 L 264.90 -3.14 L 265.10 -3.36 L 265.30 -3.57 L 265.50 -3.75 L 265.71 -3.88 L 265.92 -3.99 L 266.14 -4.07 L 266.33 -4.16 L 266.50 -4.25 L 266.63 -4.36 L 266.74 -4.47 L 266.82 -4.59 L 266.91 -4.68 L 267.00 -4.75 L 267.09 -4.77 L 267.18 -4.76 L 267.26 -4.74 L 267.37 -4.73 L 267.50 -4.75 L 267.68 -4.82 L 267.89 -4.91 L 268.11 -5.03 L 268.32 -5.14 L 268.50 -5.25 L 268.63 -5.36 L 268.74 -5.47 L 268.82 -5.59 L 268.91 -5.68 L 269.00 -5.75 L 269.10 -5.77 L 269.20 -5.76 L 269.30 -5.74 L 269.40 -5.73 L 269.50 -5.75 L 269.60 -5.82 L 269.70 -5.91 L 269.80 -6.03 L 269.90 -6.14 L 270.00 -6.25 L 270.11 -6.36 L 270.22 -6.47 L 270.34 -6.59 L 270.43 -6.68 L 270.50 -6.75 L 270.53 -6.78 L 270.54 -6.79 L 270.52 -6.77 L 270.51 -6.76 L 270.50 -6.75 L 270.49 -6.75 L 270.48 -6.75 L 270.46 -6.75 L 270.47 -6.75 L 270.50 -6.75 L 270.58 -6.75 L 270.69 -6.75 L 270.81 -6.75 L 270.92 -6.75 L 271.00 -6.75" />
    <path d="M 289.50 -63.75 L 289.35 -62.75 L 289.12 -61.28 L 288.88 -59.66 L 288.65 -58.21 L 288.50 -57.25 L 288.46 -56.97 L 288.50 -57.16 L 288.56 -57.54 L 288.58 -57.83 L 288.50 -57.75 L 288.29 -57.19 L 287.98 -56.33 L 287.64 -55.35 L 287.29 -54.43 L 287.00 -53.75 L 286.75 -53.37 L 286.52 -53.16 L 286.30 -53.04 L 286.13 -52.93 L 286.00 -52.75 L 285.94 -52.47 L 285.93 -52.16 L 285.95 -51.84 L 285.98 -51.53 L 286.00 -51.25 L 286.01 -51.02 L 286.02 -50.81 L 286.04 -50.63 L 286.03 -50.44 L 286.00 -50.25 L 285.93 -50.06 L 285.84 -49.87 L 285.72 -49.69 L 285.61 -49.48 L 285.50 -49.25 L 285.39 -48.97 L 285.28 -48.66 L 285.16 -48.34 L 285.07 -48.03 L 285.00 -47.75 L 284.97 -47.53 L 284.96 -47.34 L 284.98 -47.16 L 284.99 -46.97 L 285.00 -46.75 L 285.01 -46.48 L 285.02 -46.19 L 285.04 -45.87 L 285.03 -45.56 L 285.00 -45.25 L 284.92 -44.95 L 284.81 -44.65 L 284.69 -44.35 L 284.58 -44.05 L 284.50 -43.75 L 284.48 -43.44 L 284.49 -43.13 L 284.51 -42.81 L 284.52 -42.52 L 284.50 -42.25 L 284.42 -42.03 L 284.31 -41.84 L 284.19 -41.66 L 284.08 -41.47 L 284.00 -41.25 L 283.98 -40.99 L 284.01 -40.71 L 284.05 -40.41 L 284.06 -40.09 L 284.00 -39.75 L 283.86 -39.37 L 283.65 -38.94 L 283.41 -38.50 L 283.18 -38.09 L 283.00 -37.75 L 282.87 -37.49 L 282.76 -37.30 L 282.68 -37.14 L 282.59 -36.97 L 282.50 -36.75 L 282.40 -36.48 L 282.30 -36.19 L 282.20 -35.87 L 282.10 -35.56 L 282.00 -35.25 L 281.90 -34.95 L 281.80 -34.65 L 281.70 -34.35 L 281.60 -34.05 L 281.50 -33.75 L 281.40 -33.44 L 281.30 -33.13 L 281.20 -32.81 L 281.10 -32.52 L 281.00 -32.25 L 280.89 -32.03 L 280.78 -31.84 L 280.66 -31.66 L 280.57 -31.47 L 280.50 -31.25 L 280.47 -30.98 L 280.46 -30.69 L 280.48 -30.37 L 280.49 -30.06 L 280.50 -29.75 L 280.51 -29.44 L 280.52 -29.13 L 280.54 -28.81 L 280.53 -28.52 L 280.50 -28.25 L 280.43 -28.03 L 280.34 -27.84 L 280.22 -27.66 L 280.11 -27.47 L 280.00 -27.25 L 279.89 -26.97 L 279.78 -26.66 L 279.66 -26.34 L 279.57 -26.03 L 279.50 -25.75 L 279.47 -25.53 L 279.46 -25.34 L 279.48 -25.16 L 279.49 -24.97 L 279.50 -24.75 L 279.51 -24.47 L 279.52 -24.16 L 279.54 -23.84 L 279.53 -23.53 L 279.50 -23.25 L 279.42 -23.02 L 279.31 -22.81 L 279.19 -22.63 L 279.08 -22.44 L 279.00 -22.25 L 278.97 -22.06 L 278.96 -21.87 L 278.98 -21.69 L 278.99 -21.48 L 279.00 -21.25 L 279.00 -20.97 L 279.00 -20.66 L 279.00 -20.34 L 279.00 -20.03 L 279.00 -19.75 L 279.01 -19.52 L 279.02 -19.31 L 279.04 -19.13 L 279.03 -18.94 L 279.00 -18.75 L 278.92 -18.54 L 278.81 -18.33 L 278.69 -18.11 L 278.58 -17.92 L 278.50 -17.75 L 278.47 -17.63 L 278.46 -17.54 L 278.48 -17.46 L 278.49 -17.37 L 278.50 -17.25 L 278.50 -17.07 L 278.50 -16.86 L 278.50 -16.64 L 278.50 -16.43 L 278.50 -16.25 L 278.50 -16.13 L 278.50 -16.04 L 278.50 -15.96 L 278.50 -15.87 L 278.50 -15.75 L 278.50 -15.57 L 278.50 -15.36 L 278.50 -15.14 L 278.50 -14.93 L 278.50 -14.75 L 278.50 -14.62 L 278.50 -14.51 L 278.50 -14.43 L 278.50 -14.34 L 278.50 -14.25 L 278.51 -14.16 L 278.52 -14.07 L 278.54 -13.99 L 278.53 -13.88 L 278.50 -13.75 L 278.42 -13.57 L 278.31 -13.36 L 278.19 -13.14 L 278.08 -12.93 L 278.00 -12.75 L 277.97 -12.62 L 277.96 -12.51 L 277.98 -12.43 L 277.99 -12.34 L 278.00 -12.25 L 278.00 -12.15 L 278.00 -12.05 L 278.00 -11.95 L 278.00 -11.85 L 278.00 -11.75 L 278.00 -11.65 L 278.00 -11.55 L 278.00 -11.45 L 278.00 -11.35 L 278.00 -11.25 L 278.00 -11.15 L 278.00 -11.05 L 278.00 -10.95 L 278.00 -10.85 L 278.00 -10.75 L 278.00 -10.64 L 278.00 -10.53 L 278.00 -10.41 L 278.00 -10.32 L 278.00 -10.25 L 278.01 -10.23 L 278.02 -10.24 L 278.04 -10.26 L 278.03 -10.27 L 278.00 -10.25 L 277.92 -10.17 L 277.79 -10.06 L 277.65 -9.94 L 277.54 -9.83 L 277.50 -9.75 L 277.54 -9.72 L 277.65 -9.71 L 277.79 -9.73 L 277.92 -9.74 L 278.00 -9.75 L 278.04 -9.75 L 278.06 -9.75 L 278.06 -9.75 L 278.04 -9.75 L 278.00 -9.75 L 277.92 -9.75 L 277.81 -9.75 L 277.69 -9.75 L 277.58 -9.75 L 277.50 -9.75 L 277.47 -9.75 L 277.46 -9.75 L 277.48 -9.75 L 277.49 -9.75 L 277.50 -9.75 L 277.50 -9.75 L 277.50 -9.75 L 277.50 -9.75 L 277.50 -9.75 L 277.50 -9.75 L 277.50 -9.75 L 277.50 -9.75 L 277.50 -9.75 L 277.50 -9.75 L 277.50 -9.75 L 277.50 -9.75 L 277.50 -9.75 L 277.50 -9.75 L 277.50 -9.75 L 277.50 -9.75 L 277.50 -9.75 L 277.50 -9.75 L 277.50 -9.75 L 277.50 -9.75 L 277.50 -9.75 L 277.50 -9.75 L 277.50 -9.75 L 277.50 -9.75 L 277.50 -9.75 L 277.50 -9.75 L 277.50 -9.75 L 277.50 -9.75 L 277.50 -9.75 L 277.50 -9.75 L 277.50 -9.75 L 277.50 -9.75 L 277.50 -9.75 L 277.50 -9.75 L 277.50 -9.75 L 277.50 -9.75 L 277.50 -9.75 L 277.50 -9.75 L 277.50 -9.75 L 277.50 -9.75 L 277.50 -9.75 L 277.50 -9.75 L 277.50 -9.75 L 277.50 -9.75 L 277.50 -9.75 L 277.50 -9.75 L 277.50 -9.75 L 277.50 -9.75 L 277.50 -9.75 L 277.50 -9.75 L 277.50 -9.75 L 277.50 -9.75 L 277.50 -9.75 L 277.50 -9.75 L 277.50 -9.75 L 277.50 -9.75 L 277.50 -9.75 L 277.50 -9.75 L 277.50 -9.75 L 277.50 -9.75 L 277.50 -9.75 L 277.50 -9.75 L 277.50 -9.75 L 277.50 -9.75 L 277.50 -9.75 L 277.50 -9.75 L 277.50 -9.74 L 277.50 -9.73 L 277.50 -9.71 L 277.50 -9.72 L 277.50 -9.75 L 277.50 -9.83 L 277.50 -9.94 L 277.50 -10.06 L 277.50 -10.17 L 277.50 -10.25 L 277.50 -10.28 L 277.50 -10.29 L 277.50 -10.27 L 277.50 -10.26 L 277.50 -10.25 L 277.50 -10.25 L 277.50 -10.25 L 277.50 -10.25 L 277.50 -10.25 L 277.50 -10.25 L 277.50 -10.24 L 277.50 -10.23 L 277.50 -10.21 L 277.50 -10.22 L 277.50 -10.25 L 277.50 -10.32 L 277.50 -10.41 L 277.50 -10.53 L 277.50 -10.64 L 277.50 -10.75 L 277.49 -10.83 L 277.48 -10.88 L 277.46 -10.94 L 277.47 -11.05 L 277.50 -11.25 L 277.57 -11.57 L 277.66 -11.99 L 277.78 -12.45 L 277.89 -12.89 L 278.00 -13.25 L 278.11 -13.51 L 278.22 -13.72 L 278.34 -13.90 L 278.43 -14.07 L 278.50 -14.25 L 278.52 -14.46 L 278.51 -14.67 L 278.49 -14.89 L 278.48 -15.08 L 278.50 -15.25 L 278.57 -15.37 L 278.66 -15.44 L 278.78 -15.50 L 278.89 -15.59 L 279.00 -15.75 L 279.10 -16.00 L 279.20 -16.33 L 279.30 -16.67 L 279.40 -17.00 L 279.50 -17.25 L 279.60 -17.41 L 279.70 -17.50 L 279.80 -17.56 L 279.90 -17.63 L 280.00 -17.75 L 280.10 -17.91 L 280.20 -18.09 L 280.30 -18.29 L 280.40 -18.51 L 280.50 -18.75 L 280.59 -19.03 L 280.68 -19.34 L 280.76 -19.66 L 280.87 -19.97 L 281.00 -20.25 L 281.18 -20.48 L 281.39 -20.69 L 281.61 -20.87 L 281.82 -21.06 L 282.00 -21.25 L 282.12 -21.45 L 282.21 -21.65 L 282.29 -21.85 L 282.38 -22.05 L 282.50 -22.25 L 282.68 -22.45 L 282.89 -22.65 L 283.11 -22.85 L 283.32 -23.05 L 283.50 -23.25 L 283.64 -23.45 L 283.76 -23.65 L 283.86 -23.85 L 283.94 -24.05 L 284.00 -24.25 L 284.02 -24.45 L 284.01 -24.65 L 283.99 -24.85 L 283.98 -25.05 L 284.00 -25.25 L 284.06 -25.46 L 284.14 -25.67 L 284.24 -25.89 L 284.36 -26.08 L 284.50 -26.25 L 284.68 -26.37 L 284.91 -26.46 L 285.15 -26.54 L 285.36 -26.63 L 285.50 -26.75 L 285.56 -26.93 L 285.55 -27.14 L 285.51 -27.36 L 285.48 -27.57 L 285.50 -27.75 L 285.57 -27.88 L 285.66 -27.99 L 285.78 -28.07 L 285.89 -28.16 L 286.00 -28.25 L 286.11 -28.35 L 286.22 -28.45 L 286.34 -28.55 L 286.43 -28.65 L 286.50 -28.75 L 286.52 -28.85 L 286.49 -28.95 L 286.45 -29.05 L 286.44 -29.15 L 286.50 -29.25 L 286.64 -29.36 L 286.85 -29.47 L 287.09 -29.59 L 287.32 -29.68 L 287.50 -29.75 L 287.64 -29.77 L 287.76 -29.76 L 287.86 -29.74 L 287.94 -29.73 L 288.00 -29.75 L 288.03 -29.83 L 288.04 -29.94 L 288.02 -30.06 L 288.01 -30.17 L 288.00 -30.25 L 287.99 -30.28 L 287.98 -30.29 L 287.96 -30.27 L 287.97 -30.26 L 288.00 -30.25 L 288.07 -30.25 L 288.16 -30.25 L 288.28 -30.25 L 288.39 -30.25 L 288.50 -30.25 L 288.61 -30.25 L 288.72 -30.25 L 288.84 -30.25 L 288.93 -30.25 L 289.00 -30.25 L 289.02 -30.25 L 289.01 -30.25 L 288.99 -30.25 L 288.98 -30.25 L 289.00 -30.25 L 289.08 -30.25 L 289.19 -30.25 L 289.31 -30.25 L 289.42 -30.25 L 289.50 -30.25 L 289.53 -30.25 L 289.54 -30.25 L 289.52 -30.25 L 289.51 -30.25 L 289.50 -30.25 L 289.50 -30.25 L 289.50 -30.25 L 289.50 -30.25 L 289.50 -30.25 L 289.50 -30.25 L 289.50 -30.25 L 289.50 -30.25 L 289.50 -30.25 L 289.50 -30.25 L 289.50 -30.25 L 289.49 -30.25 L 289.48 -30.25 L 289.46 -30.25 L 289.47 -30.25 L 289.50 -30.25 L 289.58 -30.25 L 289.69 -30.25 L 289.81 -30.25 L 289.92 -30.25 L 290.00 -30.25 L 290.02 -30.25 L 290.01 -30.25 L 289.99 -30.25 L 289.98 -30.25 L 290.00 -30.25 L 290.08 -30.25 L 290.19 -30.25 L 290.31 -30.25 L 290.42 -30.25 L 290.50 -30.25 L 290.52 -30.25 L 290.51 -30.25 L 290.49 -30.25 L 290.48 -30.25 L 290.50 -30.25 L 290.58 -30.25 L 290.69 -30.25 L 290.81 -30.25 L 290.92 -30.25 L 291.00 -30.25 L 291.03 -30.26 L 291.04 -30.27 L 291.02 -30.29 L 291.01 -30.28 L 291.00 -30.25 L 290.99 -30.18 L 290.98 -30.09 L 290.96 -29.97 L 290.97 -29.86 L 291.00 -29.75 L 291.08 -29.64 L 291.19 -29.53 L 291.31 -29.41 L 291.42 -29.32 L 291.50 -29.25 L 291.52 -29.23 L 291.51 -29.24 L 291.49 -29.26 L 291.48 -29.27 L 291.50 -29.25 L 291.58 -29.18 L 291.69 -29.09 L 291.81 -28.97 L 291.92 -28.86 L 292.00 -28.75 L 292.01 -28.67 L 291.96 -28.62 L 291.92 -28.56 L 291.91 -28.45 L 292.00 -28.25 L 292.22 -27.92 L 292.54 -27.49 L 292.90 -27.01 L 293.24 -26.58 L 293.50 -26.25 L 293.67 -26.05 L 293.80 -25.94 L 293.88 -25.88 L 293.95 -25.83 L 294.00 -25.75 L 294.02 -25.65 L 294.01 -25.55 L 293.99 -25.45 L 293.98 -25.35 L 294.00 -25.25 L 294.08 -25.16 L 294.19 -25.07 L 294.31 -24.99 L 294.42 -24.88 L 294.50 -24.75 L 294.53 -24.57 L 294.54 -24.36 L 294.52 -24.14 L 294.51 -23.93 L 294.50 -23.75 L 294.50 -23.63 L 294.50 -23.54 L 294.50 -23.46 L 294.50 -23.37 L 294.50 -23.25 L 294.50 -23.08 L 294.50 -22.89 L 294.50 -22.67 L 294.50 -22.46 L 294.50 -22.25 L 294.49 -22.05 L 294.48 -21.85 L 294.46 -21.65 L 294.47 -21.45 L 294.50 -21.25 L 294.58 -21.05 L 294.71 -20.85 L 294.85 -20.65 L 294.96 -20.45 L 295.00 -20.25 L 294.96 -20.05 L 294.85 -19.85 L 294.71 -19.65 L 294.58 -19.45 L 294.50 -19.25 L 294.47 -19.05 L 294.46 -18.85 L 294.48 -18.65 L 294.49 -18.45 L 294.50 -18.25 L 294.51 -18.05 L 294.52 -17.85 L 294.54 -17.65 L 294.53 -17.45 L 294.50 -17.25 L 294.42 -17.05 L 294.31 -16.85 L 294.19 -16.65 L 294.08 -16.45 L 294.00 -16.25 L 293.98 -16.05 L 293.99 -15.85 L 294.01 -15.65 L 294.02 -15.45 L 294.00 -15.25 L 293.92 -15.05 L 293.81 -14.85 L 293.69 -14.65 L 293.58 -14.45 L 293.50 -14.25 L 293.47 -14.05 L 293.46 -13.85 L 293.48 -13.65 L 293.49 -13.45 L 293.50 -13.25 L 293.51 -13.05 L 293.52 -12.85 L 293.54 -12.65 L 293.53 -12.45 L 293.50 -12.25 L 293.42 -12.04 L 293.31 -11.83 L 293.19 -11.61 L 293.08 -11.42 L 293.00 -11.25 L 292.97 -11.13 L 292.96 -11.04 L 292.98 -10.96 L 292.99 -10.87 L 293.00 -10.75 L 293.00 -10.57 L 293.00 -10.36 L 293.00 -10.14 L 293.00 -9.93 L 293.00 -9.75 L 293.01 -9.63 L 293.02 -9.54 L 293.04 -9.46 L 293.03 -9.37 L 293.00 -9.25 L 292.92 -9.07 L 292.81 -8.86 L 292.69 -8.64 L 292.58 -8.43 L 292.50 -8.25 L 292.47 -8.12 L 292.46 -8.01 L 292.48 -7.93 L 292.49 -7.84 L 292.50 -7.75 L 292.50 -7.65 L 292.50 -7.55 L 292.50 -7.45 L 292.50 -7.35 L 292.50 -7.25 L 292.50 -7.15 L 292.50 -7.05 L 292.50 -6.95 L 292.50 -6.85 L 292.50 -6.75 L 292.51 -6.64 L 292.52 -6.53 L 292.54 -6.41 L 292.53 -6.32 L 292.50 -6.25 L 292.42 -6.22 L 292.29 -6.21 L 292.15 -6.23 L 292.04 -6.24 L 292.00 -6.25 L 292.04 -6.26 L 292.15 -6.27 L 292.29 -6.29 L 292.42 -6.28 L 292.50 -6.25 L 292.53 -6.17 L 292.54 -6.06 L 292.52 -5.94 L 292.51 -5.83 L 292.50 -5.75 L 292.50 -5.72 L 292.50 -5.71 L 292.50 -5.73 L 292.50 -5.74 L 292.50 -5.75 L 292.51 -5.75 L 292.52 -5.75 L 292.54 -5.75 L 292.53 -5.75 L 292.50 -5.75 L 292.42 -5.75 L 292.31 -5.75 L 292.19 -5.75 L 292.08 -5.75 L 292.00 -5.75 L 291.97 -5.75 L 291.96 -5.75 L 291.98 -5.75 L 291.99 -5.75 L 292.00 -5.75 L 292.00 -5.75 L 292.00 -5.75 L 292.00 -5.75 L 292.00 -5.75 L 292.00 -5.75 L 292.00 -5.75 L 292.00 -5.75 L 292.00 -5.75 L 292.00 -5.75 L 292.00 -5.75 L 292.00 -5.74 L 292.00 -5.73 L 292.00 -5.71 L 292.00 -5.72 L 292.00 -5.75 L 292.00 -5.83 L 292.00 -5.94 L 292.00 -6.06 L 292.00 -6.17 L 292.00 -6.25 L 292.00 -6.28 L 292.00 -6.29 L 292.00 -6.27 L 292.00 -6.26 L 292.00 -6.25" />
    <path d="M 298.00 -28.75 L 297.77 -27.17 L 297.44 -24.85 L 297.06 -22.27 L 296.73 -19.91 L 296.50 -18.25 L 296.40 -17.45 L 296.39 -17.19 L 296.43 -17.23 L 296.48 -17.33 L 296.50 -17.25 L 296.51 -16.97 L 296.52 -16.66 L 296.54 -16.34 L 296.53 -16.03 L 296.50 -15.75 L 296.42 -15.51 L 296.31 -15.29 L 296.19 -15.09 L 296.08 -14.91 L 296.00 -14.75 L 295.97 -14.63 L 295.96 -14.54 L 295.98 -14.46 L 295.99 -14.37 L 296.00 -14.25 L 296.00 -14.08 L 296.00 -13.89 L 296.00 -13.67 L 296.00 -13.46 L 296.00 -13.25 L 296.00 -13.04 L 296.00 -12.83 L 296.00 -12.61 L 296.00 -12.42 L 296.00 -12.25 L 296.00 -12.12 L 296.00 -12.01 L 296.00 -11.93 L 296.00 -11.84 L 296.00 -11.75 L 296.00 -11.64 L 296.00 -11.53 L 296.00 -11.41 L 296.00 -11.32 L 296.00 -11.25 L 296.00 -11.23 L 296.00 -11.24 L 296.00 -11.26 L 296.00 -11.27 L 296.00 -11.25 L 296.00 -11.17 L 296.00 -11.06 L 296.00 -10.94 L 296.00 -10.83 L 296.00 -10.75 L 296.00 -10.73 L 296.00 -10.74 L 296.00 -10.76 L 296.00 -10.77 L 296.00 -10.75 L 296.00 -10.67 L 296.00 -10.56 L 296.00 -10.44 L 296.00 -10.33 L 296.00 -10.25 L 296.00 -10.22 L 296.00 -10.21 L 296.00 -10.23 L 296.00 -10.24 L 296.00 -10.25 L 296.00 -10.25 L 296.00 -10.25 L 296.00 -10.25 L 296.00 -10.25 L 296.00 -10.25 L 296.00 -10.25 L 296.00 -10.25 L 296.00 -10.25 L 296.00 -10.25 L 296.00 -10.25 L 296.00 -10.25 L 296.00 -10.25 L 296.00 -10.25 L 296.00 -10.25 L 296.00 -10.25 L 296.00 -10.25 L 296.00 -10.25 L 296.00 -10.25 L 296.00 -10.25 L 296.00 -10.25 L 296.00 -10.25 L 296.00 -10.25 L 296.00 -10.25 L 296.00 -10.25 L 296.00 -10.25 L 296.00 -10.25 L 296.00 -10.25 L 296.00 -10.25 L 296.00 -10.25 L 296.00 -10.25 L 295.99 -10.25 L 295.98 -10.25 L 295.96 -10.25 L 295.97 -10.25 L 296.00 -10.25 L 296.08 -10.25 L 296.19 -10.25 L 296.31 -10.25 L 296.42 -10.25 L 296.50 -10.25 L 296.53 -10.25 L 296.54 -10.25 L 296.52 -10.25 L 296.51 -10.25 L 296.50 -10.25" />
    <path d="M 302.50 -45.75 L 302.20 -45.06 L 301.75 -44.03 L 301.25 -42.91 L 300.80 -41.90 L 300.50 -41.25 L 300.37 -41.04 L 300.36 -41.11 L 300.40 -41.35 L 300.47 -41.60 L 300.50 -41.75" />
    <path d="M 303.50 -8.75 L 304.85 -9.56 L 306.84 -10.75 L 309.04 -12.07 L 311.07 -13.32 L 312.50 -14.25 L 313.22 -14.81 L 313.50 -15.16 L 313.52 -15.38 L 313.46 -15.55 L 313.50 -15.75 L 313.62 -15.97 L 313.71 -16.16 L 313.79 -16.34 L 313.88 -16.53 L 314.00 -16.75 L 314.18 -17.03 L 314.39 -17.34 L 314.61 -17.66 L 314.82 -17.97 L 315.00 -18.25 L 315.12 -18.48 L 315.21 -18.69 L 315.29 -18.87 L 315.38 -19.06 L 315.50 -19.25 L 315.68 -19.45 L 315.89 -19.65 L 316.11 -19.85 L 316.32 -20.05 L 316.50 -20.25 L 316.62 -20.45 L 316.71 -20.65 L 316.79 -20.85 L 316.88 -21.05 L 317.00 -21.25 L 317.18 -21.45 L 317.39 -21.65 L 317.61 -21.85 L 317.82 -22.05 L 318.00 -22.25 L 318.13 -22.45 L 318.24 -22.65 L 318.32 -22.85 L 318.41 -23.05 L 318.50 -23.25 L 318.60 -23.46 L 318.70 -23.67 L 318.80 -23.89 L 318.90 -24.08 L 319.00 -24.25 L 319.10 -24.38 L 319.20 -24.49 L 319.30 -24.57 L 319.40 -24.66 L 319.50 -24.75 L 319.60 -24.86 L 319.70 -24.97 L 319.80 -25.09 L 319.90 -25.18 L 320.00 -25.25 L 320.10 -25.28 L 320.20 -25.29 L 320.30 -25.27 L 320.40 -25.26 L 320.50 -25.25 L 320.60 -25.25 L 320.70 -25.25 L 320.80 -25.25 L 320.90 -25.25 L 321.00 -25.25 L 321.11 -25.24 L 321.22 -25.23 L 321.34 -25.21 L 321.43 -25.22 L 321.50 -25.25 L 321.52 -25.33 L 321.51 -25.44 L 321.49 -25.56 L 321.48 -25.67 L 321.50 -25.75 L 321.58 -25.78 L 321.69 -25.79 L 321.81 -25.77 L 321.92 -25.76 L 322.00 -25.75 L 322.03 -25.75 L 322.04 -25.75 L 322.02 -25.75 L 322.01 -25.75 L 322.00 -25.75 L 322.00 -25.75 L 322.00 -25.75 L 322.00 -25.75 L 322.00 -25.75 L 322.00 -25.75 L 322.00 -25.75 L 322.00 -25.75 L 322.00 -25.75 L 322.00 -25.75 L 322.00 -25.75 L 322.00 -25.75 L 322.00 -25.75 L 322.00 -25.75 L 322.00 -25.75 L 322.00 -25.75 L 322.00 -25.75 L 322.00 -25.75 L 322.00 -25.75 L 322.00 -25.75 L 322.00 -25.75 L 322.00 -25.75 L 322.00 -25.75 L 322.00 -25.75 L 322.00 -25.75 L 322.00 -25.75 L 321.99 -25.76 L 321.98 -25.77 L 321.96 -25.79 L 321.97 -25.78 L 322.00 -25.75 L 322.08 -25.68 L 322.19 -25.59 L 322.31 -25.47 L 322.42 -25.36 L 322.50 -25.25 L 322.53 -25.15 L 322.54 -25.05 L 322.52 -24.95 L 322.51 -24.85 L 322.50 -24.75 L 322.48 -24.67 L 322.43 -24.62 L 322.39 -24.56 L 322.40 -24.45 L 322.50 -24.25 L 322.72 -23.92 L 323.04 -23.49 L 323.40 -23.01 L 323.74 -22.58 L 324.00 -22.25 L 324.17 -22.05 L 324.30 -21.94 L 324.38 -21.88 L 324.45 -21.83 L 324.50 -21.75 L 324.53 -21.65 L 324.54 -21.55 L 324.52 -21.45 L 324.51 -21.35 L 324.50 -21.25 L 324.49 -21.15 L 324.48 -21.05 L 324.46 -20.95 L 324.47 -20.85 L 324.50 -20.75 L 324.58 -20.66 L 324.69 -20.57 L 324.81 -20.49 L 324.92 -20.38 L 325.00 -20.25 L 325.03 -20.07 L 325.04 -19.86 L 325.02 -19.64 L 325.01 -19.43 L 325.00 -19.25 L 325.00 -19.12 L 325.00 -19.01 L 325.00 -18.93 L 325.00 -18.84 L 325.00 -18.75 L 325.00 -18.66 L 325.00 -18.57 L 325.00 -18.49 L 325.00 -18.38 L 325.00 -18.25 L 325.00 -18.08 L 325.00 -17.89 L 325.00 -17.67 L 325.00 -17.46 L 325.00 -17.25 L 325.00 -17.06 L 325.00 -16.87 L 325.00 -16.69 L 325.00 -16.48 L 325.00 -16.25 L 325.00 -15.97 L 325.00 -15.64 L 325.00 -15.30 L 325.00 -14.99 L 325.00 -14.75 L 325.00 -14.59 L 325.00 -14.50 L 325.00 -14.44 L 325.00 -14.37 L 325.00 -14.25 L 325.00 -14.08 L 325.00 -13.89 L 325.00 -13.67 L 325.00 -13.46 L 325.00 -13.25 L 325.00 -13.06 L 325.00 -12.87 L 325.00 -12.69 L 325.00 -12.48 L 325.00 -12.25 L 325.00 -11.97 L 325.00 -11.66 L 325.00 -11.34 L 325.00 -11.03 L 325.00 -10.75 L 325.00 -10.52 L 325.00 -10.31 L 325.00 -10.13 L 325.00 -9.94 L 325.00 -9.75 L 325.00 -9.55 L 325.00 -9.35 L 325.00 -9.15 L 325.00 -8.95 L 325.00 -8.75 L 325.01 -8.59 L 325.02 -8.47 L 325.04 -8.33 L 325.03 -8.11 L 325.00 -7.75 L 324.93 -7.18 L 324.84 -6.43 L 324.72 -5.63 L 324.61 -4.86 L 324.50 -4.25 L 324.39 -3.82 L 324.28 -3.51 L 324.16 -3.25 L 324.07 -3.02 L 324.00 -2.75 L 323.98 -2.45 L 323.99 -2.15 L 324.01 -1.85 L 324.02 -1.55 L 324.00 -1.25 L 323.93 -0.95 L 323.84 -0.65 L 323.72 -0.35 L 323.61 -0.05 L 323.50 0.25 L 323.40 0.55 L 323.30 0.85 L 323.20 1.15 L 323.10 1.45 L 323.00 1.75 L 322.91 2.05 L 322.82 2.35 L 322.74 2.65 L 322.63 2.95 L 322.50 3.25 L 322.32 3.55 L 322.11 3.85 L 321.89 4.15 L 321.68 4.45 L 321.50 4.75 L 321.37 5.04 L 321.26 5.33 L 321.18 5.61 L 321.09 5.92 L 321.00 6.25 L 320.90 6.63 L 320.80 7.06 L 320.70 7.50 L 320.60 7.91 L 320.50 8.25 L 320.40 8.51 L 320.30 8.70 L 320.20 8.86 L 320.10 9.03 L 320.00 9.25 L 319.90 9.53 L 319.80 9.84 L 319.70 10.16 L 319.60 10.47 L 319.50 10.75 L 319.40 10.97 L 319.30 11.16 L 319.20 11.34 L 319.10 11.53 L 319.00 11.75 L 318.89 12.03 L 318.78 12.34 L 318.66 12.66 L 318.57 12.97 L 318.50 13.25 L 318.48 13.49 L 318.51 13.71 L 318.55 13.91 L 318.56 14.09 L 318.50 14.25 L 318.36 14.37 L 318.15 14.46 L 317.91 14.54 L 317.68 14.63 L 317.50 14.75 L 317.37 14.91 L 317.26 15.09 L 317.18 15.29 L 317.09 15.51 L 317.00 15.75 L 316.90 16.03 L 316.80 16.36 L 316.70 16.70 L 316.60 17.01 L 316.50 17.25 L 316.39 17.42 L 316.28 17.55 L 316.16 17.63 L 316.07 17.70 L 316.00 17.75 L 315.98 17.77 L 315.99 17.76 L 316.01 17.74 L 316.02 17.73 L 316.00 17.75 L 315.92 17.83 L 315.81 17.94 L 315.69 18.06 L 315.58 18.17 L 315.50 18.25 L 315.48 18.28 L 315.49 18.29 L 315.51 18.27 L 315.52 18.26 L 315.50 18.25 L 315.42 18.24 L 315.31 18.23 L 315.19 18.21 L 315.08 18.22 L 315.00 18.25 L 314.98 18.33 L 314.99 18.44 L 315.01 18.56 L 315.02 18.67 L 315.00 18.75 L 314.92 18.78 L 314.81 18.79 L 314.69 18.77 L 314.58 18.76 L 314.50 18.75 L 314.47 18.75 L 314.46 18.75 L 314.48 18.75 L 314.49 18.75 L 314.50 18.75 L 314.51 18.76 L 314.52 18.77 L 314.54 18.79 L 314.53 18.78 L 314.50 18.75 L 314.42 18.67 L 314.31 18.56 L 314.19 18.44 L 314.08 18.33 L 314.00 18.25 L 313.97 18.22 L 313.96 18.21 L 313.98 18.23 L 313.99 18.24 L 314.00 18.25 L 314.00 18.25 L 314.00 18.25 L 314.00 18.25 L 314.00 18.25 L 314.00 18.25 L 314.00 18.25 L 314.00 18.25 L 314.00 18.25 L 314.00 18.25 L 314.00 18.25 L 314.00 18.25 L 314.00 18.25 L 314.00 18.25 L 314.00 18.25 L 314.00 18.25 L 314.00 18.25 L 314.00 18.25 L 314.00 18.25 L 314.00 18.25 L 314.00 18.25 L 314.00 18.25 L 314.00 18.25 L 314.00 18.25 L 314.00 18.25 L 314.00 18.25 L 314.00 18.25 L 314.00 18.25 L 314.00 18.25 L 314.00 18.25 L 314.00 18.25 L 314.00 18.26 L 314.00 18.27 L 314.00 18.29 L 314.00 18.28 L 314.00 18.25 L 314.00 18.18 L 314.00 18.09 L 314.00 17.97 L 314.00 17.86 L 314.00 17.75 L 314.00 17.65 L 314.00 17.55 L 314.00 17.45 L 314.00 17.35 L 314.00 17.25 L 313.99 17.17 L 313.98 17.12 L 313.96 17.06 L 313.97 16.95 L 314.00 16.75 L 314.07 16.43 L 314.16 16.01 L 314.28 15.55 L 314.39 15.11 L 314.50 14.75 L 314.60 14.48 L 314.70 14.25 L 314.80 14.07 L 314.90 13.90 L 315.00 13.75 L 315.10 13.63 L 315.20 13.54 L 315.30 13.46 L 315.40 13.37 L 315.50 13.25 L 315.60 13.07 L 315.70 12.86 L 315.80 12.64 L 315.90 12.43 L 316.00 12.25 L 316.11 12.13 L 316.22 12.04 L 316.34 11.96 L 316.43 11.87 L 316.50 11.75 L 316.52 11.58 L 316.49 11.39 L 316.45 11.17 L 316.44 10.96 L 316.50 10.75 L 316.64 10.55 L 316.85 10.35 L 317.09 10.15 L 317.32 9.95 L 317.50 9.75 L 317.63 9.56 L 317.74 9.37 L 317.82 9.19 L 317.91 8.98 L 318.00 8.75 L 318.09 8.47 L 318.18 8.16 L 318.26 7.84 L 318.37 7.53 L 318.50 7.25 L 318.67 7.02 L 318.86 6.81 L 319.08 6.63 L 319.29 6.44 L 319.50 6.25 L 319.70 6.06 L 319.90 5.87 L 320.10 5.69 L 320.30 5.48 L 320.50 5.25 L 320.71 4.98 L 320.92 4.69 L 321.14 4.37 L 321.33 4.06 L 321.50 3.75 L 321.60 3.46 L 321.64 3.17 L 321.68 2.89 L 321.78 2.58 L 322.00 2.25 L 322.40 1.87 L 322.93 1.44 L 323.51 1.00 L 324.06 0.59 L 324.50 0.25 L 324.80 -0.01 L 325.01 -0.22 L 325.17 -0.40 L 325.32 -0.57 L 325.50 -0.75 L 325.69 -0.95 L 325.88 -1.15 L 326.06 -1.35 L 326.27 -1.55 L 326.50 -1.75 L 326.78 -1.96 L 327.09 -2.17 L 327.41 -2.39 L 327.72 -2.58 L 328.00 -2.75 L 328.22 -2.87 L 328.41 -2.96 L 328.59 -3.04 L 328.78 -3.13 L 329.00 -3.25 L 329.28 -3.43 L 329.59 -3.64 L 329.91 -3.86 L 330.22 -4.07 L 330.50 -4.25 L 330.74 -4.39 L 330.96 -4.51 L 331.16 -4.61 L 331.34 -4.69 L 331.50 -4.75 L 331.62 -4.77 L 331.71 -4.76 L 331.79 -4.74 L 331.88 -4.73 L 332.00 -4.75 L 332.17 -4.82 L 332.36 -4.91 L 332.58 -5.03 L 332.79 -5.14 L 333.00 -5.25 L 333.21 -5.35 L 333.42 -5.45 L 333.64 -5.55 L 333.83 -5.65 L 334.00 -5.75 L 334.13 -5.86 L 334.24 -5.97 L 334.32 -6.09 L 334.41 -6.18 L 334.50 -6.25 L 334.59 -6.27 L 334.68 -6.26 L 334.76 -6.24 L 334.87 -6.23 L 335.00 -6.25 L 335.18 -6.33 L 335.39 -6.44 L 335.61 -6.56 L 335.82 -6.67 L 336.00 -6.75 L 336.14 -6.78 L 336.26 -6.79 L 336.36 -6.77 L 336.44 -6.76 L 336.50 -6.75" />
    <path d="M 322.50 -48.75 L 322.50 -48.75 L 322.50 -48.75 L 322.50 -48.75 L 322.50 -48.75 L 322.50 -48.75" />
  </g>
</svg>